<?xml version="1.0" encoding="UTF-8" standalone="no"?>
<!-- Created with Inkscape (http://www.inkscape.org/) -->

<svg
   xmlns:dc="http://purl.org/dc/elements/1.1/"
   xmlns:cc="http://creativecommons.org/ns#"
   xmlns:rdf="http://www.w3.org/1999/02/22-rdf-syntax-ns#"
   xmlns:svg="http://www.w3.org/2000/svg"
   xmlns="http://www.w3.org/2000/svg"
   xmlns:sodipodi="http://sodipodi.sourceforge.net/DTD/sodipodi-0.dtd"
   xmlns:inkscape="http://www.inkscape.org/namespaces/inkscape"
   width="74mm"
   height="52mm"
   viewBox="0 0 74 52"
   version="1.1"
   id="svg848"
   inkscape:export-filename="/home/towa/source/towa/stickers/faschist/faschist1.png"
   inkscape:export-xdpi="300"
   inkscape:export-ydpi="300"
   inkscape:version="0.92.3 (2405546, 2018-03-11)"
   sodipodi:docname="1faschist.svg">
  <defs
     id="defs842" />
  <sodipodi:namedview
     id="base"
     pagecolor="#ffffff"
     bordercolor="#666666"
     borderopacity="1.0"
     inkscape:pageopacity="0.0"
     inkscape:pageshadow="2"
     inkscape:zoom="2.0979982"
     inkscape:cx="43.844453"
     inkscape:cy="60.626774"
     inkscape:document-units="mm"
     inkscape:current-layer="layer1"
     showgrid="false"
     inkscape:window-width="1920"
     inkscape:window-height="1080"
     inkscape:window-x="0"
     inkscape:window-y="0"
     inkscape:window-maximized="0" />
  <metadata
     id="metadata845">
    <rdf:RDF>
      <cc:Work
         rdf:about="">
        <dc:format>image/svg+xml</dc:format>
        <dc:type
           rdf:resource="http://purl.org/dc/dcmitype/StillImage" />
        <dc:title></dc:title>
      </cc:Work>
    </rdf:RDF>
  </metadata>
  <g
     inkscape:label="Layer 1"
     inkscape:groupmode="layer"
     id="layer1"
     transform="translate(0,-245)">
    <rect
       style="opacity:1;fill:#f9f9f9;fill-opacity:1;stroke:none;stroke-width:0.82020831;stroke-linecap:butt;stroke-linejoin:round;stroke-miterlimit:4;stroke-dasharray:none;stroke-opacity:1;paint-order:normal"
       id="rect2401"
       height="52"
       x="0"
       y="245"
       width="74" />
    <text
       xml:space="preserve"
       style="font-style:normal;font-variant:normal;font-weight:300;font-stretch:normal;font-size:22.57777786px;line-height:6.61458302px;font-family:Overpass;-inkscape-font-specification:'Overpass, Light';font-variant-ligatures:normal;font-variant-caps:normal;font-variant-numeric:normal;font-feature-settings:normal;text-align:start;letter-spacing:0px;word-spacing:0px;writing-mode:lr-tb;text-anchor:start;fill:#6089ae;fill-opacity:1;stroke:none;stroke-width:0.26458332px;stroke-linecap:butt;stroke-linejoin:miter;stroke-opacity:1"
       x="152.34363"
       y="96.547852"
       id="text1450"><tspan
         sodipodi:role="line"
         id="tspan1448"
         x="152.34363"
         y="105.49959"
         style="fill:#6089ae;fill-opacity:1;stroke-width:0.26458332px" /></text>
    <g
       id="g2399"
       transform="translate(-4.4657404e-7,0.25815242)">
      <g
         transform="translate(0,-1.5875053)"
         id="g2336">
        <g
           transform="matrix(0.04018515,0,0,0.04018515,39.926709,249.09185)"
           id="g840"
           style="stroke-width:6.5841074">
          <path
             style="fill:#0c87d1;fill-opacity:1;fill-rule:nonzero;stroke:none;stroke-width:6.5841074"
             id="path12458"
             d="m 688.61282,0.27696 53.67562,84.99088 -53.87323,85.18873 -54.38707,-84.83261 54.58467,-85.347"
             inkscape:connector-curvature="0" />
          <path
             style="fill:#7fb8e6;fill-opacity:1;fill-rule:nonzero;stroke:none;stroke-width:6.5841074"
             id="path12462"
             d="m 533.71252,98.04813 c 3.55728,3.67977 7.98413,5.06464 13.47817,3.95675 4.22924,-0.87051 7.58889,3.36323 7.54934,6.52863 -0.0405,3.20497 -2.64822,7.12214 -8.02368,7.51782 -6.56115,0.51436 -10.158,1.74096 -12.13433,3.04669 -2.5691,1.62226 -6.67975,7.24084 -7.94456,10.99975 0,0.079 2.29245,0.27694 3.47824,0.51437 -0.94812,3.00712 -0.82972,7.67608 -0.47456,9.97099 1.18579,-1.14745 2.41104,-2.21577 3.79445,-3.12583 -0.71134,1.464 -1.22527,6.13296 -1.14623,8.42787 1.42297,-1.14746 3.00399,-2.09707 4.62447,-2.92799 -1.42287,2.73015 -2.01581,7.31998 -2.01581,7.39912 1.58102,-0.27694 3.16203,-0.39565 4.78262,-0.39565 -3.00389,1.10789 -4.30827,2.96756 -4.54545,4.90636 -2.05527,0.98923 -3.47824,3.12583 -3.47824,5.57901 0,2.88843 1.97625,5.30204 4.62447,5.97469 -0.39563,-1.18702 -0.19732,-3.32367 0.39562,-4.23372 0.43511,-0.51437 1.02765,-0.87051 1.69952,-0.94962 1.22535,0.39565 3.6364,0.23743 5.57318,-1.38485 3.59672,1.9388 6.00787,5.73727 6.00787,10.12926 0,0.15832 0,0.31654 0,0.47476 3.16204,-1.93881 5.3359,-5.38117 5.49396,-9.29835 4.54544,1.34529 5.25697,6.29122 3.83399,8.82354 2.76682,-1.66184 4.66405,-4.66896 4.66405,-8.1509 0,-1.74097 -0.47457,-3.36323 -1.30439,-4.78766 2.41104,1.06833 4.26881,3.24453 4.90121,5.85599 0.43509,-1.14746 0.71132,-2.37405 0.71132,-3.71935 0,-5.14376 -3.87347,-9.37748 -8.89327,-9.971 -1.30427,-0.8309 -2.8853,-1.34529 -4.58491,-1.34529 -1.62058,0 -3.12257,0.43526 -4.38739,1.18702 l -4.34771,-14.71909 c 1.38339,0.98923 4.62446,2.57189 4.70348,2.61146 0.27625,-2.41361 0.90864,-4.82724 1.89722,-7.20128 4.74306,3.4028 10.67191,4.15459 10.71137,4.15459 -0.19731,-1.46401 -0.3157,-2.96756 -0.23677,-4.47113 4.98013,3.08626 11.34377,3.20497 11.42279,3.20497 -1.30427,-4.66896 -0.75079,-8.90268 -0.11838,-12.50331 0.6324,-3.64021 1.0672,-5.85599 1.14632,-6.13296 0.3157,-0.0395 2.49007,-0.27694 3.99206,1.06832 1.54146,1.30573 1.38341,4.82723 1.18569,6.44949 -0.9481,6.76603 0.35617,21.36642 0.35617,21.44556 1.77864,-0.87051 3.67586,-1.50357 5.65211,-1.97838 -0.15785,2.33449 0.47456,6.3308 0.51402,6.40994 1.22525,-0.67269 2.52963,-1.2266 3.87347,-1.70141 0.0809,1.14746 0.23677,2.29492 0.4351,3.40281 0,0.0395 0,0.0395 0.0405,0.079 -0.90864,0.8309 -1.54145,1.97837 -1.69961,3.2841 -2.05527,0.98922 -3.47824,3.12583 -3.47824,5.57901 0,2.84885 1.97635,5.30204 4.62457,5.97468 -0.35617,-0.87051 -0.23677,-3.24453 0.4351,-4.27328 0.39563,-0.51437 0.98858,-0.83091 1.66014,-0.94962 1.0672,0.47476 4.07109,0.19782 5.57308,-1.3453 3.59683,1.93881 6.04734,5.73729 6.04734,10.0897 0,0.15832 -0.0405,0.35615 -0.0405,0.51437 3.16204,-1.93881 5.3359,-5.38118 5.49406,-9.33792 2.60865,0.75179 4.50587,3.1654 4.50587,6.01425 0,1.02876 -0.23677,1.97838 -0.67187,2.80929 2.80638,-1.62226 4.66404,-4.66895 4.66404,-8.11132 0,-1.78053 -0.47456,-3.40281 -1.30438,-4.78766 2.4506,1.06831 4.2688,3.20496 4.90121,5.85598 0.43509,-1.14746 0.71133,-2.41362 0.71133,-3.71934 0,-5.14377 -3.87347,-9.37749 -8.85371,-9.971 -1.34384,-0.87051 -2.92486,-1.34529 -4.62447,-1.34529 -1.30437,0 -2.56919,0.27694 -3.67585,0.7914 0,0 -5.29644,-5.57902 -8.5375,-12.0285 1.73907,-0.83091 5.09882,-3.20497 5.17785,-3.24454 -1.62059,-1.10789 -3.08302,-2.37405 -4.46642,-3.8776 3.00399,0 8.26086,-2.01795 8.33989,-2.05751 -1.58102,-1.89924 -3.51781,-4.94594 -4.18968,-6.92431 1.93669,-0.55397 3.91304,-0.8309 5.84972,-0.91001 0,-1.66183 -6.36354,-11.63283 -12.41097,-16.30179 -8.73512,-6.76604 -16.56119,-10.99975 -16.56119,-10.99975 l 0.98858,-5.97469 c 1.8182,1.30573 3.83391,2.41362 6.04734,3.24453 0.0809,0.0395 0.15785,0.0395 0.23677,0.079 0.081,-1.78053 0.39563,-3.60064 0.86918,-5.34161 l 3.75488,2.45319 c -0.0405,0.75179 0.081,1.5827 0.4351,2.29491 0.3157,0.75179 0.79026,1.34529 1.3834,1.85967 -0.0405,0.23743 -0.0809,0.47476 -0.0809,0.75179 -0.11838,2.84886 2.09484,5.26247 4.94068,5.38118 0.90864,0.0395 1.73907,-0.15832 2.49006,-0.51437 -1.93668,-0.59347 -3.32009,-2.37405 -3.35965,-4.47112 0.47456,-0.079 0.94811,-0.19782 1.42297,-0.39565 0.23677,-0.11871 0.47456,-0.23743 0.71133,-0.39565 0.82972,1.26616 2.21343,2.01795 3.67586,2.09708 0.0809,0 0.19731,0 0.31569,0.0395 1.30438,0.079 2.5692,0.87051 3.16204,2.1762 0.59295,1.3453 0.3157,2.80929 -0.55348,3.87761 0.27725,-0.079 0.51402,-0.15832 0.75079,-0.27693 3.00399,-1.34529 4.34783,-4.8668 3.00399,-7.87393 -0.4351,-0.91001 -1.02774,-1.66182 -1.73917,-2.25534 0.0405,-0.51436 0,-0.98922 -0.11839,-1.50356 0.23678,-0.15832 0.47456,-0.31654 0.7508,-0.43525 2.37158,-1.06832 5.17786,0 6.24505,2.37405 0.23677,0.55397 0.35618,1.10789 0.39563,1.66182 1.42297,-1.74096 1.85776,-4.23371 0.82972,-6.44948 -1.02764,-2.33448 -3.32009,-3.67978 -5.69167,-3.67978 0.081,-0.35615 0.081,-0.7518 0.081,-1.10789 0.19731,-0.11872 0.39563,-0.23743 0.59294,-0.31654 2.09484,-0.94962 4.54545,-0.23743 5.81026,1.62227 -0.11839,-0.71219 -0.3157,-1.42443 -0.59294,-2.09708 -1.58102,-3.44236 -5.3359,-5.2229 -8.89317,-4.35241 -1.58102,-0.87051 -3.51781,-0.98923 -5.29644,-0.19783 -1.18579,0.55397 -2.1344,1.46399 -2.72725,2.53232 l -3.67585,-2.41362 c 1.50199,-0.67269 4.50588,-2.65102 4.5849,-2.69059 -0.86918,-0.63308 -1.69961,-1.34529 -2.49006,-2.13664 2.37147,-0.8309 5.77069,-3.16539 5.81025,-3.20496 -1.02763,-0.7914 -2.01581,-1.7014 -2.92486,-2.65102 2.52963,-1.30572 5.96831,-5.57901 6.00787,-5.61858 -1.97634,-0.7518 -3.834,-1.78054 -5.61264,-3.04669 l 2.92486,-2.61145 c 0.67187,0.23743 1.42297,0.39565 2.17387,0.31654 0.79025,-0.0395 1.54155,-0.27694 2.17396,-0.63308 0.23677,0.15832 0.4351,0.23743 0.67187,0.35614 2.64822,1.10789 5.69167,-0.11871 6.79843,-2.73015 0.35617,-0.8309 0.47456,-1.66183 0.39564,-2.49275 -1.22526,1.5827 -3.39922,2.25534 -5.33591,1.54313 0.11839,-0.47475 0.15785,-0.94961 0.11839,-1.464 0,-0.27693 -0.0405,-0.55397 -0.11839,-0.7914 1.502,-0.35614 2.68769,-1.34529 3.28063,-2.69059 0.0405,-0.11871 0.0809,-0.19782 0.11839,-0.31653 0.55348,-1.18702 1.73907,-2.09708 3.16204,-2.17621 1.46243,-0.079 2.7667,0.71219 3.47824,1.89924 0,-0.23743 0,-0.51436 0,-0.7914 -0.19731,-3.2841 -3.04355,-5.81642 -6.32408,-5.61858 -0.98858,0.0395 -1.93678,0.35614 -2.72734,0.8309 -0.4351,-0.19782 -0.90865,-0.35614 -1.42287,-0.43525 -0.0809,-0.27694 -0.11839,-0.55397 -0.15785,-0.87051 -0.11839,-2.61145 1.85776,-4.82723 4.42685,-4.9855 0.63241,-0.0395 1.18579,0.0395 1.73917,0.23743 -1.14622,-1.97836 -3.32019,-3.24452 -5.73123,-3.08625 -2.52963,0.15832 -4.62446,1.78053 -5.45449,4.03587 -0.31569,-0.19782 -0.67187,-0.35614 -1.02763,-0.51436 -0.0405,-0.19783 -0.081,-0.43526 -0.081,-0.63308 -0.15785,-2.33448 1.3833,-4.31285 3.55727,-4.8668 -0.67187,-0.15832 -1.42297,-0.23743 -2.17397,-0.15832 -3.75488,0.19783 -6.75877,3.12583 -7.19356,6.72647 -1.34394,1.18702 -2.17396,2.92799 -2.09484,4.86679 0.081,1.3453 0.59295,2.53232 1.38331,3.48194 0,0 -5.7707,5.1042 -5.81016,5.1042 0.55348,-1.66183 1.0671,-5.38117 1.0671,-5.46031 -9.68373,1.5827 -17.8259,-2.41361 -17.8259,-2.41361 1.18569,-0.0395 7.19356,-2.76973 7.58889,-2.96756 0.15785,-0.7518 0.3157,-1.50356 0.39564,-2.25534 2.52963,-1.26616 5.21731,0.35614 8.57696,-1.14746 3.32019,-1.50356 5.41503,-5.26248 4.2688,-9.97099 -0.75079,-2.96757 -3.67586,-5.06464 -6.0869,-5.18334 -2.4506,-0.079 -3.87357,0.59347 -4.22923,0.7914 2.29245,0.43525 4.22923,2.33448 4.22923,5.69771 0,3.08626 -3.71542,4.74809 -5.01979,4.74809 0.39563,-1.22659 0.39563,-5.53944 -0.081,-6.96387 -3.12248,-0.7914 -7.07508,-3.87761 -9.13035,-6.01425 -1.26481,-7.043 -6.87746,-12.5033 -7.62845,-13.17595 -0.1184,1.34529 -0.79026,4.23371 -0.82972,4.39198 -3.71542,-3.6402 -11.34378,-4.23371 -13.63633,-4.19414 1.66014,2.17621 2.96443,4.58982 3.87357,7.16171 C 549.91612,4.58959 542.64343,6.01402 540.43,6.68667 c 2.33201,1.78053 4.34782,3.95675 5.92885,6.40992 -6.83789,0.35615 -12.72729,4.7481 -14.46636,6.29123 3.04346,0.63308 5.96831,1.82011 8.57707,3.5215 -4.94076,2.80929 -8.53749,9.89187 -8.57707,9.971 2.41104,0.39565 6.8379,1.85967 8.77468,3.16539 -2.56919,0.31654 -5.13837,0.23743 -7.66801,-0.19782 1.02774,2.09707 5.61265,8.90267 10.39527,10.84148 -2.60867,0.11872 -5.21742,-0.15832 -7.74705,-0.8309 0.86918,2.17621 4.03163,8.58615 9.99993,12.02851 -1.81809,0.27693 -3.67586,0.31654 -5.53351,0.11871 1.22524,1.97838 6.04744,8.11133 11.69954,10.24797 -1.89722,0.67269 -3.79445,1.14746 -5.77069,1.38487 1.58102,1.70139 6.60071,5.85598 10.6718,6.76602 -1.58102,1.3453 -3.28053,2.53232 -5.13829,3.48194 2.05538,1.02876 7.03551,2.25535 7.19366,2.29491 l -0.47253,2.8886 c -2.8853,1.42443 -4.94067,3.24453 -7.03551,6.40993 -1.62049,2.37405 -5.92886,3.56107 -8.57696,2.88842 -3.004,-0.75179 -3.28063,-3.20496 -2.64822,-5.42074 0.47454,-2.21577 1.93668,-6.29122 3.47824,-9.49618 2.25288,-4.7481 1.18569,-9.89187 -0.90967,-12.74073 -3.32008,-4.51068 -5.69166,-4.74809 -9.99992,-4.82722 -5.21731,-0.11872 -8.93273,-4.90637 -7.11453,-9.971 0.9481,-2.69059 1.14622,-6.05383 -0.51402,-9.65446 -0.94811,-2.09708 -3.16204,-5.61858 -7.62846,-5.53944 -4.46642,0.11872 -7.90509,3.79848 -7.90509,7.39911 0,3.44237 2.60865,6.29122 5.92884,6.6869 -0.6324,-0.8309 -0.98858,-1.85967 -0.98858,-3.00712 -0.0405,-0.83091 0.27624,-3.67978 2.5692,-3.56108 2.29245,0.11872 3.35965,2.88842 1.54145,6.92431 -1.97625,4.98549 0,8.78397 1.38341,10.64364 0,0 1.18579,1.7014 4.07108,4.03588 -1.46243,1.42443 -3.35965,4.11502 -1.46243,8.23003 2.01581,4.31285 0.19731,6.72646 -1.58102,6.72646 -1.73907,0 -2.49006,-1.62226 -2.56909,-3.56106 -0.0405,-1.10789 0.39564,-2.17621 1.02764,-2.96756 -3.35965,0.35614 -5.92885,3.20496 -5.92885,6.64733 0,3.95674 3.87347,7.39911 7.86553,7.39911 3.59683,0 6.20559,-2.29491 7.66802,-5.53944 1.89722,-4.27328 0.82972,-7.04301 0,-10.12927 -0.82972,-3.0467 1.50189,-4.35242 4.34773,-3.79847 2.68778,0.51436 4.50598,4.07544 3.12257,7.20127 -0.75079,1.74097 -2.84583,6.13296 -3.35965,7.75522 -1.8182,5.46031 -2.17396,11.35586 0.63241,14.24428"
             inkscape:connector-curvature="0" />
          <flowRoot
             transform="matrix(3.0982551,0,-0.54441213,3.0982551,-806.94904,339.38672)"
             style="font-style:normal;font-variant:normal;font-weight:bold;font-stretch:normal;font-size:74.66666412px;line-height:25px;font-family:Sarala;-inkscape-font-specification:'Sarala, Bold';font-variant-ligatures:normal;font-variant-caps:normal;font-variant-numeric:normal;font-feature-settings:normal;text-align:start;letter-spacing:0px;word-spacing:0px;writing-mode:lr-tb;text-anchor:start;fill:#0c87d1;fill-opacity:1;stroke:none;stroke-width:2.1251018px;stroke-linecap:butt;stroke-linejoin:miter;stroke-opacity:1"
             id="flowRoot824"
             xml:space="preserve"><flowRegion
               style="font-style:normal;font-variant:normal;font-weight:bold;font-stretch:normal;font-size:74.66666412px;font-family:Sarala;-inkscape-font-specification:'Sarala, Bold';font-variant-ligatures:normal;font-variant-caps:normal;font-variant-numeric:normal;font-feature-settings:normal;text-align:start;writing-mode:lr-tb;text-anchor:start;fill:#0c87d1;fill-opacity:1;stroke-width:2.1251018px"
               id="flowRegion826"><rect
                 style="font-style:normal;font-variant:normal;font-weight:bold;font-stretch:normal;font-size:74.66666412px;font-family:Sarala;-inkscape-font-specification:'Sarala, Bold';font-variant-ligatures:normal;font-variant-caps:normal;font-variant-numeric:normal;font-feature-settings:normal;text-align:start;writing-mode:lr-tb;text-anchor:start;fill:#0c87d1;fill-opacity:1;stroke-width:2.1251018px"
                 y="-83.936989"
                 x="63.905628"
                 height="200.31956"
                 width="462.08685"
                 id="rect828" /></flowRegion><flowPara
               style="fill:#0c87d1;fill-opacity:1;stroke-width:2.1251018px"
               id="flowPara832">FASCHIST</flowPara></flowRoot>        </g>
        <flowRoot
           xml:space="preserve"
           id="flowRoot1426"
           style="font-style:normal;font-variant:normal;font-weight:300;font-stretch:normal;font-size:61.3263588px;line-height:25px;font-family:Overpass;-inkscape-font-specification:'Overpass, Light';font-variant-ligatures:normal;font-variant-caps:normal;font-variant-numeric:normal;font-feature-settings:normal;text-align:start;letter-spacing:0px;word-spacing:0px;writing-mode:lr-tb;text-anchor:start;fill:#7fb8e6;fill-opacity:1;stroke:none;stroke-width:1.87387681px;stroke-linecap:butt;stroke-linejoin:miter;stroke-opacity:1"
           transform="matrix(0.1411957,0,0,0.1411957,73.529517,264.36384)"><flowRegion
             id="flowRegion1428"
             style="font-style:normal;font-variant:normal;font-weight:300;font-stretch:normal;font-size:61.3263588px;font-family:Overpass;-inkscape-font-specification:'Overpass, Light';font-variant-ligatures:normal;font-variant-caps:normal;font-variant-numeric:normal;font-feature-settings:normal;text-align:start;writing-mode:lr-tb;text-anchor:start;fill:#7fb8e6;fill-opacity:1;stroke-width:1.87387681px"><rect
               id="rect1430"
               width="565.71429"
               height="422.85715"
               x="-497.14285"
               y="-87.480316"
               style="font-style:normal;font-variant:normal;font-weight:300;font-stretch:normal;font-size:61.3263588px;font-family:Overpass;-inkscape-font-specification:'Overpass, Light';font-variant-ligatures:normal;font-variant-caps:normal;font-variant-numeric:normal;font-feature-settings:normal;text-align:start;writing-mode:lr-tb;text-anchor:start;fill:#7fb8e6;fill-opacity:1;stroke-width:1.87387681px" /></flowRegion><flowPara
             id="flowPara1434"
             style="font-style:normal;font-variant:normal;font-weight:300;font-stretch:normal;font-size:61.3263588px;font-family:Overpass;-inkscape-font-specification:'Overpass, Light';font-variant-ligatures:normal;font-variant-caps:normal;font-variant-numeric:normal;font-feature-settings:normal;text-align:start;writing-mode:lr-tb;text-anchor:start;fill:#7fb8e6;fill-opacity:1;stroke-width:1.87387681px">Ein</flowPara></flowRoot>      </g>
      <flowRoot
         transform="matrix(0.10147287,0,0,0.10147287,3.9278464,227.71022)"
         style="font-style:normal;font-variant:normal;font-weight:300;font-stretch:normal;font-size:85.33333588px;line-height:80px;font-family:Overpass;-inkscape-font-specification:'Overpass, Light';font-variant-ligatures:normal;font-variant-caps:normal;font-variant-numeric:normal;font-feature-settings:normal;text-align:start;letter-spacing:0px;word-spacing:0px;writing-mode:lr-tb;text-anchor:start;fill:#7fb8e6;fill-opacity:1;stroke:none;stroke-width:2.60742927px;stroke-linecap:butt;stroke-linejoin:miter;stroke-opacity:1"
         id="flowRoot1436"
         xml:space="preserve"><flowRegion
           style="font-style:normal;font-variant:normal;font-weight:300;font-stretch:normal;font-size:85.33333588px;line-height:80px;font-family:Overpass;-inkscape-font-specification:'Overpass, Light';font-variant-ligatures:normal;font-variant-caps:normal;font-variant-numeric:normal;font-feature-settings:normal;text-align:start;writing-mode:lr-tb;text-anchor:start;fill:#7fb8e6;fill-opacity:1;stroke-width:2.60742927px"
           id="flowRegion1438"><rect
             style="font-style:normal;font-variant:normal;font-weight:300;font-stretch:normal;font-size:85.33333588px;line-height:80px;font-family:Overpass;-inkscape-font-specification:'Overpass, Light';font-variant-ligatures:normal;font-variant-caps:normal;font-variant-numeric:normal;font-feature-settings:normal;text-align:start;writing-mode:lr-tb;text-anchor:start;fill:#7fb8e6;fill-opacity:1;stroke-width:2.60742927px"
             y="324.49918"
             x="72.73098"
             height="348.50266"
             width="644.47736"
             id="rect1440" /></flowRegion><flowPara
           style="fill:#7fb8e6;fill-opacity:1;stroke-width:2.60742927px"
           id="flowPara2186">im Parlament</flowPara><flowPara
           style="fill:#7fb8e6;fill-opacity:1;stroke-width:2.60742927px"
           id="flowPara2188" /></flowRoot>      <g
         transform="translate(0,1.8879953)"
         id="g2364">
        <path
           inkscape:connector-curvature="0"
           d="m 18.668265,279.69073 h 46.473851 v 11.56435 H 18.668265 Z"
           id="path2438"
           style="fill:#009ee0;fill-opacity:1;fill-rule:nonzero;stroke:none;stroke-width:0.28222221" />
        <path
           inkscape:connector-curvature="0"
           d="m 43.081762,290.37858 c 0.794682,1.74011 3.654962,2.13853 7.806899,0.8575 2.007365,-0.6194 6.307647,-2.24729 8.790478,-3.98799 3.16836,-2.22116 4.586853,-3.41957 4.969913,-3.9259 l 1.635357,2.051 1.129201,-6.5554 -6.740437,-0.5786 1.608067,2.08485 c 0,0 -2.182827,2.19053 -5.728976,3.74207 -2.691958,1.17781 -6.999805,2.59448 -8.189959,1.99391 -2.00337,-1.01078 0.809475,-3.71357 0.809475,-3.71357 -3.354705,0.76453 -5.813223,2.32854 -6.363244,5.44885 -0.135423,0.76826 -0.09955,1.76708 0.273226,2.58328"
           id="path2440"
           style="fill:#e2001a;fill-opacity:1;fill-rule:nonzero;stroke:none;stroke-width:0.28222221" />
        <path
           inkscape:connector-curvature="0"
           d="m 43.081762,290.37858 c 0.794682,1.74011 3.654962,2.13853 7.806899,0.8575 2.007365,-0.6194 6.307647,-2.24729 8.790478,-3.98799 3.16836,-2.22116 4.586853,-3.41957 4.969913,-3.9259 l 1.635357,2.051 1.129201,-6.5554 -6.740437,-0.5786 1.608067,2.08485 c 0,0 -2.182827,2.19053 -5.728976,3.74207 -2.691958,1.17781 -6.999805,2.59448 -8.189959,1.99391 -2.00337,-1.01078 0.809475,-3.71357 0.809475,-3.71357 -3.354705,0.76453 -5.813223,2.32854 -6.363244,5.44885 -0.135423,0.76826 -0.09955,1.76708 0.273226,2.58328 z"
           id="path2442"
           style="fill:none;stroke:#ed1c24;stroke-width:0.19207719;stroke-linecap:butt;stroke-linejoin:miter;stroke-miterlimit:10;stroke-dasharray:none;stroke-opacity:1" />
        <flowRoot
           xml:space="preserve"
           id="flowRoot2133"
           style="font-style:normal;font-variant:normal;font-weight:bold;font-stretch:normal;font-size:85.33333588px;line-height:25px;font-family:Futura;-inkscape-font-specification:'Futura, Bold';font-variant-ligatures:normal;font-variant-caps:normal;font-variant-numeric:normal;font-feature-settings:normal;text-align:start;letter-spacing:0px;word-spacing:0px;writing-mode:lr-tb;text-anchor:start;fill:#ffffff;fill-opacity:1;stroke:none;stroke-width:2.02201509px;stroke-linecap:butt;stroke-linejoin:miter;stroke-opacity:1"
           transform="matrix(0.13099427,0,0,0.13070847,-2.0991898,282.7452)"><flowRegion
             id="flowRegion2135"
             style="font-style:normal;font-variant:normal;font-weight:bold;font-stretch:normal;font-size:85.33333588px;font-family:Futura;-inkscape-font-specification:'Futura, Bold';font-variant-ligatures:normal;font-variant-caps:normal;font-variant-numeric:normal;font-feature-settings:normal;text-align:start;writing-mode:lr-tb;text-anchor:start;fill:#ffffff;fill-opacity:1;stroke-width:2.02201509px"><rect
               id="rect2137"
               width="456.34384"
               height="360.44458"
               x="160"
               y="22.917656"
               style="font-style:normal;font-variant:normal;font-weight:bold;font-stretch:normal;font-size:85.33333588px;font-family:Futura;-inkscape-font-specification:'Futura, Bold';font-variant-ligatures:normal;font-variant-caps:normal;font-variant-numeric:normal;font-feature-settings:normal;text-align:start;writing-mode:lr-tb;text-anchor:start;fill:#ffffff;fill-opacity:1;stroke-width:2.02201509px" /></flowRegion><flowPara
             id="flowPara2139"
             style="stroke-width:2.02201509px">Faschist</flowPara></flowRoot>      </g>
      <flowRoot
         transform="matrix(0.1411957,0,0,0.1411957,76.192148,300.40313)"
         style="font-style:normal;font-variant:normal;font-weight:300;font-stretch:normal;font-size:61.325737px;line-height:25px;font-family:Overpass;-inkscape-font-specification:'Overpass, Light';font-variant-ligatures:normal;font-variant-caps:normal;font-variant-numeric:normal;font-feature-settings:normal;text-align:start;letter-spacing:0px;word-spacing:0px;writing-mode:lr-tb;text-anchor:start;fill:#7fb8e6;fill-opacity:1;stroke:none;stroke-width:1.87387681px;stroke-linecap:butt;stroke-linejoin:miter;stroke-opacity:1"
         id="flowRoot1426-3"
         xml:space="preserve"><flowRegion
           style="font-style:normal;font-variant:normal;font-weight:300;font-stretch:normal;font-size:61.325737px;font-family:Overpass;-inkscape-font-specification:'Overpass, Light';font-variant-ligatures:normal;font-variant-caps:normal;font-variant-numeric:normal;font-feature-settings:normal;text-align:start;writing-mode:lr-tb;text-anchor:start;fill:#7fb8e6;fill-opacity:1;stroke-width:1.87387681px"
           id="flowRegion1428-6"><rect
             style="font-style:normal;font-variant:normal;font-weight:300;font-stretch:normal;font-size:61.325737px;font-family:Overpass;-inkscape-font-specification:'Overpass, Light';font-variant-ligatures:normal;font-variant-caps:normal;font-variant-numeric:normal;font-feature-settings:normal;text-align:start;writing-mode:lr-tb;text-anchor:start;fill:#7fb8e6;fill-opacity:1;stroke-width:1.87387681px"
             y="-87.480316"
             x="-497.14285"
             height="422.85715"
             width="565.71429"
             id="rect1430-2" /></flowRegion><flowPara
           id="flowPara2243">ein</flowPara></flowRoot>      <flowRoot
         transform="matrix(0.10147287,0,0,0.10147287,1.3247462,240.32175)"
         style="font-style:normal;font-variant:normal;font-weight:300;font-stretch:normal;font-size:85.33246613px;line-height:80px;font-family:Overpass;-inkscape-font-specification:'Overpass, Light';font-variant-ligatures:normal;font-variant-caps:normal;font-variant-numeric:normal;font-feature-settings:normal;text-align:start;letter-spacing:0px;word-spacing:0px;writing-mode:lr-tb;text-anchor:start;fill:#7fb8e6;fill-opacity:1;stroke:none;stroke-width:2.60742927px;stroke-linecap:butt;stroke-linejoin:miter;stroke-opacity:1"
         id="flowRoot1436-0"
         xml:space="preserve"><flowRegion
           style="font-style:normal;font-variant:normal;font-weight:300;font-stretch:normal;font-size:85.33246613px;line-height:80px;font-family:Overpass;-inkscape-font-specification:'Overpass, Light';font-variant-ligatures:normal;font-variant-caps:normal;font-variant-numeric:normal;font-feature-settings:normal;text-align:start;writing-mode:lr-tb;text-anchor:start;fill:#7fb8e6;fill-opacity:1;stroke-width:2.60742927px"
           id="flowRegion1438-6"><rect
             style="font-style:normal;font-variant:normal;font-weight:300;font-stretch:normal;font-size:85.33246613px;line-height:80px;font-family:Overpass;-inkscape-font-specification:'Overpass, Light';font-variant-ligatures:normal;font-variant-caps:normal;font-variant-numeric:normal;font-feature-settings:normal;text-align:start;writing-mode:lr-tb;text-anchor:start;fill:#7fb8e6;fill-opacity:1;stroke-width:2.60742927px"
             y="324.49918"
             x="72.73098"
             height="348.50266"
             width="644.47736"
             id="rect1440-8" /></flowRegion><flowPara
           id="flowPara2217">ist immer noch</flowPara></flowRoot>    </g>
  </g>
</svg>
