<?xml version="1.0" encoding="UTF-8" standalone="no"?>
<!-- Created with Inkscape (http://www.inkscape.org/) -->

<svg
   xmlns:dc="http://purl.org/dc/elements/1.1/"
   xmlns:cc="http://creativecommons.org/ns#"
   xmlns:rdf="http://www.w3.org/1999/02/22-rdf-syntax-ns#"
   xmlns:svg="http://www.w3.org/2000/svg"
   xmlns="http://www.w3.org/2000/svg"
   xmlns:sodipodi="http://sodipodi.sourceforge.net/DTD/sodipodi-0.dtd"
   xmlns:inkscape="http://www.inkscape.org/namespaces/inkscape"
   width="950"
   height="604.72443"
   viewBox="0 0 890.62501 566.9291"
   id="svg2"
   version="1.1"
   inkscape:version="0.92.3 (2405546, 2018-03-11)"
   sodipodi:docname="alt_alt_alternative.svg"
   inkscape:export-filename="/home/towa/source/towa/stickers/faschist/alt_alt_alternative.png"
   inkscape:export-xdpi="100"
   inkscape:export-ydpi="100">
  <defs
     id="defs4" />
  <sodipodi:namedview
     id="base"
     pagecolor="#ffffff"
     bordercolor="#666666"
     borderopacity="1.0"
     inkscape:pageopacity="0.0"
     inkscape:pageshadow="2"
     inkscape:zoom="0.98994949"
     inkscape:cx="460.09572"
     inkscape:cy="425.12001"
     inkscape:document-units="px"
     inkscape:current-layer="layer1"
     showgrid="false"
     fit-margin-top="0"
     fit-margin-left="0"
     fit-margin-right="0"
     fit-margin-bottom="0"
     inkscape:window-width="1920"
     inkscape:window-height="1080"
     inkscape:window-x="0"
     inkscape:window-y="0"
     inkscape:window-maximized="0"
     showguides="false"
     units="px" />
  <metadata
     id="metadata7">
    <rdf:RDF>
      <cc:Work
         rdf:about="">
        <dc:format>image/svg+xml</dc:format>
        <dc:type
           rdf:resource="http://purl.org/dc/dcmitype/StillImage" />
        <dc:title />
      </cc:Work>
    </rdf:RDF>
  </metadata>
  <g
     inkscape:groupmode="layer"
     id="layer2"
     inkscape:label="Background"
     style="display:inline"
     sodipodi:insensitive="true">
    <path
       transform="translate(517.17175,-552.15791)"
       inkscape:connector-curvature="0"
       d="M -517.17175,724.05625 H 369.74664 V 1095.1975 H -517.17175 Z"
       id="path2438"
       style="fill:#000b0f;fill-opacity:1;fill-rule:nonzero;stroke:none" />
  </g>
  <g
     inkscape:label="Logo"
     inkscape:groupmode="layer"
     id="layer1"
     transform="translate(517.17175,-552.15791)"
     style="display:inline"
     sodipodi:insensitive="true">
    <path
       style="fill:#e2001a;fill-opacity:1;fill-rule:evenodd;stroke:none;stroke-width:0.9375px;stroke-linecap:butt;stroke-linejoin:miter;stroke-opacity:1"
       d="m -265.41789,976.46019 c 0.83434,-5.6906 8.15213,-15.2084 8.15213,-15.2084 L -7.2448644,786.13369 c 0,0 10.9739198,-6.5275 17.0801798,-8.06 10.6498506,-2.6727 21.9370206,-2.3296 32.8979306,-1.6741 7.26244,0.4339 14.23522,3.6705 21.51095,3.699 7.95011,0.031 23.536137,-3.857 23.536137,-3.857 l 50.990487,-36.939 57.74014,-30.89068 c 0,0 2.63702,-1.2651 3.39659,-2.43241 1.41004,-2.16722 0.75979,-5.14127 1.57353,-7.59558 0.55623,-1.67814 0.74116,-3.86961 2.23956,-4.80818 1.79691,-1.12523 4.40573,-0.72251 6.35967,0.10169 1.08742,0.45748 1.33847,2.62 2.51142,2.49374 2.88875,-0.3115 2.60518,-5.34153 4.73344,-7.31944 1.59532,-1.48335 3.60056,-2.69087 5.73261,-3.13818 2.21767,-0.46529 4.63623,-0.16537 6.77161,0.59187 1.46528,0.52069 2.55856,1.76935 3.86586,2.61202 1.41924,0.91558 2.6586,2.97155 4.31713,2.65176 2.26391,-0.43682 3.64013,-3.29901 4.1241,-5.55322 0.53176,-2.47574 0.0371,-5.51082 -1.62609,-7.42019 -2.26215,-2.59763 -6.28147,-3.11049 -9.69471,-3.57641 -7.1352,-0.97613 -14.37768,0.94436 -21.5331,1.75761 -19.58564,2.22511 -38.92982,6.31219 -58.51575,8.53369 -8.06894,0.91495 -16.16635,1.67704 -24.28145,1.97196 -11.50802,0.41836 -23.03445,-0.60282 -34.545867,-0.28913 -13.13298,0.35797 -26.225427,1.62792 -39.336187,2.47638 -12.81277,0.82921 -25.6059,2.00653 -38.433421,2.55522 -11.3827696,0.48705 -22.9009594,2.30787 -34.173269,0.65304 -3.37197,-0.49502 -6.73228,-1.51229 -9.73459,-3.12487 -1.91968,-1.03042 -4.20632,-2.09901 -5.10166,-4.08489 -1.61499,-3.58298 0.78814,-7.85248 0.57441,-11.777 -0.17069,-3.10924 -0.0682,-6.44439 -1.46843,-9.22569 -0.62629,-1.24382 -1.73667,-2.25609 -2.92352,-2.98501 -2.37327,-1.45754 -5.25482,-1.88669 -7.96799,-2.51564 -2.35891,-0.5465 -5.24496,0.36876 -7.18348,-1.08236 -4.60484,-3.44702 -5.72617,-10.10762 -7.27548,-15.64692 -1.03744,-3.70892 -1.60648,-7.6469 -1.2714,-11.48333 0.33514,-3.83628 1.73672,-7.54458 3.24346,-11.08845 1.69267,-3.98069 4.26091,-7.52909 6.44266,-11.26414 2.62408,-4.49183 5.23829,-8.99085 7.99456,-13.40289 2.54218,-4.06939 4.954,-8.24283 7.87584,-12.0486 1.37997,-1.79705 2.41091,-4.27671 4.53651,-5.06211 25.2451296,-9.33083 53.37094,7.00716 80.04,10.63269 35.219567,4.78815 70.522734,9.03716 105.614164,14.68691 20.67134,3.32811 41.49933,6.13101 61.78569,11.31233 10.82712,2.76503 21.41392,6.47412 31.83267,10.51441 11.17932,4.33537 22.83735,8.07246 32.8322,14.69599 7.98453,5.29068 15.70374,11.61929 21.0336,19.57785 4.28577,6.39996 6.92711,14.02448 8.11699,21.63383 1.21449,7.76644 1.0091,15.99504 -1.14834,23.55385 -2.13407,7.47715 -6.80845,14.06579 -11.33389,20.38908 -4.07912,5.7 -8.3397,11.6057 -14.09975,15.5989 -2.22061,1.5393 -6.07368,0.7089 -7.53847,2.9806 -1.81814,2.8179 1.72692,6.9335 0.48656,10.0496 -1.1876,2.9839 -4.13147,5.1331 -6.95121,6.6709 -1.67641,0.917 -3.86909,0.4688 -5.57501,1.3324 -0.95443,0.4792 -1.96186,1.1115 -2.45437,2.06 -1.25475,2.4124 0.63684,5.7639 -0.70999,8.1257 -0.69,1.2102 -2.05285,2.0655 -3.39685,2.4326 -1.74839,0.4784 -3.61148,-0.3158 -5.4171,-0.4733 -2.70873,-0.2366 -8.12584,-0.71 -8.12584,-0.71 l -69.74472,58.9543 -30.98256,21.4015 c 0,0 -6.9303,7.7866 -9.2701,12.3816 -2.59537,5.0949 -3.624,10.8556 -5.07081,16.3875 -2.15703,8.2473 -2.73203,16.8975 -5.36888,25.0044 -1.72881,5.3148 -3.61989,10.7295 -6.79791,15.3268 -5.30111,7.6686 -12.72742,13.6986 -19.911387,19.6396 -35.636377,29.4702 -76.218277,52.38781 -114.230787,78.72151 -43.99008,30.474 -82.266726,71.3579 -131.745096,91.7468 -4.33652,1.786 -9.1718,2.5975 -13.8583,2.4279 -3.82205,-0.1377 -7.97099,-0.6336 -11.12841,-2.7916 -41.58132,-28.4182 -67.45065,-76.9794 -87.49114,-123.18541 -1.69256,-3.9021 -3.1636,-8.2952 -2.54631,-12.5043 z"
       id="path2238"
       inkscape:connector-curvature="0"
       sodipodi:nodetypes="cccaaacccaaaaaaaaaaaaaaaaaaaaaaaaaaaaaaaaaaaaaaaaaaaaaaaaaaaacccaaaaaaaaaaac" />
  </g>
  <g
     inkscape:groupmode="layer"
     id="layer3"
     inkscape:label="Text"
     style="display:inline"
     sodipodi:insensitive="true">
    <path
       transform="translate(517.17175,-552.15791)"
       inkscape:connector-curvature="0"
       d="m 99.03622,772.46514 v 22.34781 h -8.51825 v 21.48481 h 8.39574 v 52.10309 h 26.05293 v -52.22832 h 15.06278 v -21.6046 h -15.06278 v -22.22529 l -25.93042,0.1225"
       id="path2446"
       style="fill:#ffffff;fill-opacity:1;fill-rule:nonzero;stroke:none" />
    <path
       transform="translate(517.17175,-552.15791)"
       inkscape:connector-curvature="0"
       d="m -299.80496,772.50053 v 22.34781 h -8.51824 v 21.48209 h 8.39576 v 52.10309 h 26.05292 v -52.22559 h 15.06277 V 794.6006 h -15.06277 v -22.22257 l -25.93044,0.1225"
       id="path2448"
       style="fill:#ffffff;fill-opacity:1;fill-rule:nonzero;stroke:none" />
    <path
       transform="translate(517.17175,-552.15791)"
       inkscape:connector-curvature="0"
       d="m 6.34234,1014.2918 v 12.2887 H 1.65717 v 11.8178 h 4.61711 v 28.6555 h 14.32775 v -28.7208 h 8.28685 v -11.8858 h -8.28685 v -12.2234 l -14.25969,0.068"
       id="path2450"
       style="fill:#ffffff;fill-opacity:1;fill-rule:nonzero;stroke:none" />
    <path
       transform="translate(517.17175,-552.15791)"
       inkscape:connector-curvature="0"
       d="m 149.04314,794.81567 -0.12251,73.46272 h 25.92498 v -73.58523 l -25.80247,0.12251"
       id="path2456"
       style="fill:#ffffff;fill-opacity:1;fill-rule:nonzero;stroke:none" />
    <path
       transform="translate(517.17175,-552.15791)"
       inkscape:connector-curvature="0"
       d="m 174.84833,766.04856 c 0,7.22512 -5.85851,13.08635 -13.08908,13.08635 -7.22785,0 -13.08635,-5.86123 -13.08635,-13.08635 0,-7.23058 5.8585,-13.08908 13.08635,-13.08908 7.23057,0 13.08908,5.8585 13.08908,13.08908"
       id="path2458"
       style="fill:#ffffff;fill-opacity:1;fill-rule:nonzero;stroke:none" />
    <path
       transform="translate(517.17175,-552.15791)"
       inkscape:connector-curvature="0"
       d="m 174.84833,766.04856 c 0,7.22512 -5.85851,13.08635 -13.08908,13.08635 -7.22785,0 -13.08635,-5.86123 -13.08635,-13.08635 0,-7.23058 5.8585,-13.08908 13.08635,-13.08908 7.23057,0 13.08908,5.8585 13.08908,13.08908 z"
       id="path2460"
       style="fill:none;stroke:#ffffff;stroke-width:2.72235394;stroke-linecap:butt;stroke-linejoin:miter;stroke-miterlimit:10;stroke-dasharray:none;stroke-opacity:1" />
    <path
       transform="translate(517.17175,-552.15791)"
       inkscape:connector-curvature="0"
       d="m 181.63788,794.69316 38.52403,73.58791 h 17.15899 l 38.2763,-73.95815 h -29.51032 l -17.16171,37.5331 -17.9022,-37.40787 -29.38509,0.24501"
       id="path2462"
       style="fill:#ffffff;fill-opacity:1;fill-rule:nonzero;stroke:none" />
    <path
       transform="translate(517.17175,-552.15791)"
       inkscape:connector-curvature="0"
       d="m -345.6984,748.88956 h 26.42317 V 868.1586 h -26.42317 z"
       id="path2464"
       style="fill:#ffffff;fill-opacity:1;fill-rule:nonzero;stroke:none" />
    <path
       transform="translate(517.17175,-552.15791)"
       inkscape:connector-curvature="0"
       d="m 164.33415,1001.4097 h 14.53737 v 65.6005 h -14.53737 z"
       id="path2466"
       style="fill:#ffffff;fill-opacity:1;fill-rule:nonzero;stroke:none" />
    <path
       transform="translate(517.17175,-552.15791)"
       inkscape:connector-curvature="0"
       d="m -443.023,827.86232 11.71701,-34.57934 11.374,34.57934 z m 27.22354,-68.12418 -30.78438,0.22868 -41.93241,108.21629 h 30.21268 l 7.46742,-18.61006 h 38.59753 l 7.23874,18.72439 h 30.32702 l -41.1266,-108.5593"
       id="path2468"
       style="fill:#ffffff;fill-opacity:1;fill-rule:nonzero;stroke:none" />
    <path
       transform="translate(517.17175,-552.15791)"
       inkscape:connector-curvature="0"
       d="m -162.19814,794.57066 0.11434,73.61245 h 26.07743 c 0,0 -0.22868,-14.02013 -0.11434,-27.8633 -0.91743,-34.85974 29.40959,-21.64815 29.40959,-21.64815 v -25.27434 c -24.23984,-1.37751 -29.40959,13.61177 -29.40959,13.61177 v -12.43843 h -26.07743"
       id="path2470"
       style="fill:#ffffff;fill-opacity:1;fill-rule:nonzero;stroke:none" />
    <path
       transform="translate(517.17175,-552.15791)"
       inkscape:connector-curvature="0"
       d="m 303.632,820.62358 c 0,0 1.95193,-11.60267 15.27785,-11.60267 13.32592,0 14.82049,11.60267 14.82049,11.60267 z m 14.70343,-28.60377 c -42.86618,0 -41.35527,38.82893 -41.35527,38.82893 -0.11434,8.61353 2.29766,40.20645 41.81535,40.09207 34.81619,-0.10069 38.54037,-25.15995 38.54037,-25.15995 h -25.55746 c 0,0 -2.96465,6.89023 -13.21159,6.66427 -10.3395,-0.2314 -15.50925,-5.62978 -15.50925,-16.65804 l 55.25834,-0.11433 c 0,0 2.86936,-43.65295 -39.98049,-43.65295"
       id="path2474"
       style="fill:#ffffff;fill-opacity:1;fill-rule:nonzero;stroke:none" />
    <path
       transform="translate(517.17175,-552.15791)"
       inkscape:connector-curvature="0"
       d="m -82.90458,1040.6715 c 0,0 1.0726,-6.3812 8.40118,-6.3812 7.3313,0 8.15345,6.3812 8.15345,6.3812 z m 8.08539,-15.7325 c -23.57559,0 -22.74527,21.3541 -22.74527,21.3541 -0.0626,4.7396 1.26589,22.1137 22.99845,22.0511 19.14903,-0.054 21.19897,-13.8377 21.19897,-13.8377 h -14.05824 c 0,0 -1.63069,3.7922 -7.26596,3.667 -5.687,-0.128 -8.4393,-3.2941 -8.4393,-9.3622 l 30.2998,0.1334 c 0,0 1.57896,-24.0057 -21.98845,-24.0057"
       id="path2476"
       style="fill:#ffffff;fill-opacity:1;fill-rule:nonzero;stroke:none" />
    <path
       transform="translate(517.17175,-552.15791)"
       inkscape:connector-curvature="0"
       d="m -229.04007,820.62903 c 0,0 1.9519,-11.60267 15.27783,-11.60267 13.32592,0 14.82049,11.60267 14.82049,11.60267 z m 14.70341,-28.60377 c -42.86616,0 -41.35526,38.82893 -41.35526,38.82893 -0.11433,8.61625 2.29765,40.20644 41.81534,40.0921 34.81618,-0.10072 38.54036,-25.15727 38.54036,-25.15727 h -25.55746 c 0,0 -2.96464,6.89028 -13.21158,6.66156 -10.3395,-0.22868 -15.50925,-5.62979 -15.50925,-16.65532 l 55.25834,-0.11706 c 0,0 2.86936,-43.65294 -39.98049,-43.65294"
       id="path2478"
       style="fill:#ffffff;fill-opacity:1;fill-rule:nonzero;stroke:none" />
    <path
       transform="translate(517.17175,-552.15791)"
       inkscape:connector-curvature="0"
       d="m -96.74458,794.6496 v 73.58795 h 26.00392 v -40.57124 c 0,0 0.32396,-15.21251 13.38037,-14.99744 13.05369,0.21506 12.08453,14.99744 12.08453,14.99744 v 40.68014 l 26.21899,-0.0681 c 0,0 0,-34.88424 0,-40.30445 0,-5.42021 1.93831,-35.74179 -26.11282,-35.74179 -19.43216,0 -25.4649,12.19343 -25.4649,12.19343 l -0.10617,-9.77598 h -26.00392"
       id="path2480"
       style="fill:#ffffff;fill-opacity:1;fill-rule:nonzero;stroke:none" />
    <path
       transform="translate(517.17175,-552.15791)"
       inkscape:connector-curvature="0"
       d="m 241.88857,1026.507 v 40.4733 h 14.2978 v -22.3124 c 0,0 0.1824,-8.3685 7.36124,-8.2515 7.18157,0.1171 6.64799,8.2515 6.64799,8.2515 v 22.3723 l 14.42031,-0.038 c 0,0 0,-19.1844 0,-22.1681 0,-2.9783 1.06444,-19.6554 -14.36314,-19.6554 -10.68796,0 -14.00379,6.7024 -14.00379,6.7024 l -0.0626,-5.3739 h -14.2978"
       id="path2482"
       style="fill:#ffffff;fill-opacity:1;fill-rule:nonzero;stroke:none" />
    <path
       transform="translate(517.17175,-552.15791)"
       inkscape:connector-curvature="0"
       d="m 112.49237,1001.9922 v 64.9745 h 14.2978 v -22.3124 c 0,0 0.17967,-8.3686 7.36124,-8.2488 7.18157,0.1171 6.64527,8.2488 6.64527,8.2488 v 22.3723 l 14.42031,-0.038 c 0,0 0,-19.1845 0,-22.1682 0,-2.9782 1.06716,-19.6554 -14.36042,-19.6554 -10.68796,0 -14.00651,6.7052 -14.00651,6.7052 l -0.0599,-29.8778 h -14.2978"
       id="path2484"
       style="fill:#ffffff;fill-opacity:1;fill-rule:nonzero;stroke:none" />
    <path
       transform="translate(517.17175,-552.15791)"
       inkscape:connector-curvature="0"
       d="m 36.94749,849.0259 c -9.59085,0 -17.36589,-7.77504 -17.36589,-17.36317 0,-9.58813 7.77504,-17.36317 17.36589,-17.36317 9.58813,0 17.36318,7.77504 17.36318,17.36317 0,9.58813 -7.77505,17.36317 -17.36318,17.36317 z m 16.0755,-54.58864 v 7.76688 c 0,0 -6.58265,-9.92571 -22.55198,-9.92571 -19.63634,-0.21506 -37.44053,14.13447 -37.54942,39.70826 1.07805,31.50576 26.43405,39.06029 37.0104,38.95139 15.96932,0.10618 23.091,-10.79136 23.091,-10.79136 v 8.30862 H 79.35088 V 794.43726 H 53.02299"
       id="path2486"
       style="fill:#ffffff;fill-opacity:1;fill-rule:nonzero;stroke:none" />
    <path
       transform="translate(517.17175,-552.15791)"
       inkscape:connector-curvature="0"
       d="m 209.19582,1056.4203 c -5.27048,0 -9.5473,-4.2768 -9.5473,-9.5528 0,-5.2704 4.27682,-9.5445 9.5473,-9.5445 5.27592,0 9.55274,4.274 9.55274,9.5445 0,5.276 -4.27682,9.5528 -9.55274,9.5528 z m 8.84221,-30.0249 v 4.2714 c 0,0 -3.61801,-5.461 -12.40033,-5.461 -10.8023,-0.1171 -20.59188,7.7777 -20.6545,21.8414 0.5962,17.3278 14.54282,21.4821 20.35777,21.4222 8.78231,0.057 12.69706,-5.9347 12.69706,-5.9347 v 4.5708 h 14.48292 v -40.7101 h -14.48292"
       id="path2488"
       style="fill:#ffffff;fill-opacity:1;fill-rule:nonzero;stroke:none" />
    <path
       transform="translate(517.17175,-552.15791)"
       inkscape:connector-curvature="0"
       d="m 315.31045,1056.3685 c -5.27592,0 -9.55002,-4.2795 -9.55002,-9.55 0,-5.2759 4.2741,-9.55 9.55002,-9.55 5.2732,0 9.55002,4.2741 9.55002,9.55 0,5.2705 -4.27682,9.55 -9.55002,9.55 z m 8.84221,-54.5287 v 28.778 c 0,0 -3.62073,-5.461 -12.40577,-5.461 -10.79686,-0.1198 -20.58916,7.7723 -20.65178,21.836 0.5962,17.3277 14.5401,21.4875 20.35777,21.4222 8.78231,0.063 12.69978,-5.932 12.69978,-5.932 v 4.5708 h 14.4802 v -65.214 h -14.4802"
       id="path2490"
       style="fill:#ffffff;fill-opacity:1;fill-rule:nonzero;stroke:none" />
    <path
       transform="translate(517.17175,-552.15791)"
       inkscape:connector-curvature="0"
       d="m -137.66745,1054.0545 v -32.7308 c 0,0 20.16719,-2.2568 20.36048,16.7533 0.18784,18.5529 -20.36048,15.9775 -20.36048,15.9775 z m 4.4456,-45.809 c -0.6452,0 -19.45666,0 -19.45666,0 v 58.6939 c 0,0 9.83586,0.024 19.56555,-0.03 11.40394,-0.068 31.91416,-4.6089 31.65553,-29.4123 -0.22051,-21.1989 -18.55556,-29.3823 -31.76442,-29.2517"
       id="path2492"
       style="fill:#ffffff;fill-opacity:1;fill-rule:nonzero;stroke:none" />
    <path
       transform="translate(517.17175,-552.15791)"
       inkscape:connector-curvature="0"
       d="m -46.22087,1026.4853 h 13.66078 l 0.12795,23.2598 c 0,8.442 14.55915,8.5046 14.55915,0 v -23.3252 l 13.85405,-0.065 v 25.1301 c 0,0 2.12616,16.4294 -20.87501,16.4294 -23.00116,0 -21.32692,-16.5574 -21.32692,-16.5574 v -24.8714"
       id="path2494"
       style="fill:#ffffff;fill-opacity:1;fill-rule:nonzero;stroke:none" />
    <path
       transform="translate(517.17175,-552.15791)"
       inkscape:connector-curvature="0"
       d="m 60.65058,1036.4681 c -1.68514,-1.6062 -12.08181,-3.8113 -12.37038,0.9692 -0.38929,6.373 19.06465,0.2995 18.16899,15.9775 -0.64247,11.2705 -9.34856,14.4938 -18.04103,14.4938 -5.57266,0 -13.40215,-1.9982 -16.94666,-4.6362 l 4.96285,-9.8603 c 2.51001,2.1261 15.09273,7.1951 16.17079,1.2277 1.09438,-6.0626 -18.84958,-0.8929 -18.10366,-15.4656 1.03177,-20.17 25.83786,-14.3713 30.66732,-11.3386 l -4.50822,8.6325"
       id="path2498"
       style="fill:#ffffff;fill-opacity:1;fill-rule:nonzero;stroke:none" />
    <path
       transform="translate(517.17175,-552.15791)"
       inkscape:connector-curvature="0"
       d="m 103.36431,1027.5089 c -7.40752,-4.6389 -31.31523,-3.03 -31.63647,18.4929 -0.36207,24.4168 26.67634,23.2598 31.76442,19.522 l -0.12795,-11.8558 c 0,0 -6.75688,4.8594 -12.95023,1.225 -6.69972,-3.9311 -4.60895,-13.8785 -0.32396,-16.5573 7.73148,-4.8349 13.33953,1.2876 13.33953,1.2876 l -0.0653,-12.1144"
       id="path2500"
       style="fill:#ffffff;fill-opacity:1;fill-rule:nonzero;stroke:none" />
    <g
       aria-label="zu"
       transform="matrix(0.85091768,0,0,0.85091768,245.29428,580.55009)"
       style="font-style:normal;font-variant:normal;font-weight:bold;font-stretch:normal;font-size:85.33333588px;line-height:25px;font-family:Futura;-inkscape-font-specification:'Futura, Bold';font-variant-ligatures:normal;font-variant-caps:normal;font-variant-numeric:normal;font-feature-settings:normal;text-align:start;letter-spacing:0px;word-spacing:0px;writing-mode:lr-tb;text-anchor:start;fill:#ffffff;fill-opacity:1;stroke:none;stroke-width:1.10175169px;stroke-linecap:butt;stroke-linejoin:miter;stroke-opacity:1"
       id="flowRoot3098">
      <path
         d="m 166.02439,-212.83456 20.48,-30.89066 h -43.69067 v 12.88533 h 17.83467 l -20.56533,30.89067 h 44.37333 v -12.88534 z"
         style="stroke-width:1.10175169px"
         id="path853"
         inkscape:connector-curvature="0" />
      <path
         d="m 191.93106,-243.72522 v 26.368 c 0,14.42133 10.15467,18.85866 23.296,18.85866 13.14133,0 23.296,-4.43733 23.296,-18.85866 v -26.368 h -15.53067 v 23.38133 c 0,5.54667 -1.36533,9.472 -7.76533,9.472 -6.4,0 -7.76533,-3.92533 -7.76533,-9.472 v -23.38133 z"
         style="stroke-width:1.10175169px"
         id="path855"
         inkscape:connector-curvature="0" />
    </g>
    <path
       transform="translate(517.17175,-552.15791)"
       style="opacity:1;fill:#ffffff;fill-opacity:1;stroke:none;stroke-width:2.90625;stroke-linecap:butt;stroke-linejoin:round;stroke-miterlimit:4;stroke-dasharray:none;stroke-opacity:1;paint-order:normal"
       d="m -431.59364,740.82322 a 76.945228,76.945228 0 0 0 -76.94641,76.94457 76.945228,76.945228 0 0 0 76.94641,76.94458 76.945228,76.945228 0 0 0 76.94458,-76.94458 76.945228,76.945228 0 0 0 -76.94458,-76.94457 z m 0,20.59753 a 56.347576,56.347576 0 0 1 56.34705,56.34704 56.347576,56.347576 0 0 1 -56.34705,56.34705 56.347576,56.347576 0 0 1 -56.34887,-56.34705 56.347576,56.347576 0 0 1 56.34887,-56.34704 z"
       id="path3116-7"
       inkscape:connector-curvature="0" />
  </g>
</svg>
