<?xml version="1.0" encoding="UTF-8" standalone="no"?>
<!-- Created with Inkscape (http://www.inkscape.org/) -->

<svg
   xmlns:dc="http://purl.org/dc/elements/1.1/"
   xmlns:cc="http://creativecommons.org/ns#"
   xmlns:rdf="http://www.w3.org/1999/02/22-rdf-syntax-ns#"
   xmlns:svg="http://www.w3.org/2000/svg"
   xmlns="http://www.w3.org/2000/svg"
   xmlns:sodipodi="http://sodipodi.sourceforge.net/DTD/sodipodi-0.dtd"
   xmlns:inkscape="http://www.inkscape.org/namespaces/inkscape"
   width="270.94965mm"
   height="124.74815mm"
   viewBox="0 0 960.0578 442.02099"
   id="svg2"
   version="1.1"
   inkscape:version="0.92.3 (2405546, 2018-03-11)"
   sodipodi:docname="alternative.svg"
   inkscape:export-filename="/home/towa/source/towa/stickers/faschist/alternative.png"
   inkscape:export-xdpi="100"
   inkscape:export-ydpi="100">
  <defs
     id="defs4" />
  <sodipodi:namedview
     id="base"
     pagecolor="#ffffff"
     bordercolor="#666666"
     borderopacity="1.0"
     inkscape:pageopacity="0.0"
     inkscape:pageshadow="2"
     inkscape:zoom="0.7"
     inkscape:cx="549.43442"
     inkscape:cy="296.96911"
     inkscape:document-units="px"
     inkscape:current-layer="layer1"
     showgrid="false"
     fit-margin-top="0"
     fit-margin-left="0"
     fit-margin-right="0"
     fit-margin-bottom="0"
     inkscape:window-width="1920"
     inkscape:window-height="1080"
     inkscape:window-x="0"
     inkscape:window-y="0"
     inkscape:window-maximized="0"
     showguides="false" />
  <metadata
     id="metadata7">
    <rdf:RDF>
      <cc:Work
         rdf:about="">
        <dc:format>image/svg+xml</dc:format>
        <dc:type
           rdf:resource="http://purl.org/dc/dcmitype/StillImage" />
        <dc:title></dc:title>
      </cc:Work>
    </rdf:RDF>
  </metadata>
  <g
     inkscape:label="Ebene 1"
     inkscape:groupmode="layer"
     id="layer1"
     transform="translate(517.17175,-677.066)">
    <path
       inkscape:connector-curvature="0"
       d="M -517.17175,724.05625 H 369.74664 V 1095.1975 H -517.17175 Z"
       id="path2438"
       style="fill:#000b0f;fill-opacity:1;fill-rule:nonzero;stroke:none" />
    <path
       inkscape:connector-curvature="0"
       d="m 431.42566,729.15019 c -25.44856,-55.8464 -117.04488,-68.6333 -250.00464,-27.5203 -64.28295,19.8787 -201.993216,72.1234 -281.50228,127.98878 -101.46213,71.28488 -146.88733,109.74625 -159.15426,125.99598 l -52.36992,-65.82379 -36.16103,210.38624 215.85272,18.5692 -51.49604,-66.9101 c 0,0 69.90188,-70.30202 183.46215441,-120.09659 C 86.258414,893.93977 224.21097,848.47369 262.32393,867.74796 326.47892,900.18753 236.40167,986.92989 236.40167,986.92989 343.8312,962.39331 422.56168,912.1986 440.17531,812.05676 c 4.33671,-24.65637 3.18787,-56.71207 -8.74965,-82.90657"
       id="path2440"
       style="fill:#e2001a;fill-opacity:1;fill-rule:nonzero;stroke:none" />
    <path
       inkscape:connector-curvature="0"
       d="m 431.48164,729.08563 c -25.44856,-55.8464 -117.04488,-68.6333 -250.00464,-27.5203 -64.28295,19.8787 -201.993222,72.1234 -281.50228,127.98878 -101.46213,71.28488 -146.88733,109.74625 -159.15426,125.99598 l -52.36992,-65.82379 -36.16103,210.3862 215.85272,18.5692 -51.49604,-66.91 c 0,0 69.90188,-70.30208 183.46214831,-120.09665 C 86.314388,893.87521 224.26695,848.40913 262.37991,867.6834 326.5349,900.12297 236.45765,986.86533 236.45765,986.86533 343.88718,962.32875 422.61766,912.13404 440.23129,811.9922 c 4.33671,-24.65637 3.18787,-56.71207 -8.74965,-82.90657 z"
       id="path2442"
       style="fill:none;stroke:#ed1c24;stroke-width:0.68058848;stroke-linecap:butt;stroke-linejoin:miter;stroke-miterlimit:10;stroke-dasharray:none;stroke-opacity:1" />
    <path
       inkscape:connector-curvature="0"
       d="m 99.03622,772.46514 v 22.34781 h -8.51825 v 21.48481 h 8.39574 v 52.10309 h 26.05293 v -52.22832 h 15.06278 v -21.6046 h -15.06278 v -22.22529 l -25.93042,0.1225"
       id="path2446"
       style="fill:#ffffff;fill-opacity:1;fill-rule:nonzero;stroke:none" />
    <path
       inkscape:connector-curvature="0"
       d="m -299.80496,772.50053 v 22.34781 h -8.51824 v 21.48209 h 8.39576 v 52.10309 h 26.05292 v -52.22559 h 15.06277 V 794.6006 h -15.06277 v -22.22257 l -25.93044,0.1225"
       id="path2448"
       style="fill:#ffffff;fill-opacity:1;fill-rule:nonzero;stroke:none" />
    <path
       inkscape:connector-curvature="0"
       d="m 6.34234,1014.2918 v 12.2887 H 1.65717 v 11.8178 h 4.61711 v 28.6555 h 14.32775 v -28.7208 h 8.28685 v -11.8858 h -8.28685 v -12.2234 l -14.25969,0.068"
       id="path2450"
       style="fill:#ffffff;fill-opacity:1;fill-rule:nonzero;stroke:none" />
    <path
       inkscape:connector-curvature="0"
       d="m 149.04314,794.81567 -0.12251,73.46272 h 25.92498 v -73.58523 l -25.80247,0.12251"
       id="path2456"
       style="fill:#ffffff;fill-opacity:1;fill-rule:nonzero;stroke:none" />
    <path
       inkscape:connector-curvature="0"
       d="m 174.84833,766.04856 c 0,7.22512 -5.85851,13.08635 -13.08908,13.08635 -7.22785,0 -13.08635,-5.86123 -13.08635,-13.08635 0,-7.23058 5.8585,-13.08908 13.08635,-13.08908 7.23057,0 13.08908,5.8585 13.08908,13.08908"
       id="path2458"
       style="fill:#ffffff;fill-opacity:1;fill-rule:nonzero;stroke:none" />
    <path
       inkscape:connector-curvature="0"
       d="m 174.84833,766.04856 c 0,7.22512 -5.85851,13.08635 -13.08908,13.08635 -7.22785,0 -13.08635,-5.86123 -13.08635,-13.08635 0,-7.23058 5.8585,-13.08908 13.08635,-13.08908 7.23057,0 13.08908,5.8585 13.08908,13.08908 z"
       id="path2460"
       style="fill:none;stroke:#ffffff;stroke-width:2.72235394;stroke-linecap:butt;stroke-linejoin:miter;stroke-miterlimit:10;stroke-dasharray:none;stroke-opacity:1" />
    <path
       inkscape:connector-curvature="0"
       d="m 181.63788,794.69316 38.52403,73.58791 h 17.15899 l 38.2763,-73.95815 h -29.51032 l -17.16171,37.5331 -17.9022,-37.40787 -29.38509,0.24501"
       id="path2462"
       style="fill:#ffffff;fill-opacity:1;fill-rule:nonzero;stroke:none" />
    <path
       inkscape:connector-curvature="0"
       d="m -345.6984,748.88956 h 26.42317 V 868.1586 h -26.42317 z"
       id="path2464"
       style="fill:#ffffff;fill-opacity:1;fill-rule:nonzero;stroke:none" />
    <path
       inkscape:connector-curvature="0"
       d="m 164.33415,1001.4097 h 14.53737 v 65.6005 h -14.53737 z"
       id="path2466"
       style="fill:#ffffff;fill-opacity:1;fill-rule:nonzero;stroke:none" />
    <path
       inkscape:connector-curvature="0"
       d="m -443.023,827.86232 11.71701,-34.57934 11.374,34.57934 z m 27.22354,-68.12418 -30.78438,0.22868 -41.93241,108.21629 h 30.21268 l 7.46742,-18.61006 h 38.59753 l 7.23874,18.72439 h 30.32702 l -41.1266,-108.5593"
       id="path2468"
       style="fill:#ffffff;fill-opacity:1;fill-rule:nonzero;stroke:none" />
    <path
       inkscape:connector-curvature="0"
       d="m -162.19814,794.57066 0.11434,73.61245 h 26.07743 c 0,0 -0.22868,-14.02013 -0.11434,-27.8633 -0.91743,-34.85974 29.40959,-21.64815 29.40959,-21.64815 v -25.27434 c -24.23984,-1.37751 -29.40959,13.61177 -29.40959,13.61177 v -12.43843 h -26.07743"
       id="path2470"
       style="fill:#ffffff;fill-opacity:1;fill-rule:nonzero;stroke:none" />
    <path
       inkscape:connector-curvature="0"
       d="m 303.632,820.62358 c 0,0 1.95193,-11.60267 15.27785,-11.60267 13.32592,0 14.82049,11.60267 14.82049,11.60267 z m 14.70343,-28.60377 c -42.86618,0 -41.35527,38.82893 -41.35527,38.82893 -0.11434,8.61353 2.29766,40.20645 41.81535,40.09207 34.81619,-0.10069 38.54037,-25.15995 38.54037,-25.15995 h -25.55746 c 0,0 -2.96465,6.89023 -13.21159,6.66427 -10.3395,-0.2314 -15.50925,-5.62978 -15.50925,-16.65804 l 55.25834,-0.11433 c 0,0 2.86936,-43.65295 -39.98049,-43.65295"
       id="path2474"
       style="fill:#ffffff;fill-opacity:1;fill-rule:nonzero;stroke:none" />
    <path
       inkscape:connector-curvature="0"
       d="m -82.90458,1040.6715 c 0,0 1.0726,-6.3812 8.40118,-6.3812 7.3313,0 8.15345,6.3812 8.15345,6.3812 z m 8.08539,-15.7325 c -23.57559,0 -22.74527,21.3541 -22.74527,21.3541 -0.0626,4.7396 1.26589,22.1137 22.99845,22.0511 19.14903,-0.054 21.19897,-13.8377 21.19897,-13.8377 h -14.05824 c 0,0 -1.63069,3.7922 -7.26596,3.667 -5.687,-0.128 -8.4393,-3.2941 -8.4393,-9.3622 l 30.2998,0.1334 c 0,0 1.57896,-24.0057 -21.98845,-24.0057"
       id="path2476"
       style="fill:#ffffff;fill-opacity:1;fill-rule:nonzero;stroke:none" />
    <path
       inkscape:connector-curvature="0"
       d="m -229.04007,820.62903 c 0,0 1.9519,-11.60267 15.27783,-11.60267 13.32592,0 14.82049,11.60267 14.82049,11.60267 z m 14.70341,-28.60377 c -42.86616,0 -41.35526,38.82893 -41.35526,38.82893 -0.11433,8.61625 2.29765,40.20644 41.81534,40.0921 34.81618,-0.10072 38.54036,-25.15727 38.54036,-25.15727 h -25.55746 c 0,0 -2.96464,6.89028 -13.21158,6.66156 -10.3395,-0.22868 -15.50925,-5.62979 -15.50925,-16.65532 l 55.25834,-0.11706 c 0,0 2.86936,-43.65294 -39.98049,-43.65294"
       id="path2478"
       style="fill:#ffffff;fill-opacity:1;fill-rule:nonzero;stroke:none" />
    <path
       inkscape:connector-curvature="0"
       d="m -96.74458,794.6496 v 73.58795 h 26.00392 v -40.57124 c 0,0 0.32396,-15.21251 13.38037,-14.99744 13.05369,0.21506 12.08453,14.99744 12.08453,14.99744 v 40.68014 l 26.21899,-0.0681 c 0,0 0,-34.88424 0,-40.30445 0,-5.42021 1.93831,-35.74179 -26.11282,-35.74179 -19.43216,0 -25.4649,12.19343 -25.4649,12.19343 l -0.10617,-9.77598 h -26.00392"
       id="path2480"
       style="fill:#ffffff;fill-opacity:1;fill-rule:nonzero;stroke:none" />
    <path
       inkscape:connector-curvature="0"
       d="m 241.88857,1026.507 v 40.4733 h 14.2978 v -22.3124 c 0,0 0.1824,-8.3685 7.36124,-8.2515 7.18157,0.1171 6.64799,8.2515 6.64799,8.2515 v 22.3723 l 14.42031,-0.038 c 0,0 0,-19.1844 0,-22.1681 0,-2.9783 1.06444,-19.6554 -14.36314,-19.6554 -10.68796,0 -14.00379,6.7024 -14.00379,6.7024 l -0.0626,-5.3739 h -14.2978"
       id="path2482"
       style="fill:#ffffff;fill-opacity:1;fill-rule:nonzero;stroke:none" />
    <path
       inkscape:connector-curvature="0"
       d="m 112.49237,1001.9922 v 64.9745 h 14.2978 v -22.3124 c 0,0 0.17967,-8.3686 7.36124,-8.2488 7.18157,0.1171 6.64527,8.2488 6.64527,8.2488 v 22.3723 l 14.42031,-0.038 c 0,0 0,-19.1845 0,-22.1682 0,-2.9782 1.06716,-19.6554 -14.36042,-19.6554 -10.68796,0 -14.00651,6.7052 -14.00651,6.7052 l -0.0599,-29.8778 h -14.2978"
       id="path2484"
       style="fill:#ffffff;fill-opacity:1;fill-rule:nonzero;stroke:none" />
    <path
       inkscape:connector-curvature="0"
       d="m 36.94749,849.0259 c -9.59085,0 -17.36589,-7.77504 -17.36589,-17.36317 0,-9.58813 7.77504,-17.36317 17.36589,-17.36317 9.58813,0 17.36318,7.77504 17.36318,17.36317 0,9.58813 -7.77505,17.36317 -17.36318,17.36317 z m 16.0755,-54.58864 v 7.76688 c 0,0 -6.58265,-9.92571 -22.55198,-9.92571 -19.63634,-0.21506 -37.44053,14.13447 -37.54942,39.70826 1.07805,31.50576 26.43405,39.06029 37.0104,38.95139 15.96932,0.10618 23.091,-10.79136 23.091,-10.79136 v 8.30862 H 79.35088 V 794.43726 H 53.02299"
       id="path2486"
       style="fill:#ffffff;fill-opacity:1;fill-rule:nonzero;stroke:none" />
    <path
       inkscape:connector-curvature="0"
       d="m 209.19582,1056.4203 c -5.27048,0 -9.5473,-4.2768 -9.5473,-9.5528 0,-5.2704 4.27682,-9.5445 9.5473,-9.5445 5.27592,0 9.55274,4.274 9.55274,9.5445 0,5.276 -4.27682,9.5528 -9.55274,9.5528 z m 8.84221,-30.0249 v 4.2714 c 0,0 -3.61801,-5.461 -12.40033,-5.461 -10.8023,-0.1171 -20.59188,7.7777 -20.6545,21.8414 0.5962,17.3278 14.54282,21.4821 20.35777,21.4222 8.78231,0.057 12.69706,-5.9347 12.69706,-5.9347 v 4.5708 h 14.48292 v -40.7101 h -14.48292"
       id="path2488"
       style="fill:#ffffff;fill-opacity:1;fill-rule:nonzero;stroke:none" />
    <path
       inkscape:connector-curvature="0"
       d="m 315.31045,1056.3685 c -5.27592,0 -9.55002,-4.2795 -9.55002,-9.55 0,-5.2759 4.2741,-9.55 9.55002,-9.55 5.2732,0 9.55002,4.2741 9.55002,9.55 0,5.2705 -4.27682,9.55 -9.55002,9.55 z m 8.84221,-54.5287 v 28.778 c 0,0 -3.62073,-5.461 -12.40577,-5.461 -10.79686,-0.1198 -20.58916,7.7723 -20.65178,21.836 0.5962,17.3277 14.5401,21.4875 20.35777,21.4222 8.78231,0.063 12.69978,-5.932 12.69978,-5.932 v 4.5708 h 14.4802 v -65.214 h -14.4802"
       id="path2490"
       style="fill:#ffffff;fill-opacity:1;fill-rule:nonzero;stroke:none" />
    <path
       inkscape:connector-curvature="0"
       d="m -137.66745,1054.0545 v -32.7308 c 0,0 20.16719,-2.2568 20.36048,16.7533 0.18784,18.5529 -20.36048,15.9775 -20.36048,15.9775 z m 4.4456,-45.809 c -0.6452,0 -19.45666,0 -19.45666,0 v 58.6939 c 0,0 9.83586,0.024 19.56555,-0.03 11.40394,-0.068 31.91416,-4.6089 31.65553,-29.4123 -0.22051,-21.1989 -18.55556,-29.3823 -31.76442,-29.2517"
       id="path2492"
       style="fill:#ffffff;fill-opacity:1;fill-rule:nonzero;stroke:none" />
    <path
       inkscape:connector-curvature="0"
       d="m -46.22087,1026.4853 h 13.66078 l 0.12795,23.2598 c 0,8.442 14.55915,8.5046 14.55915,0 v -23.3252 l 13.85405,-0.065 v 25.1301 c 0,0 2.12616,16.4294 -20.87501,16.4294 -23.00116,0 -21.32692,-16.5574 -21.32692,-16.5574 v -24.8714"
       id="path2494"
       style="fill:#ffffff;fill-opacity:1;fill-rule:nonzero;stroke:none" />
    <path
       inkscape:connector-curvature="0"
       d="m 60.65058,1036.4681 c -1.68514,-1.6062 -12.08181,-3.8113 -12.37038,0.9692 -0.38929,6.373 19.06465,0.2995 18.16899,15.9775 -0.64247,11.2705 -9.34856,14.4938 -18.04103,14.4938 -5.57266,0 -13.40215,-1.9982 -16.94666,-4.6362 l 4.96285,-9.8603 c 2.51001,2.1261 15.09273,7.1951 16.17079,1.2277 1.09438,-6.0626 -18.84958,-0.8929 -18.10366,-15.4656 1.03177,-20.17 25.83786,-14.3713 30.66732,-11.3386 l -4.50822,8.6325"
       id="path2498"
       style="fill:#ffffff;fill-opacity:1;fill-rule:nonzero;stroke:none" />
    <path
       inkscape:connector-curvature="0"
       d="m 103.36431,1027.5089 c -7.40752,-4.6389 -31.31523,-3.03 -31.63647,18.4929 -0.36207,24.4168 26.67634,23.2598 31.76442,19.522 l -0.12795,-11.8558 c 0,0 -6.75688,4.8594 -12.95023,1.225 -6.69972,-3.9311 -4.60895,-13.8785 -0.32396,-16.5573 7.73148,-4.8349 13.33953,1.2876 13.33953,1.2876 l -0.0653,-12.1144"
       id="path2500"
       style="fill:#ffffff;fill-opacity:1;fill-rule:nonzero;stroke:none" />
    <flowRoot
       xml:space="preserve"
       id="flowRoot3098"
       style="font-style:normal;font-variant:normal;font-weight:bold;font-stretch:normal;font-size:85.33333588px;line-height:25px;font-family:Futura;-inkscape-font-specification:'Futura, Bold';font-variant-ligatures:normal;font-variant-caps:normal;font-variant-numeric:normal;font-feature-settings:normal;text-align:start;letter-spacing:0px;word-spacing:0px;writing-mode:lr-tb;text-anchor:start;fill:#ffffff;fill-opacity:1;stroke:none;stroke-width:1.10175169px;stroke-linecap:butt;stroke-linejoin:miter;stroke-opacity:1"
       transform="matrix(0.85091768,0,0,0.85091768,-271.87747,1132.708)"><flowRegion
         id="flowRegion3100"
         style="font-style:normal;font-variant:normal;font-weight:bold;font-stretch:normal;font-size:85.33333588px;font-family:Futura;-inkscape-font-specification:'Futura, Bold';font-variant-ligatures:normal;font-variant-caps:normal;font-variant-numeric:normal;font-feature-settings:normal;text-align:start;writing-mode:lr-tb;text-anchor:start;fill:#ffffff;fill-opacity:1;stroke-width:1.10175169px"><rect
           id="rect3102"
           width="215.16249"
           height="125.25892"
           x="139.40105"
           y="-232.58723"
           style="font-style:normal;font-variant:normal;font-weight:bold;font-stretch:normal;font-size:85.33333588px;font-family:Futura;-inkscape-font-specification:'Futura, Bold';font-variant-ligatures:normal;font-variant-caps:normal;font-variant-numeric:normal;font-feature-settings:normal;text-align:start;writing-mode:lr-tb;text-anchor:start;fill:#ffffff;fill-opacity:1;stroke-width:1.10175169px" /></flowRegion><flowPara
         id="flowPara3104"
         style="stroke-width:1.10175169px">zu</flowPara></flowRoot>    <path
       style="opacity:1;fill:#ffffff;fill-opacity:1;stroke:none;stroke-width:2.90625;stroke-linecap:butt;stroke-linejoin:round;stroke-miterlimit:4;stroke-dasharray:none;stroke-opacity:1;paint-order:normal"
       d="m -431.59364,740.82322 a 76.945228,76.945228 0 0 0 -76.94641,76.94457 76.945228,76.945228 0 0 0 76.94641,76.94458 76.945228,76.945228 0 0 0 76.94458,-76.94458 76.945228,76.945228 0 0 0 -76.94458,-76.94457 z m 0,20.59753 a 56.347576,56.347576 0 0 1 56.34705,56.34704 56.347576,56.347576 0 0 1 -56.34705,56.34705 56.347576,56.347576 0 0 1 -56.34887,-56.34705 56.347576,56.347576 0 0 1 56.34887,-56.34704 z"
       id="path3116-7"
       inkscape:connector-curvature="0" />
  </g>
</svg>
