<?xml version="1.0" encoding="UTF-8" standalone="no"?>
<!-- Created with Inkscape (http://www.inkscape.org/) -->

<svg
   xmlns:dc="http://purl.org/dc/elements/1.1/"
   xmlns:cc="http://creativecommons.org/ns#"
   xmlns:rdf="http://www.w3.org/1999/02/22-rdf-syntax-ns#"
   xmlns:svg="http://www.w3.org/2000/svg"
   xmlns="http://www.w3.org/2000/svg"
   xmlns:sodipodi="http://sodipodi.sourceforge.net/DTD/sodipodi-0.dtd"
   xmlns:inkscape="http://www.inkscape.org/namespaces/inkscape"
   width="500"
   height="500"
   viewBox="0 0 132.29166 132.29167"
   version="1.1"
   id="svg8"
   inkscape:version="0.92.4 5da689c313, 2019-01-14"
   sodipodi:docname="classic.svg"
   inkscape:export-filename="/home/towa/Documents/biji.png"
   inkscape:export-xdpi="120"
   inkscape:export-ydpi="120">
  <defs
     id="defs2" />
  <sodipodi:namedview
     id="base"
     pagecolor="#ffffff"
     bordercolor="#666666"
     borderopacity="1.0"
     inkscape:pageopacity="0.0"
     inkscape:pageshadow="2"
     inkscape:zoom="0.7"
     inkscape:cx="-42.58151"
     inkscape:cy="199.93823"
     inkscape:document-units="mm"
     inkscape:current-layer="layer1"
     showgrid="false"
     units="px"
     inkscape:window-width="1366"
     inkscape:window-height="712"
     inkscape:window-x="0"
     inkscape:window-y="28"
     inkscape:window-maximized="1" />
  <metadata
     id="metadata5">
    <rdf:RDF>
      <cc:Work
         rdf:about="">
        <dc:format>image/svg+xml</dc:format>
        <dc:type
           rdf:resource="http://purl.org/dc/dcmitype/StillImage" />
        <dc:title />
      </cc:Work>
    </rdf:RDF>
  </metadata>
  <g
     inkscape:groupmode="layer"
     id="layer2"
     inkscape:label="Layer 2"
     style="display:inline"
     sodipodi:insensitive="true">
    <rect
       style="fill:#000000;fill-opacity:1;stroke:none;stroke-width:0.26458332"
       id="rect847"
       width="132.29167"
       height="132.29167"
       x="-7.1054274e-15"
       y="-5.0862632e-06" />
  </g>
  <g
     inkscape:label="Layer 1"
     inkscape:groupmode="layer"
     id="layer1"
     transform="translate(0,-164.70832)"
     style="display:inline">
    <g
       id="g853"
       transform="matrix(1.3068806,0,0,1.3068806,-15.634248,-73.969753)"
       style="fill:#ffffff;fill-opacity:1">
      <g
         aria-label="YPJ"
         style="font-style:normal;font-variant:normal;font-weight:normal;font-stretch:normal;font-size:50.79999924px;line-height:1.25;font-family:'Franklin Gothic Heavy';-inkscape-font-specification:'Franklin Gothic Heavy, Normal';font-variant-ligatures:normal;font-variant-caps:normal;font-variant-numeric:normal;font-feature-settings:normal;text-align:start;letter-spacing:0px;word-spacing:0px;writing-mode:lr-tb;text-anchor:start;fill:#ffffff;fill-opacity:1;stroke:none;stroke-width:0.26458332"
         id="text817">
        <path
           d="M 54.738269,234.21732 44.146667,253.7386 v 14.33711 H 34.05116 V 253.7386 L 22.665808,234.21732 H 34.05116 l 5.92832,11.1373 5.680273,-11.1373 z"
           style="font-style:normal;font-variant:normal;font-weight:normal;font-stretch:normal;font-size:50.79999924px;font-family:'Franklin Gothic Heavy';-inkscape-font-specification:'Franklin Gothic Heavy, Normal';font-variant-ligatures:normal;font-variant-caps:normal;font-variant-numeric:normal;font-feature-settings:normal;text-align:start;writing-mode:lr-tb;text-anchor:start;fill:#ffffff;stroke-width:0.26458332;fill-opacity:1"
           id="path916" />
        <path
           d="m 67.215027,255.77259 v 12.30312 H 56.673035 v -33.85839 h 14.461133 q 5.407421,0 8.210351,1.24023 2.827734,1.24023 4.464844,3.79512 1.661914,2.55488 1.661914,5.72988 0,4.83691 -3.373438,7.81348 -3.373437,2.97656 -9.004101,2.97656 z m -0.148828,-7.26777 h 3.472656 q 4.588867,0 4.588867,-3.37344 0,-3.175 -4.241601,-3.175 h -3.819922 z"
           style="font-style:normal;font-variant:normal;font-weight:normal;font-stretch:normal;font-size:50.79999924px;font-family:'Franklin Gothic Heavy';-inkscape-font-specification:'Franklin Gothic Heavy, Normal';font-variant-ligatures:normal;font-variant-caps:normal;font-variant-numeric:normal;font-feature-settings:normal;text-align:start;writing-mode:lr-tb;text-anchor:start;fill:#ffffff;stroke-width:0.26458332;fill-opacity:1"
           id="path918" />
        <path
           d="m 102.48729,234.21732 v 21.33203 q 0,4.91133 -0.89297,7.49101 -0.86816,2.55489 -3.423043,4.06797 -2.554883,1.48828 -6.920508,1.48828 -3.844727,0 -6.945312,-0.81855 v -8.08633 q 2.182812,0.62012 4.067968,0.62012 2.232422,0 3.175,-1.017 0.942578,-1.04179 0.942578,-3.7455 v -21.33203 z"
           style="font-style:normal;font-variant:normal;font-weight:normal;font-stretch:normal;font-size:50.79999924px;font-family:'Franklin Gothic Heavy';-inkscape-font-specification:'Franklin Gothic Heavy, Normal';font-variant-ligatures:normal;font-variant-caps:normal;font-variant-numeric:normal;font-feature-settings:normal;text-align:start;writing-mode:lr-tb;text-anchor:start;fill:#ffffff;stroke-width:0.26458332;fill-opacity:1"
           id="path920" />
      </g>
      <g
         aria-label="BIJI"
         style="font-style:normal;font-variant:normal;font-weight:normal;font-stretch:normal;font-size:50.79999924px;line-height:1.25;font-family:'Franklin Gothic Heavy';-inkscape-font-specification:'Franklin Gothic Heavy, Normal';font-variant-ligatures:normal;font-variant-caps:normal;font-variant-numeric:normal;font-feature-settings:normal;text-align:start;letter-spacing:0px;word-spacing:0px;writing-mode:lr-tb;text-anchor:start;fill:#ffffff;fill-opacity:1;stroke:none;stroke-width:0.26458332"
         id="text817-7">
        <path
           d="m 22.343348,231.88158 v -33.8584 h 17.189648 q 5.357812,0 7.813477,2.70371 2.455664,2.70371 2.455664,6.17637 0,2.53007 -1.438672,4.58886 -1.413867,2.03399 -4.241602,2.80293 6.573242,1.5875 6.573242,7.88789 0,3.77032 -2.33164,6.74688 -2.306836,2.95176 -9.89707,2.95176 z m 9.574609,-20.88555 h 4.812109 q 1.810743,0 2.554883,-0.91777 0.744141,-0.91778 0.744141,-1.95957 0,-2.82774 -3.472656,-2.82774 h -4.638477 z m 0,13.34492 h 5.060156 q 1.885157,0 2.753321,-0.91777 0.892968,-0.94258 0.892968,-2.1084 0,-1.16582 -0.868164,-2.1332 -0.843359,-0.99219 -3.12539,-0.99219 h -4.712891 z"
           style="font-style:normal;font-variant:normal;font-weight:normal;font-stretch:normal;font-size:50.79999924px;font-family:'Franklin Gothic Heavy';-inkscape-font-specification:'Franklin Gothic Heavy, Normal';font-variant-ligatures:normal;font-variant-caps:normal;font-variant-numeric:normal;font-feature-settings:normal;text-align:start;writing-mode:lr-tb;text-anchor:start;fill:#ffffff;stroke-width:0.26458332;fill-opacity:1"
           id="path907" />
        <path
           d="m 65.379479,198.02318 v 33.8584 H 54.986315 v -33.8584 z"
           style="font-style:normal;font-variant:normal;font-weight:normal;font-stretch:normal;font-size:50.79999924px;font-family:'Franklin Gothic Heavy';-inkscape-font-specification:'Franklin Gothic Heavy, Normal';font-variant-ligatures:normal;font-variant-caps:normal;font-variant-numeric:normal;font-feature-settings:normal;text-align:start;writing-mode:lr-tb;text-anchor:start;fill:#ffffff;stroke-width:0.26458332;fill-opacity:1"
           id="path909" />
        <path
           d="m 86.860335,198.02318 v 21.33203 q 0,4.91133 -0.892968,7.49102 -0.868165,2.55488 -3.423047,4.06796 -2.554883,1.48828 -6.920508,1.48828 -3.844727,0 -6.945312,-0.81855 v -8.08633 q 2.182812,0.62012 4.067968,0.62012 2.232422,0 3.175,-1.01699 0.942578,-1.0418 0.942578,-3.74551 v -21.33203 z"
           style="font-style:normal;font-variant:normal;font-weight:normal;font-stretch:normal;font-size:50.79999924px;font-family:'Franklin Gothic Heavy';-inkscape-font-specification:'Franklin Gothic Heavy, Normal';font-variant-ligatures:normal;font-variant-caps:normal;font-variant-numeric:normal;font-feature-settings:normal;text-align:start;writing-mode:lr-tb;text-anchor:start;fill:#ffffff;stroke-width:0.26458332;fill-opacity:1"
           id="path911" />
        <path
           d="m 102.80975,198.02318 v 33.8584 H 92.41659 v -33.8584 z"
           style="font-style:normal;font-variant:normal;font-weight:normal;font-stretch:normal;font-size:50.79999924px;font-family:'Franklin Gothic Heavy';-inkscape-font-specification:'Franklin Gothic Heavy, Normal';font-variant-ligatures:normal;font-variant-caps:normal;font-variant-numeric:normal;font-feature-settings:normal;text-align:start;writing-mode:lr-tb;text-anchor:start;fill:#ffffff;stroke-width:0.26458332;fill-opacity:1"
           id="path913" />
      </g>
      <g
         aria-label="BIJI"
         style="font-style:normal;font-variant:normal;font-weight:normal;font-stretch:normal;font-size:50.79999924px;line-height:1.25;font-family:'Franklin Gothic Heavy';-inkscape-font-specification:'Franklin Gothic Heavy, Normal';font-variant-ligatures:normal;font-variant-caps:normal;font-variant-numeric:normal;font-feature-settings:normal;text-align:start;letter-spacing:0px;word-spacing:0px;writing-mode:lr-tb;text-anchor:start;display:inline;fill:#ffffff;fill-opacity:1;stroke:none;stroke-width:0.26458332"
         id="text817-7-4">
        <path
           inkscape:connector-curvature="0"
           d="m 22.343348,231.88158 v -33.8584 h 17.189648 q 5.357812,0 7.813477,2.70371 2.455664,2.70371 2.455664,6.17637 0,2.53007 -1.438672,4.58886 -1.413867,2.03399 -4.241602,2.80293 6.573242,1.5875 6.573242,7.88789 0,3.77032 -2.33164,6.74688 -2.306836,2.95176 -9.89707,2.95176 z m 9.574609,-20.88555 h 4.812109 q 1.810743,0 2.554883,-0.91777 0.744141,-0.91778 0.744141,-1.95957 0,-2.82774 -3.472656,-2.82774 h -4.638477 z m 0,13.34492 h 5.060156 q 1.885157,0 2.753321,-0.91777 0.892968,-0.94258 0.892968,-2.1084 0,-1.16582 -0.868164,-2.1332 -0.843359,-0.99219 -3.12539,-0.99219 h -4.712891 z"
           style="font-style:normal;font-variant:normal;font-weight:normal;font-stretch:normal;font-size:50.79999924px;font-family:'Franklin Gothic Heavy';-inkscape-font-specification:'Franklin Gothic Heavy, Normal';font-variant-ligatures:normal;font-variant-caps:normal;font-variant-numeric:normal;font-feature-settings:normal;text-align:start;writing-mode:lr-tb;text-anchor:start;fill:#ffffff;stroke-width:0.26458332;fill-opacity:1"
           id="path907-3" />
        <path
           inkscape:connector-curvature="0"
           d="m 65.379479,198.02318 v 33.8584 H 54.986315 v -33.8584 z"
           style="font-style:normal;font-variant:normal;font-weight:normal;font-stretch:normal;font-size:50.79999924px;font-family:'Franklin Gothic Heavy';-inkscape-font-specification:'Franklin Gothic Heavy, Normal';font-variant-ligatures:normal;font-variant-caps:normal;font-variant-numeric:normal;font-feature-settings:normal;text-align:start;writing-mode:lr-tb;text-anchor:start;fill:#ffffff;stroke-width:0.26458332;fill-opacity:1"
           id="path909-1" />
        <path
           inkscape:connector-curvature="0"
           d="m 86.860335,198.02318 v 21.33203 q 0,4.91133 -0.892968,7.49102 -0.868165,2.55488 -3.423047,4.06796 -2.554883,1.48828 -6.920508,1.48828 -3.844727,0 -6.945312,-0.81855 v -8.08633 q 2.182812,0.62012 4.067968,0.62012 2.232422,0 3.175,-1.01699 0.942578,-1.0418 0.942578,-3.74551 v -21.33203 z"
           style="font-style:normal;font-variant:normal;font-weight:normal;font-stretch:normal;font-size:50.79999924px;font-family:'Franklin Gothic Heavy';-inkscape-font-specification:'Franklin Gothic Heavy, Normal';font-variant-ligatures:normal;font-variant-caps:normal;font-variant-numeric:normal;font-feature-settings:normal;text-align:start;writing-mode:lr-tb;text-anchor:start;fill:#ffffff;stroke-width:0.26458332;fill-opacity:1"
           id="path911-4" />
        <path
           inkscape:connector-curvature="0"
           d="m 102.80975,198.02318 v 33.8584 H 92.41659 v -33.8584 z"
           style="font-style:normal;font-variant:normal;font-weight:normal;font-stretch:normal;font-size:50.79999924px;font-family:'Franklin Gothic Heavy';-inkscape-font-specification:'Franklin Gothic Heavy, Normal';font-variant-ligatures:normal;font-variant-caps:normal;font-variant-numeric:normal;font-feature-settings:normal;text-align:start;writing-mode:lr-tb;text-anchor:start;fill:#ffffff;stroke-width:0.26458332;fill-opacity:1"
           id="path913-9" />
      </g>
    </g>
    <g
       transform="translate(-0.9388196,161.40579)"
       style="display:inline"
       id="g874">
      <rect
         y="117.60256"
         x="10.423512"
         height="10.156247"
         width="113.32228"
         id="rect855"
         style="fill:#ff0000;fill-opacity:1;stroke:none;stroke-width:0.26458332" />
      <rect
         y="11.137926"
         x="10.423512"
         height="10.156247"
         width="113.32228"
         id="rect855-8"
         style="display:inline;fill:#ff0000;fill-opacity:1;stroke:none;stroke-width:0.26458332" />
    </g>
  </g>
</svg>
