<?xml version="1.0" encoding="UTF-8" standalone="no"?>
<!-- Created with Inkscape (http://www.inkscape.org/) -->

<svg
   xmlns:dc="http://purl.org/dc/elements/1.1/"
   xmlns:cc="http://creativecommons.org/ns#"
   xmlns:rdf="http://www.w3.org/1999/02/22-rdf-syntax-ns#"
   xmlns:svg="http://www.w3.org/2000/svg"
   xmlns="http://www.w3.org/2000/svg"
   xmlns:sodipodi="http://sodipodi.sourceforge.net/DTD/sodipodi-0.dtd"
   xmlns:inkscape="http://www.inkscape.org/namespaces/inkscape"
   version="1.1"
   id="svg2037"
   width="52mm"
   height="52mm"
   viewBox="0 0 196.53543 196.53543"
   sodipodi:docname="gaymarijuana.svg"
   inkscape:version="0.92.3 (2405546, 2018-03-11)">
  <metadata
     id="metadata2043">
    <rdf:RDF>
      <cc:Work
         rdf:about="">
        <dc:format>image/svg+xml</dc:format>
        <dc:type
           rdf:resource="http://purl.org/dc/dcmitype/StillImage" />
        <dc:title></dc:title>
      </cc:Work>
    </rdf:RDF>
  </metadata>
  <defs
     id="defs2041" />
  <sodipodi:namedview
     pagecolor="#ffffff"
     bordercolor="#666666"
     borderopacity="1"
     objecttolerance="10"
     gridtolerance="10"
     guidetolerance="10"
     inkscape:pageopacity="0"
     inkscape:pageshadow="2"
     inkscape:window-width="1600"
     inkscape:window-height="900"
     id="namedview2039"
     showgrid="false"
     units="mm"
     inkscape:zoom="2.2571169"
     inkscape:cx="97.354567"
     inkscape:cy="79.858026"
     inkscape:window-x="0"
     inkscape:window-y="0"
     inkscape:window-maximized="0"
     inkscape:current-layer="layer3" />
  <g
     inkscape:groupmode="layer"
     id="layer4"
     inkscape:label="bg2"
     style="display:inline"
     sodipodi:insensitive="true">
    <rect
       style="display:inline;opacity:1;fill:#b5b5b5;fill-opacity:1;stroke:none;stroke-width:11.20630074;stroke-linecap:square;stroke-linejoin:miter;stroke-miterlimit:4;stroke-dasharray:none;stroke-opacity:1;paint-order:normal"
       id="rect2313"
       height="196.53543"
       x="0"
       y="-3.6972655e-05"
       width="196.53543" />
  </g>
  <g
     inkscape:groupmode="layer"
     id="layer2"
     inkscape:label="gaymarijuana"
     style="display:inline"
     sodipodi:insensitive="true">
    <g
       id="g2465"
       transform="matrix(1.1094047,0,0,1.1094047,-10.750975,-10.750951)"
       style="stroke-width:0.90138429">
      <path
         id="rect897-2"
         d="m 130.17773,126.68359 -5.78515,11.16407 v 10.18945 H 120.125 v -10.18945 l -5.78516,-11.16211 h -8.54687 l 6.98242,21.35156 h -4.625 l -1.72851,-5.41406 h -8.611333 l -1.712891,5.41406 h -4.625 l 6.982422,-21.35156 H 87.863281 c 0.07005,0.12394 0.14765,0.2437 0.214844,0.36914 l -3.798828,2.53515 c -0.249146,-0.4375 -0.519877,-0.85134 -0.810547,-1.24023 -0.29067,-0.40104 -0.606643,-0.75282 -0.949219,-1.05664 -0.27616,-0.25257 -0.583776,-0.44724 -0.910156,-0.60742 h -3.355469 c -0.005,0.002 -0.01066,0.003 -0.01563,0.006 -0.529435,0.24306 -0.997484,0.58203 -1.402343,1.01953 -0.394481,0.42534 -0.726186,0.92491 -0.996094,1.49609 -0.269908,0.57118 -0.4882,1.17817 -0.654297,1.82227 -0.166097,0.64409 -0.284754,1.30577 -0.357422,1.98632 -0.07267,0.66841 -0.109375,1.31923 -0.109375,1.95118 0,1.1059 0.09768,2.18142 0.294922,3.22656 0.197241,1.03299 0.509923,1.95725 0.935547,2.77148 0.436005,0.80209 0.991245,1.44554 1.666015,1.93164 0.685151,0.48612 1.503926,0.72852 2.458985,0.72852 0.539816,0 1.044571,-0.10938 1.511719,-0.32812 0.47753,-0.2309 0.893137,-0.53343 1.246093,-0.91016 0.352956,-0.38889 0.626978,-0.84462 0.824219,-1.36719 0.207621,-0.52257 0.3125,-1.08225 0.3125,-1.67773 v -0.21875 h -3.800781 v -4.79493 h 8.191406 v 3.84766 c 0,1.67708 -0.213048,3.15907 -0.638672,4.44727 -0.425624,1.27604 -1.012328,2.35156 -1.759765,3.22656 -0.737057,0.86285 -1.608271,1.5191 -2.615235,1.96875 -1.006964,0.44965 -2.098422,0.67383 -3.271484,0.67383 -1.152299,0 -2.194609,-0.17491 -3.128907,-0.52735 -0.934297,-0.35242 -1.765512,-0.83919 -2.492187,-1.45898 -0.726675,-0.61979 -1.353375,-1.35439 -1.882813,-2.20508 -0.529432,-0.86285 -0.966017,-1.79253 -1.308593,-2.78906 -0.342576,-0.99653 -0.597575,-2.0484 -0.763672,-3.1543 C 70.33195,137.23937 70.25,136.10916 70.25,134.9668 c 0,-1.0573 0.08195,-2.12739 0.248047,-3.20899 0.176479,-1.08159 0.441965,-2.12066 0.794922,-3.11719 0.247396,-0.68681 0.548643,-1.33024 0.873047,-1.95507 H 50.005859 c 1.061088,0.68098 3.217632,1.52807 5.136719,1.93554 0.781476,0.16592 1.517561,0.38713 1.636719,0.49219 0.119533,0.10539 -0.277222,0.4028 -0.886719,0.66406 -0.607581,0.26044 -1.105469,0.56557 -1.105469,0.67774 0,1.09524 5.000414,3.11027 7.75586,3.125 0.909411,0.005 0.922402,0.0524 0.263672,0.94336 -0.278035,0.37606 -0.443256,0.84474 -0.367188,1.04297 0.08235,0.2146 1.267788,0.70915 2.931641,1.2207 2.780209,0.85477 3.931378,1.5569 3.40625,2.08203 -0.159248,0.15925 -0.776684,-0.0102 -1.865235,-0.51172 -0.894181,-0.41216 -1.922676,-0.74804 -2.287109,-0.74804 -0.640417,0 -0.658115,0.0317 -0.511719,0.94726 0.08331,0.52098 0.09873,0.94727 0.0332,0.94727 -0.06553,0 -0.596238,-0.36277 -1.177734,-0.80664 -1.393665,-1.06381 -2.588065,-1.43636 -4.34375,-1.35157 l -0.542969,0.0274 0.601563,1.02734 c 0.331104,0.56499 0.601562,1.09052 0.601562,1.16992 0,0.0794 -0.674557,-0.17037 -1.5,-0.55664 -1.75869,-0.82299 -4.657989,-1.49826 -4.99414,-1.16211 -0.142669,0.14267 -0.02923,0.5747 0.308593,1.17578 0.591735,1.05285 0.481415,1.13897 -0.703125,0.54688 -0.873886,-0.43681 -4.95117,-0.75833 -4.951172,-0.39063 0,0.11594 0.276087,0.6171 0.613282,1.11329 0.337193,0.49621 0.572663,0.94101 0.523437,0.99023 -0.04923,0.0492 -0.565461,-0.0771 -1.146484,-0.28125 -1.381107,-0.48539 -5.068538,-0.72194 -5.304688,-0.33984 -0.09536,0.1543 0.104637,0.64332 0.451172,1.09765 l 0.625,0.81836 -1.728515,0.002 c -1.702499,0.001 -4.398034,0.33749 -4.640625,0.58008 -0.06826,0.0683 0.05656,0.3244 0.277343,0.56836 0.387281,0.42794 0.348605,0.44903 -1.085937,0.61133 -0.817795,0.0925 -1.9976,0.38803 -2.621094,0.65625 -1.072332,0.4613 -1.112318,0.51114 -0.744141,0.91797 0.446391,0.49326 0.496133,0.47289 -2.269531,0.9375 -3.294179,0.5534 -8.761718,2.08393 -8.761719,2.45312 0,0.37921 6.121025,1.76781 10.533204,2.38868 1.086825,0.15294 1.142957,0.19071 0.722656,0.49804 -0.28257,0.20662 -0.369323,0.41596 -0.230469,0.54883 0.38539,0.36878 2.748524,0.9668 3.818359,0.9668 1.056059,0 1.235559,0.16678 0.728516,0.67383 -0.234173,0.23417 -0.223352,0.33764 0.04883,0.50585 0.120407,0.0744 0.411299,0.14611 0.798828,0.21094 h 57.705078 c 0.105021,-0.39485 0.188276,-0.69652 0.330079,-1.23437 0.441091,-1.67305 0.926975,-3.16601 1.080078,-3.31641 0.21242,-0.20867 0.245542,-0.13147 0.140625,0.32031 -0.120603,0.51932 -0.307076,2.28473 -0.47461,4.23047 h 1.527344 c 0.548681,-6.19584 0.563802,-6.22352 1.416016,-3.2832 0.413677,1.42724 0.722947,2.47195 0.972657,3.2832 h 57.86914 c 0.85337,-0.12609 1.02124,-0.35377 0.64844,-0.72656 -0.49687,-0.49688 -0.31198,-0.66406 0.73828,-0.66406 1.05726,0 3.43234,-0.59584 3.81055,-0.95703 0.12783,-0.1221 0.0972,-0.34772 -0.0762,-0.55664 -0.24569,-0.29606 -0.16723,-0.37211 0.4961,-0.48047 0.43287,-0.0707 1.79782,-0.29314 3.03515,-0.49414 2.5716,-0.41775 6.97133,-1.43845 7.51758,-1.74414 0.27934,-0.15633 0.061,-0.32069 -0.91015,-0.6836 -1.43505,-0.53624 -5.4586,-1.54392 -7.79102,-1.95117 -2.88942,-0.5045 -2.71721,-0.4302 -2.24219,-0.95508 0.40324,-0.44558 0.38768,-0.47252 -0.50586,-0.84765 -0.50744,-0.21304 -1.61433,-0.50191 -2.46093,-0.64063 -1.82813,-0.29953 -1.80818,-0.28841 -1.42188,-0.75391 0.16743,-0.20166 0.25146,-0.42041 0.18555,-0.48632 -0.2312,-0.2312 -2.92523,-0.57476 -4.50781,-0.57618 -0.87916,-7.1e-4 -1.59766,-0.0629 -1.59766,-0.13671 0,-0.0738 0.27628,-0.49566 0.61328,-0.9375 l 0.61133,-0.80274 -0.63867,-0.16015 c -0.90332,-0.22673 -3.84405,0.0569 -5.07227,0.49023 -0.56903,0.20076 -1.08073,0.31772 -1.13867,0.25977 -0.058,-0.058 0.15506,-0.45878 0.47461,-0.89063 1.11396,-1.50543 1.16897,-1.44562 -1.27149,-1.33203 -1.49669,0.0697 -2.48063,0.23857 -3.01367,0.51953 -0.4354,0.2295 -0.8535,0.35549 -0.92968,0.2793 -0.0762,-0.0762 0.10058,-0.56447 0.39257,-1.08399 0.57254,-1.01871 0.5622,-1.0269 -0.92187,-0.94726 -1.00976,0.0542 -3.39084,0.82304 -4.43946,1.43359 -0.91066,0.53023 -0.99581,0.24826 -0.28124,-0.92383 0.267,-0.43799 0.42162,-0.85961 0.34374,-0.9375 -0.54613,-0.54611 -3.46902,0.33172 -5.00585,1.50391 -0.86147,0.65708 -1.0623,0.71953 -0.92969,0.28906 0.0502,-0.16281 0.15586,-0.58909 0.23437,-0.94726 0.13294,-0.60675 0.0884,-0.65058 -0.63281,-0.65039 -0.42579,1e-4 -1.44965,0.31834 -2.27539,0.70898 -1.41435,0.6691 -2.16797,0.87263 -2.16797,0.58398 0,-0.42349 0.83194,-1.27266 1.37305,-1.40039 0.35131,-0.0829 1.67737,-0.4683 2.94726,-0.85742 2.52391,-0.77336 2.74027,-1.03001 1.83594,-2.17969 -0.26049,-0.33116 -0.47268,-0.66504 -0.47265,-0.74218 0,-0.0771 0.45231,-0.14068 1.00585,-0.14258 2.73081,-0.01 7.51758,-1.97998 7.51758,-3.09375 0,-0.1298 -0.49312,-0.44789 -1.09765,-0.70703 -0.60453,-0.25914 -1.04168,-0.52865 -0.97071,-0.59961 0.071,-0.071 0.91228,-0.32637 1.86914,-0.56641 2.22739,-0.55875 4.15172,-1.31051 5.07032,-1.92969 z m -10.96093,0.002 3.04101,5.89257 3.04297,-5.89257 z m -17.0918,2.19336 c -0.0831,0.37674 -0.19318,0.7832 -0.32812,1.2207 -0.13497,0.4375 -0.25886,0.81489 -0.37305,1.13086 l -2.210939,6.79883 h 5.808589 l -2.19531,-6.79883 c -0.11418,-0.31597 -0.24004,-0.69336 -0.375,-1.13086 -0.12457,-0.4375 -0.23274,-0.84396 -0.32617,-1.2207 z"
         style="display:inline;opacity:1;fill:#004dff;fill-opacity:1;stroke:none;stroke-width:10.10118198;stroke-linecap:square;stroke-linejoin:miter;stroke-miterlimit:4;stroke-dasharray:none;stroke-opacity:1;paint-order:normal"
         inkscape:connector-curvature="0" />
      <path
         inkscape:connector-curvature="0"
         id="path881"
         d="m 38.052188,155.10218 c 1.143045,0.19122 3.139354,0.31458 4.179804,0.21461 l 1.155377,-0.111 -0.575839,0.84733 c -0.31674,0.46613 -0.575839,0.94373 -0.575839,1.06149 0,0.39171 4.304971,0.001 5.631197,-0.51109 l 1.250196,-0.48287 -0.518488,0.86769 c -0.285114,0.47735 -0.607965,0.96921 -0.717369,1.09294 -0.472897,0.53486 -0.106728,0.65916 1.636399,0.55595 1.170314,-0.0693 2.256049,-0.29587 2.996675,-0.62533 0.638795,-0.28416 1.205827,-0.4722 1.259908,-0.41812 0.05408,0.0541 -0.121295,0.52896 -0.389905,1.05548 -0.297418,0.58298 -0.396869,1.0143 -0.253925,1.10265 0.355619,0.21978 3.004957,-0.51988 4.711241,-1.31541 0.833487,-0.3886 1.559902,-0.66205 1.614662,-0.60729 0.05476,0.0548 -0.124231,0.53826 -0.397769,1.07443 -0.434271,0.85125 -0.450701,0.9927 -0.13043,1.1156 0.434072,0.16657 2.281542,-0.2672 3.23256,-0.75899 0.369305,-0.19098 1.063788,-0.6915 1.543434,-1.11237 l 0.871853,-0.76501 -0.157719,1.15446 -0.158182,1.15399 0.769171,-0.14616 c 0.423034,-0.0806 1.603136,-0.55696 2.622496,-1.05871 1.678534,-0.82622 1.839438,-0.8654 1.702078,-0.41581 -0.335353,1.09766 -0.277606,1.20962 0.586479,1.13873 0.936693,-0.0769 3.03938,-0.98118 3.954092,-1.70069 0.801747,-0.63066 1.021247,-0.60678 1.021247,0.111 0,0.49054 0.113854,0.59203 0.663256,0.59203 0.59763,0 1.231717,0.35979 1.23077,0.69841 -1.9e-4,0.0716 -0.437231,0.16035 -0.971294,0.19703 -0.943815,0.0648 -2.648048,0.77113 -2.918974,1.2095 -0.07381,0.11941 0.193063,0.33128 0.593415,0.47084 0.749942,0.26143 0.753906,0.73957 0.006,0.73957 -0.531082,0 -3.339403,1.39016 -3.339403,1.65306 0,0.10733 0.336454,0.31231 0.747435,0.45558 l 0.746972,0.2604 -1.420865,0.71043 c -0.781661,0.3906 -1.611458,0.92008 -1.844073,1.17712 -0.451785,0.49921 -0.421992,0.52799 1.039285,0.99118 0.188665,0.0598 -0.227158,0.38041 -0.954644,0.73633 -0.708765,0.34677 -1.597227,0.95261 -1.974503,1.3464 l -0.685918,0.71599 0.752521,0.15078 c 0.413806,0.0828 0.75206,0.18285 0.75206,0.22247 0,0.0396 -0.63939,0.68194 -1.420866,1.42734 -1.406097,1.34119 -1.693422,1.86299 -1.129938,2.05082 0.183209,0.0611 -0.02694,0.46771 -0.568439,1.10034 -0.990724,1.15744 -1.282996,1.92085 -0.735409,1.92085 0.273538,0 0.209438,0.19031 -0.259011,0.76963 -1.369279,1.69338 -3.973832,5.73054 -3.74596,5.8065 0.321317,0.1071 2.754518,-1.13196 5.059057,-2.57625 1.295074,-0.81165 1.853322,-1.05415 1.853322,-0.80478 0,0.19626 0.11109,0.35706 0.246525,0.35706 0.400738,0 2.009542,-0.88228 2.344056,-1.28535 0.390563,-0.47059 0.724771,-0.47838 0.724771,-0.0171 0,0.19537 0.06349,0.35522 0.141071,0.35522 0.254989,0 1.618316,-1.00565 2.523052,-1.86119 l 0.888041,-0.83993 v 0.75853 c 0,0.46359 0.119381,0.75854 0.307115,0.75854 0.389857,0 1.866347,-1.52748 2.494376,-2.58041 l 0.479635,-0.80386 0.161881,0.86306 c 0.08907,0.47478 0.23588,0.86353 0.326079,0.86353 0.315646,0 1.629967,-1.54779 2.111408,-2.48652 l 0.485648,-0.94724 0.161883,0.76964 c 0.08907,0.4233 0.249729,0.76963 0.357066,0.76963 0.316893,0 1.350267,-1.47706 1.895413,-2.70945 0.372146,-0.8413 0.560813,-1.05725 0.71367,-0.81589 0.114323,0.18052 0.209478,0.51488 0.211373,0.74281 0.01051,1.20135 1.639129,-0.74205 1.83297,-2.18726 0.147588,-1.10034 0.435034,-1.41458 0.656319,-0.71737 0.290868,0.91644 0.849313,0.49624 1.646575,-1.23956 0.742421,-1.61639 0.79833,-1.67828 0.960195,-1.05917 0.14637,0.55984 0.226632,0.61264 0.537911,0.35522 0.445839,-0.36871 1.468547,-2.51268 1.471744,-3.08502 0.0012,-0.22793 0.108876,-0.41442 0.239122,-0.41442 0.130246,0 0.236811,0.10657 0.236811,0.23681 0,0.13025 0.152094,0.23681 0.338104,0.23681 0.19433,0 0.552854,-0.57291 0.842251,-1.3464 0.657515,-1.75736 0.694744,-1.80647 1.108664,-1.46295 0.282347,0.23433 0.394112,0.22493 0.563349,-0.0476 0.263229,-0.42395 0.699795,-2.41644 0.699795,-3.19325 0,-0.63201 0.223644,-0.73608 0.655393,-0.30434 0.29739,0.29739 0.359742,0.22807 1.005985,-2.2016 z m 58.781824,0 c -0.197699,2.29609 -0.36863,4.84591 -0.36863,5.95172 0,1.13067 0.219117,3.96428 0.486573,6.29677 0.267457,2.33249 0.54907,6.29223 0.626254,8.79947 l 0.140606,4.55861 h 0.656781 c 0.634002,0 0.662876,-0.0542 0.822361,-1.54344 0.197503,-1.84425 -9.47e-4,-5.22933 -0.617927,-10.53392 -0.491697,-4.22717 -0.577432,-9.46871 -0.220622,-13.49822 9.47e-4,-0.0118 0.0017,-0.0193 0.0028,-0.031 z m 3.916168,0 c 0.60675,1.97126 0.82411,2.3991 1.05779,2.3991 0.18748,0 0.34087,-0.10657 0.34087,-0.23681 0,-0.13025 0.0928,-0.23681 0.20629,-0.23681 0.11347,0 0.27766,0.55946 0.36447,1.24325 0.28179,2.21985 0.77055,3.24878 1.20764,2.54156 0.25144,-0.40684 0.49953,-0.069 1.0416,1.41763 0.51026,1.39944 0.85034,1.6889 1.37137,1.16786 0.18908,-0.18908 0.30709,-0.0434 0.43153,0.53283 0.21767,1.00793 0.91279,2.38827 1.41069,2.80149 0.33249,0.27594 0.40259,0.24988 0.51849,-0.19334 0.15333,-0.58634 0.55225,-0.69424 0.55225,-0.14939 0,0.4941 1.14188,2.71546 1.39589,2.71546 0.11216,0 0.3607,-0.23601 0.55225,-0.5245 0.33693,-0.50745 0.35816,-0.48385 0.64799,0.72431 0.28329,1.18089 1.21672,2.64192 1.68774,2.64192 0.11867,0 0.21554,-0.26022 0.21554,-0.57815 0,-0.88716 0.38386,-0.9244 0.72569,-0.0703 0.47559,1.18831 1.71982,3.01656 2.05314,3.01656 0.16489,0 0.29971,-0.26022 0.29971,-0.57815 0,-0.8056 0.39155,-0.96555 0.57491,-0.23496 0.15568,0.62026 1.92635,2.7076 2.29688,2.7076 0.11366,0 0.20675,-0.37298 0.20675,-0.82884 0,-1.00278 0.31515,-1.07259 0.69563,-0.15402 0.36726,0.88667 2.26622,2.74029 2.59752,2.53554 0.1424,-0.088 0.25901,-0.44146 0.25901,-0.78582 v -0.62626 l 0.88804,0.83994 c 0.90474,0.85554 2.26808,1.86119 2.52306,1.86119 0.0776,0 0.14107,-0.15224 0.14107,-0.33811 0,-0.23723 0.4017,-0.0961 1.34778,0.47363 1.45267,0.87475 2.10309,1.03262 1.882,0.45651 -0.19494,-0.50804 -0.0192,-0.44983 1.22013,0.40285 0.60586,0.41686 2.1706,1.32037 3.47678,2.00781 1.30617,0.68744 2.40122,1.25202 2.43378,1.25482 0.43628,0.0375 -1.89175,-3.53865 -3.65808,-5.61917 -0.71649,-0.84397 -0.93531,-1.24326 -0.68175,-1.24326 0.20543,0 0.37325,-0.11212 0.37325,-0.24884 0,-0.44367 -0.65068,-1.51323 -1.27517,-2.09661 -0.56451,-0.52735 -0.57922,-0.59173 -0.2012,-0.86815 0.36869,-0.2696 0.26483,-0.44191 -1.07073,-1.77747 -0.81333,-0.81333 -1.47869,-1.50155 -1.47869,-1.52956 0,-0.028 0.34634,-0.12375 0.76964,-0.21275 l 0.76964,-0.16189 -0.94725,-0.84549 c -0.52098,-0.46497 -1.42573,-1.06094 -2.01058,-1.32466 -1.11628,-0.50334 -1.10925,-0.52432 0.32608,-0.98424 0.42981,-0.13773 0.43059,-0.16068 0.0227,-0.61146 -0.23316,-0.25763 -1.06174,-0.7871 -1.84129,-1.17665 l -1.41717,-0.70858 0.74975,-0.31498 c 0.70944,-0.29829 0.72698,-0.33584 0.32885,-0.69609 -0.46386,-0.41972 -2.1552,-1.18299 -3.26262,-1.47267 l -0.71044,-0.18594 0.796,-0.33671 c 0.76519,-0.32353 0.78008,-0.35426 0.38575,-0.78999 -0.46486,-0.51365 -1.52676,-0.90829 -2.66182,-0.98979 -0.42329,-0.0304 -0.76963,-0.11823 -0.76963,-0.19472 0,-0.32048 0.60648,-0.7072 1.10866,-0.7072 0.37866,0 0.58453,-0.177 0.6887,-0.59203 0.0817,-0.32561 0.17947,-0.59202 0.21738,-0.59202 0.0379,0 0.62369,0.37314 1.30154,0.8293 1.41767,0.95403 3.70762,1.71404 4.07065,1.35102 0.15553,-0.15555 0.14762,-0.39882 -0.0236,-0.71876 -0.49711,-0.92887 -0.24587,-0.93066 1.57627,-0.0115 1.00941,0.50915 2.19624,0.99349 2.6373,1.07628 l 0.80201,0.15079 -0.16651,-1.11006 -0.1665,-1.11005 1.25898,0.95927 c 1.64344,1.25238 4.18782,2.05054 4.56925,1.43335 0.0777,-0.12578 -0.0779,-0.6586 -0.34597,-1.18405 -0.26805,-0.52545 -0.42823,-0.95511 -0.35614,-0.95511 0.0721,0 0.63355,0.25159 1.24788,0.55919 1.98036,0.99159 4.88861,1.74702 5.14277,1.33576 0.0751,-0.12151 -0.083,-0.6512 -0.35105,-1.17665 -0.26804,-0.52545 -0.44529,-0.95511 -0.39407,-0.95511 0.0512,0 0.5999,0.22419 1.21921,0.49814 1.17399,0.51932 4.86049,0.93159 4.84676,0.54207 -0.004,-0.11629 -0.26974,-0.63763 -0.59064,-1.15861 -0.64112,-1.04093 -0.75645,-1.50221 -0.27612,-1.10358 0.83509,0.69307 6.32463,1.39458 6.31942,0.80756 -9.5e-4,-0.0977 -0.21345,-0.4973 -0.47223,-0.88804 -0.25877,-0.39073 -0.47048,-0.76371 -0.47039,-0.82883 7e-5,-0.0651 1.28293,-0.12853 2.85052,-0.14061 1.12179,-0.009 1.92893,-0.0478 2.46617,-0.12719 z"
         style="display:inline;fill:#750787;fill-opacity:1;stroke-width:0.90138441" />
      <path
         id="path881-3"
         d="m 28.703125,98.267578 c 0.599937,0.543587 1.151332,0.994575 1.560547,1.244141 0.770469,0.469882 0.75974,0.477413 -1.230469,0.923831 -0.684194,0.15347 -1.304171,0.37442 -1.376953,0.49218 -0.204792,0.33137 2.189448,2.53994 4.123047,3.80274 0.956884,0.62493 2.317964,1.31863 3.023437,1.54101 0.705472,0.22238 1.200969,0.47713 1.101563,0.56641 -0.0994,0.0893 -0.954947,0.3479 -1.900391,0.57422 -0.945441,0.22633 -1.768225,0.49367 -1.830078,0.59375 -0.163388,0.26437 1.984831,2.20694 3.539063,3.20117 1.48196,0.948 2.957917,1.53711 3.857421,1.53711 0.971165,0 0.205154,0.65585 -1.267578,1.08398 -1.503083,0.43696 -1.708286,0.6769 -1.123046,1.32422 0.655098,0.72459 5.417424,2.96272 7.28125,3.42188 1.449584,0.35711 1.583658,0.43607 1.205078,0.71289 -0.234516,0.17148 -0.995396,0.47735 -1.691407,0.67969 -0.696011,0.20233 -1.265625,0.45686 -1.265625,0.56445 0,0.36272 1.087812,1.37189 2.146485,1.99219 1.35811,0.79575 3.512969,1.35156 5.24414,1.35156 0.75411,0 1.371094,0.10062 1.371094,0.22461 0,0.12399 -0.478346,0.55573 -1.064453,0.95898 -0.586107,0.40325 -1.066406,0.82629 -1.066406,0.94141 0,0.17865 0.253079,0.42054 0.666015,0.68555 h 22.160157 c 0.152029,-0.29283 0.297854,-0.58993 0.466796,-0.86914 0.539817,-0.875 1.171763,-1.63521 1.898438,-2.2793 0.737056,-0.6441 1.563029,-1.14909 2.476562,-1.51367 0.923918,-0.37674 1.945251,-0.56446 3.066407,-0.56446 1.079632,0 2.029504,0.15864 2.849609,0.47461 0.830485,0.31598 1.56402,0.73525 2.197266,1.25782 0.643626,0.51042 1.198867,1.1046 1.666015,1.78515 0.394184,0.55175 0.747605,1.12412 1.078125,1.70899 h 10.589844 l 1.566402,-4.78907 h 4.20508 l 1.56641,4.78907 h 8.54687 l -2.48242,-4.78907 h 4.88867 l 2.47071,4.78907 h 6.08203 l 2.47265,-4.78907 h 4.88868 l -2.48243,4.78907 h 16.38868 c 0.36578,-0.24656 0.57617,-0.47454 0.57617,-0.65821 0,-0.0987 -0.47834,-0.52245 -1.06446,-0.94336 -0.5861,-0.42091 -1.0664,-0.86612 -1.0664,-0.98828 0,-0.12215 0.68078,-0.2207 1.51367,-0.2207 1.85354,0 4.16651,-0.68646 5.66602,-1.67969 0.98063,-0.64956 1.77564,-1.54825 1.54297,-1.74414 -0.0431,-0.0363 -0.79858,-0.30106 -1.67774,-0.58984 -0.87916,-0.28878 -1.5957,-0.59653 -1.5957,-0.6836 9.5e-4,-0.0871 0.84709,-0.39377 1.88086,-0.68164 3.15027,-0.87726 7.52549,-3.21842 7.29687,-3.90429 -0.0473,-0.14191 -0.71309,-0.48343 -1.47851,-0.75782 -1.56321,-0.56037 -1.99038,-1.08984 -0.87891,-1.08984 1.08857,0 3.92802,-1.58875 5.63867,-3.15625 1.74492,-1.59889 1.74677,-1.59187 -0.67578,-2.18555 -1.55746,-0.38167 -2.32054,-0.81445 -1.43359,-0.81445 1.31105,0 6.64921,-3.45575 7.73633,-5.00781 0.35863,-0.51199 0.35148,-0.55935 -0.1504,-0.83789 -0.29253,-0.16236 -1.03953,-0.36647 -1.6582,-0.45313 -1.24155,-0.1739 -1.39567,-0.366882 -0.5918,-0.742185 0.35957,-0.167866 0.96198,-0.6515 1.64649,-1.279297 h -35.00586 c -7.1e-4,0.0037 -0.002,0.0081 -0.002,0.01172 -0.18794,0.939663 -0.41624,0.939901 -0.71485,-0.01172 h -3.45117 c -0.64075,1.182491 -1.15777,2.700762 -1.48242,4.412112 l -0.26953,1.41992 -0.79102,-1.24219 c -0.43465,-0.68379 -0.87632,-1.24414 -0.98047,-1.24414 -0.55258,0 -2.42204,3.35528 -3.16797,5.6836 -0.55793,1.74145 -0.72957,1.86641 -1.07617,0.79101 -0.49351,-1.53129 -0.67683,-1.6202 -1.56054,-0.76367 -0.42972,0.41649 -1.15366,1.51339 -1.60743,2.4375 -0.74225,1.51161 -0.94719,2.15019 -1.44336,4.49414 l -0.14453,0.68359 -0.65234,-0.62304 c -0.87419,-0.83753 -1.32278,-0.78773 -1.79297,0.20312 -0.25814,0.54399 -0.55706,0.83008 -0.87109,0.83008 -0.6208,0 -0.55417,-0.21332 1.35742,-4.27539 0.83068,-1.76517 1.50976,-3.48417 1.50976,-3.82031 0,-0.64991 -0.4651,-0.89417 -1.71679,-0.90039 -0.35818,-0.002 -0.65039,-0.0649 -0.65039,-0.14063 0,-0.0758 0.35358,-0.5821 0.78711,-1.125 1.49204,-1.86851 2.83945,-4.8313 3.16406,-6.820312 H 79.251953 c 0.322157,2.003532 1.667304,4.971962 3.15625,6.820312 0.43734,0.5429 0.794922,1.04923 0.794922,1.125 0,0.0758 -0.292214,0.13873 -0.650391,0.14063 -1.232255,0.006 -1.716796,0.25307 -1.716796,0.87304 0,0.32093 0.678306,2.03994 1.507812,3.82032 1.908781,4.09681 1.975406,4.30273 1.378906,4.30273 -0.287643,0 -0.57031,-0.26461 -0.751953,-0.70313 -0.501559,-1.21087 -0.813102,-1.29912 -1.734375,-0.49023 l -0.824219,0.72461 -0.396484,-1.7793 c -0.648649,-2.91555 -2.859555,-6.74798 -3.726563,-6.45898 -0.161045,0.0537 -0.380539,0.51428 -0.486328,1.02344 -0.105788,0.50916 -0.276318,1.00873 -0.378906,1.11132 -0.102589,0.10259 -0.537842,-0.74831 -0.966797,-1.89062 -1.248997,-3.3261 -2.624686,-5.48943 -3.234375,-5.08399 -0.136983,0.0911 -0.501269,0.61834 -0.808594,1.17188 -0.307321,0.55355 -0.624214,1.00781 -0.705078,1.00781 -0.08086,0 -0.281304,-0.79933 -0.445312,-1.77539 -0.176954,-1.05312 -0.631969,-2.442212 -1.119141,-3.416014 -0.08825,-0.176412 -0.184762,-0.350976 -0.285156,-0.523438 h -3.410156 c -0.11886,0.372939 -0.234415,0.638495 -0.308594,0.66211 -0.08715,0.02774 -0.254064,-0.2501 -0.427734,-0.66211 z m 51.371094,28.041012 c -0.689721,0 -1.295879,0.126 -1.822266,0.37696 h 3.359375 c -0.06673,-0.0328 -0.128439,-0.0746 -0.197266,-0.10352 -0.40486,-0.18229 -0.851933,-0.27344 -1.339843,-0.27344 z"
         style="display:inline;fill:#008026;fill-opacity:1;stroke-width:0.90138441"
         inkscape:connector-curvature="0" />
      <path
         style="display:inline;opacity:1;fill:#ffed00;fill-opacity:1;stroke:none;stroke-width:10.10118198;stroke-linecap:square;stroke-linejoin:miter;stroke-miterlimit:4;stroke-dasharray:none;stroke-opacity:1;paint-order:normal"
         d="m 78.886338,69.850264 c 0.2599,1.943562 1.203539,5.040314 2.377358,7.431329 1.299986,2.648005 1.202865,2.791032 -0.993495,1.466655 -0.767028,-0.462508 -1.539623,-0.78539 -1.716879,-0.717371 -0.531024,0.203773 -0.397937,2.856849 0.232648,4.638164 0.620899,1.753949 1.450126,3.148955 2.683548,4.514207 0.46949,0.519667 0.784728,1.01402 0.700257,1.098488 -0.08447,0.08447 -0.815809,0.03066 -1.624835,-0.119793 -0.986308,-0.183422 -1.549307,-0.195324 -1.709017,-0.03561 -0.413524,0.413523 0.482067,3.249765 1.959702,6.205648 1.472337,2.945283 1.456894,3.257366 -0.115168,2.285779 -1.110903,-0.686577 -1.502269,-0.470468 -1.502269,0.830226 0,0.24723 0.02638,0.52343 0.074,0.819588 h 37.977162 c 0.0484,-0.296826 0.0754,-0.573035 0.0754,-0.819588 0,-1.306983 -0.39053,-1.516208 -1.55083,-0.831614 -0.46441,0.274004 -0.9821,0.498136 -1.15076,0.498136 -0.18947,0 0.2247,-1.063273 1.08415,-2.782527 1.51722,-3.035068 2.37538,-5.789974 1.93936,-6.226 -0.18704,-0.187036 -0.65898,-0.176149 -1.7044,0.03978 -0.79522,0.16425 -1.51703,0.227601 -1.60402,0.140607 -0.087,-0.087 0.22568,-0.583446 0.69517,-1.103113 1.99528,-2.208538 3.22513,-5.068792 3.23349,-7.519671 0.003,-0.806351 -0.10404,-1.533239 -0.23728,-1.615586 -0.13324,-0.08235 -0.92306,0.230697 -1.75527,0.696094 -0.8322,0.465397 -1.65818,0.846414 -1.83574,0.846414 -0.218,0 0.0412,-0.749861 0.79831,-2.308906 1.17962,-2.429142 2.11677,-5.501102 2.3769,-7.431329 z m 104.165802,1.451855 c -0.95011,0 -9.34599,4.587962 -13.4122,7.329112 l -1.77608,1.197005 -0.0735,-0.830226 c -0.0683,-0.771335 -0.11881,-0.818958 -0.71043,-0.673431 -1.65251,0.406486 -4.08876,1.772293 -5.5262,3.097967 l -0.62672,0.578151 -0.16373,-0.968519 c -0.09,-0.532517 -0.22246,-0.968057 -0.29417,-0.968057 -0.43428,0 -4.40674,2.925545 -5.82961,4.293123 -0.93119,0.894989 -1.70475,1.627149 -1.71919,1.627149 -0.0144,0 -0.0943,-0.64866 -0.17715,-1.441217 -0.0828,-0.792556 -0.21063,-1.538063 -0.28399,-1.65675 -0.56581,-0.915513 -5.94564,4.901992 -6.38557,6.904979 -0.23153,1.054071 -0.50995,0.830179 -0.68453,-0.550862 -0.29222,-2.311412 -0.42328,-2.782528 -0.77426,-2.782528 -0.18926,0 -1.12316,0.78925 -2.07533,1.75388 -1.71006,1.732393 -3.20259,4.148742 -3.21869,5.210766 -0.007,0.479101 -0.0185,0.48074 -0.34504,0.04949 -0.18554,-0.245059 -0.45611,-1.017654 -0.60128,-1.716878 -0.36902,-1.77765 -0.85793,-1.710211 -2.35284,0.325615 -1.28028,1.743508 -2.9952,5.02622 -3.23395,6.186684 h 35.00453 c 1.94913,-1.787643 4.58824,-4.768287 4.3588,-5.139535 -0.0731,-0.118363 -0.46742,-0.281822 -0.87601,-0.363543 l -0.74281,-0.148468 1.38941,-1.487007 c 1.36017,-1.455721 2.92822,-4.006809 2.92822,-4.763508 0,-0.281842 -0.22871,-0.381116 -0.87694,-0.381116 h -0.87694 l 0.85058,-0.888041 c 2.69133,-2.810862 9.4285,-12.442029 9.4285,-13.478332 0,-0.173865 -0.14528,-0.315901 -0.32284,-0.315901 z m -169.669449,0.04301 c -0.09553,-0.0094 -0.160638,7.1e-4 -0.191484,0.03145 -0.485533,0.485533 4.881427,8.441034 8.856357,13.127741 l 1.255283,1.480068 h -0.834851 c -0.609604,0 -0.834851,0.102726 -0.834851,0.381116 0,0.758553 1.560525,3.283859 2.89677,4.688117 0.751375,0.789615 1.365826,1.455404 1.365826,1.479606 0,0.0242 -0.318414,0.114318 -0.707658,0.199809 -0.389243,0.08549 -0.77091,0.257805 -0.848264,0.382966 -0.239472,0.387475 2.345968,3.324439 4.362501,5.151563 h 35.010545 c -0.08589,-0.203766 -0.172526,-0.429596 -0.253461,-0.689158 -0.486779,-1.5611 -2.317462,-4.783182 -3.549387,-6.247274 -1.005144,-1.194572 -1.44718,-1.042418 -1.79412,0.617467 -0.335994,1.60752 -0.640713,2.146899 -0.840402,1.488392 -0.507059,-1.672112 -1.801209,-3.699123 -3.359292,-5.262103 -0.941326,-0.944284 -1.865376,-1.716879 -2.053593,-1.716879 -0.249163,0 -0.42007,0.547331 -0.628106,2.012892 -0.157152,1.107091 -0.313099,2.012893 -0.34689,2.012893 -0.03379,0 -0.400847,-0.689281 -0.815425,-1.531409 -1.14287,-2.321497 -5.39315,-6.690217 -5.958661,-6.124706 -0.119403,0.119403 -0.285902,0.875575 -0.370017,1.680339 l -0.153094,1.463418 -1.866273,-1.75573 c -1.703336,-1.602379 -5.169324,-4.151591 -5.64461,-4.151591 -0.107887,0 -0.267977,0.426783 -0.356142,0.948631 l -0.160495,0.949093 -1.086925,-0.956955 c -1.15898,-1.020174 -3.962375,-2.50715 -5.160349,-2.737202 -0.716128,-0.137523 -0.723379,-0.129209 -0.621629,0.742348 0.115102,0.985924 0.16696,0.994965 -1.614199,-0.270114 -3.930957,-2.791986 -12.264127,-7.254578 -13.697104,-7.394788 z m 51.969351,24.348506 c -0.193096,0 -0.437305,0.600226 -0.642906,1.579972 -0.07851,0.374104 -0.170556,0.712066 -0.2604,0.993959 h 3.410633 c -0.804224,-1.381555 -1.940795,-2.573931 -2.507327,-2.573931 z m 65.826028,0.03608 c -0.18679,0.0044 -0.45119,0.154602 -0.84919,0.438008 -0.62326,0.443795 -1.20435,1.167631 -1.70948,2.099847 h 3.45133 c -0.13141,-0.418788 -0.27489,-1.00302 -0.43801,-1.804295 -0.10254,-0.503638 -0.2145,-0.739163 -0.45465,-0.73356 z"
         id="rect897-0"
         inkscape:connector-curvature="0" />
      <path
         style="display:inline;opacity:1;fill:#ff8c00;fill-opacity:1;stroke:none;stroke-width:10.10118198;stroke-linecap:square;stroke-linejoin:miter;stroke-miterlimit:4;stroke-dasharray:none;stroke-opacity:1;paint-order:normal"
         d="m 87.515596,41.432959 c -0.234646,1.3372 -0.396064,3.561768 -0.399154,5.951261 l -0.0051,3.907379 -1.51198,-1.015696 c -0.831659,-0.558525 -1.630895,-0.975971 -1.776082,-0.927818 -0.168062,0.05574 -0.288755,1.070253 -0.332092,2.791778 -0.07769,3.086148 0.360794,5.767643 1.270548,7.772206 0.319332,0.703625 0.549986,1.309816 0.512473,1.347326 -0.03751,0.03751 -0.959677,-0.511556 -2.048969,-1.220132 -1.089289,-0.708574 -2.072542,-1.288121 -2.184952,-1.288121 -0.350669,0 -0.223942,4.672582 0.175297,6.465583 0.208732,0.937435 0.68785,2.281891 1.064723,2.987888 0.376875,0.706 0.635013,1.333942 0.573528,1.395427 -0.06148,0.06149 -0.909224,-0.298668 -1.88385,-0.800162 -0.974628,-0.501492 -1.856661,-0.827427 -1.959702,-0.724308 -0.219147,0.219318 -0.24442,0.873861 -0.123957,1.774694 H 117.5938 c 0.12155,-0.901932 0.0965,-1.556364 -0.12303,-1.776081 -0.10403,-0.104114 -0.97572,0.231702 -1.93703,0.746508 -0.96132,0.514806 -1.8082,0.875817 -1.882,0.802012 -0.0738,-0.0738 0.17678,-0.71209 0.55687,-1.41809 0.38009,-0.705997 0.85921,-2.105154 1.06473,-3.109066 0.39611,-1.93496 0.51376,-6.344405 0.16928,-6.344405 -0.11241,0 -1.09566,0.579547 -2.18495,1.288121 -1.08929,0.708576 -2.01674,1.251905 -2.06146,1.207181 -0.0447,-0.04472 0.13077,-0.497592 0.39037,-1.006446 0.94891,-1.860019 1.29443,-3.798844 1.31633,-7.387389 0.0143,-2.333975 -0.0633,-3.441077 -0.2456,-3.503136 -0.1466,-0.0499 -0.94584,0.374161 -1.77608,0.942154 l -1.50967,1.032811 -0.005,-3.92403 c -0.003,-2.400431 -0.16394,-4.628959 -0.39869,-5.967449 z"
         id="rect897-9"
         inkscape:connector-curvature="0" />
      <path
         style="display:inline;fill:#e40303;fill-opacity:1;stroke-width:0.90138441"
         d="m 98.241464,13.226563 c -0.868556,0 -4.617812,15.823866 -4.617812,19.48972 0,0.513001 -0.06014,0.932905 -0.133668,0.932905 -0.07353,0 -0.413576,-0.332907 -0.755761,-0.739571 l -0.62209,-0.739109 -0.425057,0.524499 c -0.698111,0.862132 -1.613624,4.16708 -1.771918,6.397131 l -0.147083,2.075334 -0.823749,-0.558727 c -0.45296,-0.307387 -0.904843,-0.508447 -1.004597,-0.446795 -0.154069,0.09522 -0.299312,0.559686 -0.424133,1.271009 h 21.452194 c -0.12476,-0.711421 -0.26985,-1.175662 -0.42413,-1.271009 -0.0998,-0.06165 -0.5521,0.139408 -1.00506,0.446795 l -0.82375,0.558727 -0.14708,-2.075334 c -0.15829,-2.230051 -1.0738,-5.534999 -1.77192,-6.397131 l -0.42459,-0.524499 -0.62256,0.739109 c -0.34218,0.406664 -0.68222,0.739571 -0.75576,0.739571 -0.0735,0 -0.13366,-0.402339 -0.13366,-0.894053 0,-1.119426 -0.97231,-6.700118 -1.92733,-11.060271 -0.80858,-3.691573 -2.326377,-8.468301 -2.690486,-8.468301 z"
         id="path881-35"
         inkscape:connector-curvature="0" />
    </g>
  </g>
  <g
     inkscape:groupmode="layer"
     id="layer3"
     inkscape:label="text"
     style="display:inline">
    <flowRoot
       xml:space="preserve"
       id="flowRoot2319"
       style="font-style:normal;font-variant:normal;font-weight:300;font-stretch:normal;font-size:42.66666794px;line-height:25px;font-family:Overpass;-inkscape-font-specification:'Overpass, Light';font-variant-ligatures:normal;font-variant-caps:normal;font-variant-numeric:normal;font-feature-settings:normal;text-align:start;letter-spacing:0px;word-spacing:0px;writing-mode:lr-tb;text-anchor:start;fill:#ffffff;fill-opacity:1;stroke:none;stroke-width:1px;stroke-linecap:butt;stroke-linejoin:miter;stroke-opacity:1;"
       transform="translate(-15.965758,-5.240843)"><flowRegion
         id="flowRegion2321"
         style="font-style:normal;font-variant:normal;font-weight:300;font-stretch:normal;font-size:42.66666794px;font-family:Overpass;-inkscape-font-specification:'Overpass, Light';font-variant-ligatures:normal;font-variant-caps:normal;font-variant-numeric:normal;font-feature-settings:normal;text-align:start;writing-mode:lr-tb;text-anchor:start;fill:#ffffff;fill-opacity:1;"><rect
           id="rect2323"
           width="207.10176"
           height="66.893448"
           x="17.230331"
           y="19.219654"
           style="font-style:normal;font-variant:normal;font-weight:300;font-stretch:normal;font-size:42.66666794px;font-family:Overpass;-inkscape-font-specification:'Overpass, Light';font-variant-ligatures:normal;font-variant-caps:normal;font-variant-numeric:normal;font-feature-settings:normal;text-align:start;writing-mode:lr-tb;text-anchor:start;fill:#ffffff;fill-opacity:1;" /></flowRegion><flowPara
         id="flowPara2469">LEGALIZE</flowPara></flowRoot>    <flowRoot
       xml:space="preserve"
       id="flowRoot2335"
       style="font-style:normal;font-variant:normal;font-weight:300;font-stretch:normal;font-size:32px;line-height:25px;font-family:Overpass;-inkscape-font-specification:'Overpass, Light';font-variant-ligatures:normal;font-variant-caps:normal;font-variant-numeric:normal;font-feature-settings:normal;text-align:start;letter-spacing:0px;word-spacing:0px;writing-mode:lr-tb;text-anchor:start;fill:#ffffff;fill-opacity:1;stroke:none;stroke-width:0.9234798px;stroke-linecap:butt;stroke-linejoin:miter;stroke-opacity:1"
       transform="matrix(1.0828607,0,0,1.0828607,-28.840977,14.911344)"><flowRegion
         id="flowRegion2337"
         style="font-style:normal;font-variant:normal;font-weight:300;font-stretch:normal;font-size:32px;font-family:Overpass;-inkscape-font-specification:'Overpass, Light';font-variant-ligatures:normal;font-variant-caps:normal;font-variant-numeric:normal;font-feature-settings:normal;text-align:start;writing-mode:lr-tb;text-anchor:start;fill:#ffffff;fill-opacity:1;stroke-width:0.9234798px"><rect
           id="rect2339"
           width="225.96146"
           height="47.349621"
           x="28.508368"
           y="143.9046"
           style="font-style:normal;font-variant:normal;font-weight:300;font-stretch:normal;font-size:32px;font-family:Overpass;-inkscape-font-specification:'Overpass, Light';font-variant-ligatures:normal;font-variant-caps:normal;font-variant-numeric:normal;font-feature-settings:normal;text-align:start;writing-mode:lr-tb;text-anchor:start;fill:#ffffff;fill-opacity:1;stroke-width:0.9234798px" /></flowRegion><flowPara
         id="flowPara2467"
         style="stroke-width:0.9234798px">MARIJUANA</flowPara></flowRoot>  </g>
</svg>
