<?xml version="1.0" encoding="UTF-8" standalone="no"?>
<!-- Created with Inkscape (http://www.inkscape.org/) -->

<svg
   xmlns:dc="http://purl.org/dc/elements/1.1/"
   xmlns:cc="http://creativecommons.org/ns#"
   xmlns:rdf="http://www.w3.org/1999/02/22-rdf-syntax-ns#"
   xmlns:svg="http://www.w3.org/2000/svg"
   xmlns="http://www.w3.org/2000/svg"
   xmlns:sodipodi="http://sodipodi.sourceforge.net/DTD/sodipodi-0.dtd"
   xmlns:inkscape="http://www.inkscape.org/namespaces/inkscape"
   version="1.1"
   id="svg2037"
   width="52mm"
   height="52mm"
   viewBox="0 0 196.53543 196.53543"
   sodipodi:docname="gaymarijuana_v3.svg"
   inkscape:version="0.92.3 (2405546, 2018-03-11)"
   inkscape:export-filename="/home/towa/source/towa/pixel/gay.png"
   inkscape:export-xdpi="96"
   inkscape:export-ydpi="96"
   enable-background="new">
  <metadata
     id="metadata2043">
    <rdf:RDF>
      <cc:Work
         rdf:about="">
        <dc:format>image/svg+xml</dc:format>
        <dc:type
           rdf:resource="http://purl.org/dc/dcmitype/StillImage" />
        <dc:title></dc:title>
      </cc:Work>
    </rdf:RDF>
  </metadata>
  <defs
     id="defs2041" />
  <sodipodi:namedview
     pagecolor="#ffffff"
     bordercolor="#666666"
     borderopacity="1"
     objecttolerance="10"
     gridtolerance="10"
     guidetolerance="10"
     inkscape:pageopacity="0"
     inkscape:pageshadow="2"
     inkscape:window-width="1600"
     inkscape:window-height="900"
     id="namedview2039"
     showgrid="false"
     units="mm"
     inkscape:zoom="2.8284271"
     inkscape:cx="107.74981"
     inkscape:cy="75.394512"
     inkscape:window-x="0"
     inkscape:window-y="0"
     inkscape:window-maximized="0"
     inkscape:current-layer="layer3" />
  <g
     inkscape:groupmode="layer"
     id="layer4"
     inkscape:label="bg2"
     style="display:inline"
     sodipodi:insensitive="true">
    <rect
       style="display:inline;opacity:1;fill:#000000;fill-opacity:1;stroke:none;stroke-width:11.20630074;stroke-linecap:square;stroke-linejoin:miter;stroke-miterlimit:4;stroke-dasharray:none;stroke-opacity:1;paint-order:normal"
       id="rect2313"
       height="196.53543"
       x="0"
       y="-3.6972655e-05"
       width="196.53543" />
  </g>
  <g
     inkscape:groupmode="layer"
     id="layer2"
     inkscape:label="gaymarijuana"
     style="display:inline"
     sodipodi:insensitive="true">
    <g
       id="g2564"
       transform="matrix(0.72580658,0,0,0.72580658,26.944344,30.944361)"
       style="stroke-width:1.37777746">
      <path
         style="display:inline;opacity:1;fill:#004dff;fill-opacity:1;stroke:none;stroke-width:15.43978691;stroke-linecap:square;stroke-linejoin:miter;stroke-miterlimit:4;stroke-dasharray:none;stroke-opacity:1;paint-order:normal"
         d="m 50.005615,126.6848 c 1.061088,0.68098 3.21721,1.52819 5.136297,1.93566 0.781476,0.16592 1.518631,0.38752 1.637789,0.49258 0.119533,0.10539 -0.278544,0.40338 -0.888041,0.66464 -0.607581,0.26044 -1.104964,0.56496 -1.104964,0.67713 0,1.09524 5.00011,3.10961 7.755556,3.12434 0.909411,0.005 0.922831,0.053 0.264101,0.944 -0.278035,0.37606 -0.443312,0.84568 -0.367244,1.04391 0.08235,0.2146 1.268996,0.70812 2.932849,1.21967 2.780209,0.85477 3.929746,1.55807 3.404618,2.0832 -0.159248,0.15925 -0.774947,-0.01 -1.863498,-0.51155 -0.894181,-0.41216 -1.924122,-0.74929 -2.288555,-0.74929 -0.640417,0 -0.657481,0.0317 -0.511085,0.94725 0.08331,0.52098 0.09791,0.94724 0.03238,0.94724 -0.06553,0 -0.595158,-0.36323 -1.176654,-0.8071 -1.393665,-1.06381 -2.588315,-1.43535 -4.344,-1.35056 l -0.543,0.0264 0.602203,1.02726 c 0.331104,0.56499 0.601739,1.09217 0.601739,1.17157 0,0.0794 -0.675439,-0.17153 -1.500882,-0.5578 -1.75869,-0.82299 -4.658152,-1.49708 -4.994303,-1.16093 -0.142669,0.14267 -0.02932,0.57419 0.308501,1.17527 0.591735,1.05285 0.481045,1.13879 -0.703495,0.5467 -0.873886,-0.43681 -4.950365,-0.75946 -4.950365,-0.39176 0,0.11594 0.276109,0.61711 0.613304,1.11329 0.337193,0.49622 0.572799,0.94242 0.523573,0.99164 -0.04923,0.0492 -0.565104,-0.0775 -1.146127,-0.28167 -1.381107,-0.48539 -5.069894,-0.72113 -5.306044,-0.33903 -0.09536,0.1543 0.105812,0.64231 0.452347,1.09664 l 0.624401,0.81866 -1.728904,0.001 c -1.702499,0.001 -4.398345,0.33926 -4.640936,0.58185 -0.06826,0.0683 0.05673,0.32402 0.277511,0.56798 0.387281,0.42794 0.349005,0.44915 -1.085537,0.61145 -0.817795,0.0925 -1.997151,0.38764 -2.620645,0.65586 -1.072332,0.4613 -1.112374,0.51127 -0.744197,0.9181 0.446389,0.49326 0.496535,0.47246 -2.269129,0.93707 -3.294179,0.5534 -8.762003,2.08449 -8.762003,2.45368 0,0.37921 6.12128,1.76666 10.533459,2.38753 1.086825,0.15294 1.143222,0.19219 0.722921,0.49952 -0.28257,0.20662 -0.370577,0.41476 -0.231723,0.54763 0.38539,0.36878 2.749202,0.96806 3.819038,0.96806 1.056057,0 1.235977,0.16592 0.728934,0.67297 -0.234173,0.23417 -0.22454,0.33685 0.04764,0.50507 0.120407,0.0744 0.411246,0.147 0.798775,0.21183 h 57.70646 c 0.105021,-0.39485 0.187049,-0.69708 0.328852,-1.23493 0.441091,-1.67305 0.927346,-3.16495 1.080449,-3.31535 0.21242,-0.20867 0.245524,-0.1331 0.140607,0.31868 -0.120603,0.51932 -0.307014,2.28586 -0.474548,4.2316 h 1.528172 c 0.548681,-6.19584 0.563562,-6.22468 1.415776,-3.28436 0.413672,1.42724 0.722512,2.47311 0.972222,3.28436 h 57.86973 c 0.85337,-0.12609 1.02079,-0.35429 0.64799,-0.72708 -0.49687,-0.49688 -0.31207,-0.66279 0.73819,-0.66279 1.05726,0 3.43204,-0.59762 3.81025,-0.95881 0.12783,-0.1221 0.0966,-0.34749 -0.0768,-0.55641 -0.24569,-0.29606 -0.16751,-0.37174 0.49582,-0.4801 0.43287,-0.0707 1.79912,-0.29297 3.03645,-0.49397 2.5716,-0.41775 6.97111,-1.43848 7.51736,-1.74417 0.27934,-0.15633 0.0605,-0.3207 -0.9107,-0.68361 -1.43505,-0.53624 -5.45829,-1.54366 -7.79071,-1.95091 -2.88942,-0.5045 -2.7164,-0.43069 -2.24138,-0.95557 0.40324,-0.44558 0.38708,-0.47221 -0.50646,-0.84734 -0.50744,-0.21304 -1.6154,-0.50095 -2.462,-0.63967 -1.82813,-0.29953 -1.80717,-0.28841 -1.42087,-0.75391 0.16743,-0.20166 0.25046,-0.42066 0.18455,-0.48657 -0.2312,-0.2312 -2.92376,-0.57627 -4.50634,-0.57769 -0.87916,-7.1e-4 -1.59848,-0.0617 -1.59848,-0.13552 0,-0.0738 0.27584,-0.49569 0.61284,-0.93753 l 0.61284,-0.8034 -0.64012,-0.16049 c -0.90332,-0.22672 -3.84333,0.0583 -5.07155,0.49166 -0.56903,0.20076 -1.08171,0.31743 -1.13965,0.25947 -0.058,-0.058 0.15592,-0.45896 0.47547,-0.89081 1.11396,-1.50543 1.16991,-1.44658 -1.27055,-1.33299 -1.49669,0.0697 -2.48121,0.23984 -3.01425,0.5208 -0.4354,0.2295 -0.85395,0.35509 -0.93013,0.2789 -0.0762,-0.0762 0.10023,-0.5637 0.39222,-1.08322 0.57254,-1.01871 0.56365,-1.02781 -0.92042,-0.94817 -1.00976,0.0542 -3.39158,0.82326 -4.4402,1.43381 -0.91066,0.53023 -0.99671,0.24798 -0.28214,-0.92411 0.26701,-0.43799 0.42152,-0.86011 0.34365,-0.938 -0.54613,-0.54611 -3.46857,0.3324 -5.0054,1.50459 -0.86147,0.65708 -1.06182,0.71954 -0.92921,0.28907 0.0502,-0.16281 0.15507,-0.58907 0.23358,-0.94724 0.13294,-0.60675 0.0899,-0.65141 -0.63134,-0.65123 -0.42579,1e-4 -1.44987,0.31979 -2.27561,0.71043 -1.41435,0.6691 -2.16922,0.87235 -2.16922,0.5837 0,-0.42349 0.83304,-1.27232 1.37415,-1.40005 0.35131,-0.0829 1.67775,-0.46886 2.94764,-0.85798 2.52391,-0.77336 2.73962,-1.02972 1.83529,-2.1794 -0.26049,-0.33116 -0.47362,-0.6652 -0.47362,-0.74234 0,-0.0771 0.4529,-0.14195 1.00644,-0.14385 2.73081,-0.01 7.51875,-1.97865 7.51875,-3.09242 0,-0.1298 -0.49442,-0.44805 -1.09895,-0.70719 -0.60453,-0.25914 -1.04134,-0.52939 -0.97037,-0.60035 0.071,-0.071 0.91219,-0.32516 1.86905,-0.5652 2.22739,-0.55875 4.15155,-1.31046 5.07015,-1.92964 z"
         id="rect897-2"
         inkscape:connector-curvature="0" />
      <path
         inkscape:connector-curvature="0"
         id="path881"
         d="m 38.052188,155.10218 c 1.143045,0.19122 3.139354,0.31458 4.179804,0.21461 l 1.155377,-0.111 -0.575839,0.84733 c -0.31674,0.46613 -0.575839,0.94373 -0.575839,1.06149 0,0.39171 4.304971,0.001 5.631197,-0.51109 l 1.250196,-0.48287 -0.518488,0.86769 c -0.285114,0.47735 -0.607965,0.96921 -0.717369,1.09294 -0.472897,0.53486 -0.106728,0.65916 1.636399,0.55595 1.170314,-0.0693 2.256049,-0.29587 2.996675,-0.62533 0.638795,-0.28416 1.205827,-0.4722 1.259908,-0.41812 0.05408,0.0541 -0.121295,0.52896 -0.389905,1.05548 -0.297418,0.58298 -0.396869,1.0143 -0.253925,1.10265 0.355619,0.21978 3.004957,-0.51988 4.711241,-1.31541 0.833487,-0.3886 1.559902,-0.66205 1.614662,-0.60729 0.05476,0.0548 -0.124231,0.53826 -0.397769,1.07443 -0.434271,0.85125 -0.450701,0.9927 -0.13043,1.1156 0.434072,0.16657 2.281542,-0.2672 3.23256,-0.75899 0.369305,-0.19098 1.063788,-0.6915 1.543434,-1.11237 l 0.871853,-0.76501 -0.157719,1.15446 -0.158182,1.15399 0.769171,-0.14616 c 0.423034,-0.0806 1.603136,-0.55696 2.622496,-1.05871 1.678534,-0.82622 1.839438,-0.8654 1.702078,-0.41581 -0.335353,1.09766 -0.277606,1.20962 0.586479,1.13873 0.936693,-0.0769 3.03938,-0.98118 3.954092,-1.70069 0.801747,-0.63066 1.021247,-0.60678 1.021247,0.111 0,0.49054 0.113854,0.59203 0.663256,0.59203 0.59763,0 1.231717,0.35979 1.23077,0.69841 -1.9e-4,0.0716 -0.437231,0.16035 -0.971294,0.19703 -0.943815,0.0648 -2.648048,0.77113 -2.918974,1.2095 -0.07381,0.11941 0.193063,0.33128 0.593415,0.47084 0.749942,0.26143 0.753906,0.73957 0.006,0.73957 -0.531082,0 -3.339403,1.39016 -3.339403,1.65306 0,0.10733 0.336454,0.31231 0.747435,0.45558 l 0.746972,0.2604 -1.420865,0.71043 c -0.781661,0.3906 -1.611458,0.92008 -1.844073,1.17712 -0.451785,0.49921 -0.421992,0.52799 1.039285,0.99118 0.188665,0.0598 -0.227158,0.38041 -0.954644,0.73633 -0.708765,0.34677 -1.597227,0.95261 -1.974503,1.3464 l -0.685918,0.71599 0.752521,0.15078 c 0.413806,0.0828 0.75206,0.18285 0.75206,0.22247 0,0.0396 -0.63939,0.68194 -1.420866,1.42734 -1.406097,1.34119 -1.693422,1.86299 -1.129938,2.05082 0.183209,0.0611 -0.02694,0.46771 -0.568439,1.10034 -0.990724,1.15744 -1.282996,1.92085 -0.735409,1.92085 0.273538,0 0.209438,0.19031 -0.259011,0.76963 -1.369279,1.69338 -3.973832,5.73054 -3.74596,5.8065 0.321317,0.1071 2.754518,-1.13196 5.059057,-2.57625 1.295074,-0.81165 1.853322,-1.05415 1.853322,-0.80478 0,0.19626 0.11109,0.35706 0.246525,0.35706 0.400738,0 2.009542,-0.88228 2.344056,-1.28535 0.390563,-0.47059 0.724771,-0.47838 0.724771,-0.0171 0,0.19537 0.06349,0.35522 0.141071,0.35522 0.254989,0 1.618316,-1.00565 2.523052,-1.86119 l 0.888041,-0.83993 v 0.75853 c 0,0.46359 0.119381,0.75854 0.307115,0.75854 0.389857,0 1.866347,-1.52748 2.494376,-2.58041 l 0.479635,-0.80386 0.161881,0.86306 c 0.08907,0.47478 0.23588,0.86353 0.326079,0.86353 0.315646,0 1.629967,-1.54779 2.111408,-2.48652 l 0.485648,-0.94724 0.161883,0.76964 c 0.08907,0.4233 0.249729,0.76963 0.357066,0.76963 0.316893,0 1.350267,-1.47706 1.895413,-2.70945 0.372146,-0.8413 0.560813,-1.05725 0.71367,-0.81589 0.114323,0.18052 0.209478,0.51488 0.211373,0.74281 0.01051,1.20135 1.639129,-0.74205 1.83297,-2.18726 0.147588,-1.10034 0.435034,-1.41458 0.656319,-0.71737 0.290868,0.91644 0.849313,0.49624 1.646575,-1.23956 0.742421,-1.61639 0.79833,-1.67828 0.960195,-1.05917 0.14637,0.55984 0.226632,0.61264 0.537911,0.35522 0.445839,-0.36871 1.468547,-2.51268 1.471744,-3.08502 0.0012,-0.22793 0.108876,-0.41442 0.239122,-0.41442 0.130246,0 0.236811,0.10657 0.236811,0.23681 0,0.13025 0.152094,0.23681 0.338104,0.23681 0.19433,0 0.552854,-0.57291 0.842251,-1.3464 0.657515,-1.75736 0.694744,-1.80647 1.108664,-1.46295 0.282347,0.23433 0.394112,0.22493 0.563349,-0.0476 0.263229,-0.42395 0.699795,-2.41644 0.699795,-3.19325 0,-0.63201 0.223644,-0.73608 0.655393,-0.30434 0.29739,0.29739 0.359742,0.22807 1.005985,-2.2016 z m 58.781824,0 c -0.197699,2.29609 -0.36863,4.84591 -0.36863,5.95172 0,1.13067 0.219117,3.96428 0.486573,6.29677 0.267457,2.33249 0.54907,6.29223 0.626254,8.79947 l 0.140606,4.55861 h 0.656781 c 0.634002,0 0.662876,-0.0542 0.822361,-1.54344 0.197503,-1.84425 -9.47e-4,-5.22933 -0.617927,-10.53392 -0.491697,-4.22717 -0.577432,-9.46871 -0.220622,-13.49822 9.47e-4,-0.0118 0.0017,-0.0193 0.0028,-0.031 z m 3.916168,0 c 0.60675,1.97126 0.82411,2.3991 1.05779,2.3991 0.18748,0 0.34087,-0.10657 0.34087,-0.23681 0,-0.13025 0.0928,-0.23681 0.20629,-0.23681 0.11347,0 0.27766,0.55946 0.36447,1.24325 0.28179,2.21985 0.77055,3.24878 1.20764,2.54156 0.25144,-0.40684 0.49953,-0.069 1.0416,1.41763 0.51026,1.39944 0.85034,1.6889 1.37137,1.16786 0.18908,-0.18908 0.30709,-0.0434 0.43153,0.53283 0.21767,1.00793 0.91279,2.38827 1.41069,2.80149 0.33249,0.27594 0.40259,0.24988 0.51849,-0.19334 0.15333,-0.58634 0.55225,-0.69424 0.55225,-0.14939 0,0.4941 1.14188,2.71546 1.39589,2.71546 0.11216,0 0.3607,-0.23601 0.55225,-0.5245 0.33693,-0.50745 0.35816,-0.48385 0.64799,0.72431 0.28329,1.18089 1.21672,2.64192 1.68774,2.64192 0.11867,0 0.21554,-0.26022 0.21554,-0.57815 0,-0.88716 0.38386,-0.9244 0.72569,-0.0703 0.47559,1.18831 1.71982,3.01656 2.05314,3.01656 0.16489,0 0.29971,-0.26022 0.29971,-0.57815 0,-0.8056 0.39155,-0.96555 0.57491,-0.23496 0.15568,0.62026 1.92635,2.7076 2.29688,2.7076 0.11366,0 0.20675,-0.37298 0.20675,-0.82884 0,-1.00278 0.31515,-1.07259 0.69563,-0.15402 0.36726,0.88667 2.26622,2.74029 2.59752,2.53554 0.1424,-0.088 0.25901,-0.44146 0.25901,-0.78582 v -0.62626 l 0.88804,0.83994 c 0.90474,0.85554 2.26808,1.86119 2.52306,1.86119 0.0776,0 0.14107,-0.15224 0.14107,-0.33811 0,-0.23723 0.4017,-0.0961 1.34778,0.47363 1.45267,0.87475 2.10309,1.03262 1.882,0.45651 -0.19494,-0.50804 -0.0192,-0.44983 1.22013,0.40285 0.60586,0.41686 2.1706,1.32037 3.47678,2.00781 1.30617,0.68744 2.40122,1.25202 2.43378,1.25482 0.43628,0.0375 -1.89175,-3.53865 -3.65808,-5.61917 -0.71649,-0.84397 -0.93531,-1.24326 -0.68175,-1.24326 0.20543,0 0.37325,-0.11212 0.37325,-0.24884 0,-0.44367 -0.65068,-1.51323 -1.27517,-2.09661 -0.56451,-0.52735 -0.57922,-0.59173 -0.2012,-0.86815 0.36869,-0.2696 0.26483,-0.44191 -1.07073,-1.77747 -0.81333,-0.81333 -1.47869,-1.50155 -1.47869,-1.52956 0,-0.028 0.34634,-0.12375 0.76964,-0.21275 l 0.76964,-0.16189 -0.94725,-0.84549 c -0.52098,-0.46497 -1.42573,-1.06094 -2.01058,-1.32466 -1.11628,-0.50334 -1.10925,-0.52432 0.32608,-0.98424 0.42981,-0.13773 0.43059,-0.16068 0.0227,-0.61146 -0.23316,-0.25763 -1.06174,-0.7871 -1.84129,-1.17665 l -1.41717,-0.70858 0.74975,-0.31498 c 0.70944,-0.29829 0.72698,-0.33584 0.32885,-0.69609 -0.46386,-0.41972 -2.1552,-1.18299 -3.26262,-1.47267 l -0.71044,-0.18594 0.796,-0.33671 c 0.76519,-0.32353 0.78008,-0.35426 0.38575,-0.78999 -0.46486,-0.51365 -1.52676,-0.90829 -2.66182,-0.98979 -0.42329,-0.0304 -0.76963,-0.11823 -0.76963,-0.19472 0,-0.32048 0.60648,-0.7072 1.10866,-0.7072 0.37866,0 0.58453,-0.177 0.6887,-0.59203 0.0817,-0.32561 0.17947,-0.59202 0.21738,-0.59202 0.0379,0 0.62369,0.37314 1.30154,0.8293 1.41767,0.95403 3.70762,1.71404 4.07065,1.35102 0.15553,-0.15555 0.14762,-0.39882 -0.0236,-0.71876 -0.49711,-0.92887 -0.24587,-0.93066 1.57627,-0.0115 1.00941,0.50915 2.19624,0.99349 2.6373,1.07628 l 0.80201,0.15079 -0.16651,-1.11006 -0.1665,-1.11005 1.25898,0.95927 c 1.64344,1.25238 4.18782,2.05054 4.56925,1.43335 0.0777,-0.12578 -0.0779,-0.6586 -0.34597,-1.18405 -0.26805,-0.52545 -0.42823,-0.95511 -0.35614,-0.95511 0.0721,0 0.63355,0.25159 1.24788,0.55919 1.98036,0.99159 4.88861,1.74702 5.14277,1.33576 0.0751,-0.12151 -0.083,-0.6512 -0.35105,-1.17665 -0.26804,-0.52545 -0.44529,-0.95511 -0.39407,-0.95511 0.0512,0 0.5999,0.22419 1.21921,0.49814 1.17399,0.51932 4.86049,0.93159 4.84676,0.54207 -0.004,-0.11629 -0.26974,-0.63763 -0.59064,-1.15861 -0.64112,-1.04093 -0.75645,-1.50221 -0.27612,-1.10358 0.83509,0.69307 6.32463,1.39458 6.31942,0.80756 -9.5e-4,-0.0977 -0.21345,-0.4973 -0.47223,-0.88804 -0.25877,-0.39073 -0.47048,-0.76371 -0.47039,-0.82883 7e-5,-0.0651 1.28293,-0.12853 2.85052,-0.14061 1.12179,-0.009 1.92893,-0.0478 2.46617,-0.12719 z"
         style="display:inline;fill:#750787;fill-opacity:1;stroke-width:1.3777777" />
      <path
         style="display:inline;fill:#008026;fill-opacity:1;stroke-width:1.3777777"
         d="m 28.70232,98.26757 c 0.599937,0.543587 1.151794,0.993691 1.561009,1.243257 0.770469,0.469882 0.759902,0.477704 -1.230307,0.924113 -0.684194,0.15347 -1.303681,0.37575 -1.376463,0.49351 -0.204792,0.33137 2.189778,2.53913 4.123377,3.80193 0.956884,0.62493 2.317103,1.31828 3.022576,1.54066 0.705472,0.22238 1.201132,0.47731 1.101726,0.56659 -0.0994,0.0893 -0.954131,0.34766 -1.899575,0.57398 -0.945441,0.22633 -1.769731,0.49334 -1.831584,0.59342 -0.163388,0.26437 1.985443,2.20873 3.539675,3.20296 1.48196,0.948 2.958848,1.53603 3.858353,1.53603 0.971164,0 0.203572,0.65555 -1.26916,1.08369 -1.503083,0.43696 -1.706852,0.67734 -1.121612,1.32466 0.6551,0.72459 5.416258,2.96211 7.280083,3.42127 1.449586,0.35711 1.584835,0.43731 1.206255,0.71413 -0.234516,0.17148 -0.995891,0.47711 -1.691902,0.67945 -0.696011,0.20233 -1.265458,0.45576 -1.265458,0.56335 0,0.36272 1.086964,1.37224 2.145637,1.99254 1.35811,0.79575 3.514282,1.35102 5.245453,1.35102 0.75411,0 1.370912,0.10126 1.370912,0.22525 0,0.12399 -0.479542,0.55556 -1.065649,0.95881 -0.586107,0.40325 -1.065649,0.8275 -1.065649,0.94262 0,0.17865 0.252633,0.41906 0.665569,0.68407 h 96.560564 c 0.36578,-0.24656 0.57676,-0.47312 0.57676,-0.65679 0,-0.0987 -0.47954,-0.52355 -1.06565,-0.94446 -0.58611,-0.42091 -1.06565,-0.86533 -1.06565,-0.98749 0,-0.12215 0.68141,-0.22201 1.5143,-0.22201 1.85354,0 4.16545,-0.68479 5.66496,-1.67802 0.98063,-0.64956 1.77564,-1.54828 1.54297,-1.74417 -0.0431,-0.0363 -0.79794,-0.30186 -1.6771,-0.59064 -0.87916,-0.28878 -1.59663,-0.59654 -1.59663,-0.68361 9.5e-4,-0.0871 0.84777,-0.39388 1.88154,-0.68175 3.15027,-0.87726 7.52582,-3.21828 7.2972,-3.90415 -0.0473,-0.14191 -0.71234,-0.48275 -1.47776,-0.75714 -1.56321,-0.56037 -1.99072,-1.09063 -0.87925,-1.09063 1.08857,0 3.92656,-1.58921 5.63721,-3.15671 1.74492,-1.59889 1.74727,-1.59127 -0.67528,-2.18495 -1.55746,-0.38167 -2.31938,-0.81542 -1.43243,-0.81542 1.31105,0 6.64903,-3.45473 7.73613,-5.00679 0.35863,-0.51199 0.35017,-0.55955 -0.15171,-0.83809 -0.29253,-0.16236 -1.03808,-0.36569 -1.65675,-0.45235 -1.24155,-0.1739 -1.3959,-0.367966 -0.59203,-0.743269 0.35957,-0.167866 0.96068,-0.651074 1.64519,-1.278871 h -35.00453 c -7.1e-4,0.0037 -0.003,0.0084 -0.003,0.01203 -0.18794,0.939663 -0.41506,0.93959 -0.71367,-0.01203 h -3.45133 c -0.64075,1.182491 -1.15912,2.70064 -1.48377,4.41199 l -0.26965,1.42087 -0.78998,-1.24326 c -0.43465,-0.68379 -0.87547,-1.24326 -0.97962,-1.24326 -0.55258,0 -2.42373,3.35517 -3.16966,5.68346 -0.55793,1.74145 -0.7283,1.86678 -1.0749,0.79138 -0.49351,-1.53129 -0.67776,-1.62154 -1.56147,-0.76501 -0.42972,0.41649 -1.15257,1.51337 -1.60634,2.43748 -0.74225,1.51161 -0.94736,2.1513 -1.44353,4.49525 l -0.14477,0.68314 -0.65169,-0.62394 c -0.87419,-0.83753 -1.32347,-0.78642 -1.79366,0.20443 -0.25814,0.54399 -0.55782,0.82884 -0.87185,0.82884 -0.6208,0 -0.55316,-0.21301 1.35843,-4.27508 0.83068,-1.76517 1.51013,-3.48429 1.51013,-3.82043 0,-0.64991 -0.46519,-0.89384 -1.71688,-0.90006 -0.35818,-0.002 -0.65123,-0.0653 -0.65123,-0.14107 0,-0.0758 0.35461,-0.58195 0.78814,-1.12485 1.49204,-1.86851 2.83764,-4.83087 3.16225,-6.81988 H 79.252192 c 0.322157,2.00353 1.667762,4.97153 3.156708,6.81988 0.43734,0.5429 0.795073,1.04908 0.795073,1.12485 0,0.0758 -0.293053,0.13917 -0.65123,0.14107 -1.232255,0.006 -1.716879,0.25234 -1.716879,0.87231 0,0.32093 0.678776,2.04005 1.508282,3.82043 1.908781,4.09683 1.974813,4.30283 1.378313,4.30283 -0.287643,0 -0.570416,-0.26405 -0.752059,-0.70257 -0.501559,-1.21087 -0.812257,-1.2987 -1.73353,-0.48981 l -0.8256,0.72477 -0.395917,-1.77978 c -0.648649,-2.91555 -2.859989,-6.74811 -3.726996,-6.45911 -0.161046,0.0537 -0.379397,0.5144 -0.485186,1.02356 -0.105788,0.50916 -0.276678,1.00931 -0.379266,1.1119 -0.102589,0.10259 -0.537253,-0.74801 -0.966208,-1.89032 -1.248997,-3.3261 -2.626109,-5.48948 -3.235798,-5.08404 -0.136983,0.0911 -0.500239,0.61849 -0.807563,1.17203 -0.307323,0.55355 -0.624944,1.00645 -0.705808,1.00645 -0.08086,0 -0.2814,-0.79863 -0.445408,-1.77469 -0.176954,-1.05312 -0.631667,-2.441922 -1.118839,-3.415724 -0.08825,-0.176412 -0.184518,-0.351574 -0.284912,-0.524036 h -3.410633 c -0.11886,0.372939 -0.23386,0.637791 -0.308039,0.661405 -0.08715,0.02774 -0.254162,-0.249395 -0.427832,-0.661405 z"
         id="path881-3"
         inkscape:connector-curvature="0" />
      <path
         style="display:inline;opacity:1;fill:#ffed00;fill-opacity:1;stroke:none;stroke-width:15.43978691;stroke-linecap:square;stroke-linejoin:miter;stroke-miterlimit:4;stroke-dasharray:none;stroke-opacity:1;paint-order:normal"
         d="m 78.886338,69.850264 c 0.2599,1.943562 1.203539,5.040314 2.377358,7.431329 1.299986,2.648005 1.202865,2.791032 -0.993495,1.466655 -0.767028,-0.462508 -1.539623,-0.78539 -1.716879,-0.717371 -0.531024,0.203773 -0.397937,2.856849 0.232648,4.638164 0.620899,1.753949 1.450126,3.148955 2.683548,4.514207 0.46949,0.519667 0.784728,1.01402 0.700257,1.098488 -0.08447,0.08447 -0.815809,0.03066 -1.624835,-0.119793 -0.986308,-0.183422 -1.549307,-0.195324 -1.709017,-0.03561 -0.413524,0.413523 0.482067,3.249765 1.959702,6.205648 1.472337,2.945283 1.456894,3.257366 -0.115168,2.285779 -1.110903,-0.686577 -1.502269,-0.470468 -1.502269,0.830226 0,0.24723 0.02638,0.52343 0.074,0.819588 h 37.977162 c 0.0484,-0.296826 0.0754,-0.573035 0.0754,-0.819588 0,-1.306983 -0.39053,-1.516208 -1.55083,-0.831614 -0.46441,0.274004 -0.9821,0.498136 -1.15076,0.498136 -0.18947,0 0.2247,-1.063273 1.08415,-2.782527 1.51722,-3.035068 2.37538,-5.789974 1.93936,-6.226 -0.18704,-0.187036 -0.65898,-0.176149 -1.7044,0.03978 -0.79522,0.16425 -1.51703,0.227601 -1.60402,0.140607 -0.087,-0.087 0.22568,-0.583446 0.69517,-1.103113 1.99528,-2.208538 3.22513,-5.068792 3.23349,-7.519671 0.003,-0.806351 -0.10404,-1.533239 -0.23728,-1.615586 -0.13324,-0.08235 -0.92306,0.230697 -1.75527,0.696094 -0.8322,0.465397 -1.65818,0.846414 -1.83574,0.846414 -0.218,0 0.0412,-0.749861 0.79831,-2.308906 1.17962,-2.429142 2.11677,-5.501102 2.3769,-7.431329 z m 104.165802,1.451855 c -0.95011,0 -9.34599,4.587962 -13.4122,7.329112 l -1.77608,1.197005 -0.0735,-0.830226 c -0.0683,-0.771335 -0.11881,-0.818958 -0.71043,-0.673431 -1.65251,0.406486 -4.08876,1.772293 -5.5262,3.097967 l -0.62672,0.578151 -0.16373,-0.968519 c -0.09,-0.532517 -0.22246,-0.968057 -0.29417,-0.968057 -0.43428,0 -4.40674,2.925545 -5.82961,4.293123 -0.93119,0.894989 -1.70475,1.627149 -1.71919,1.627149 -0.0144,0 -0.0943,-0.64866 -0.17715,-1.441217 -0.0828,-0.792556 -0.21063,-1.538063 -0.28399,-1.65675 -0.56581,-0.915513 -5.94564,4.901992 -6.38557,6.904979 -0.23153,1.054071 -0.50995,0.830179 -0.68453,-0.550862 -0.29222,-2.311412 -0.42328,-2.782528 -0.77426,-2.782528 -0.18926,0 -1.12316,0.78925 -2.07533,1.75388 -1.71006,1.732393 -3.20259,4.148742 -3.21869,5.210766 -0.007,0.479101 -0.0185,0.48074 -0.34504,0.04949 -0.18554,-0.245059 -0.45611,-1.017654 -0.60128,-1.716878 -0.36902,-1.77765 -0.85793,-1.710211 -2.35284,0.325615 -1.28028,1.743508 -2.9952,5.02622 -3.23395,6.186684 h 35.00453 c 1.94913,-1.787643 4.58824,-4.768287 4.3588,-5.139535 -0.0731,-0.118363 -0.46742,-0.281822 -0.87601,-0.363543 l -0.74281,-0.148468 1.38941,-1.487007 c 1.36017,-1.455721 2.92822,-4.006809 2.92822,-4.763508 0,-0.281842 -0.22871,-0.381116 -0.87694,-0.381116 h -0.87694 l 0.85058,-0.888041 c 2.69133,-2.810862 9.4285,-12.442029 9.4285,-13.478332 0,-0.173865 -0.14528,-0.315901 -0.32284,-0.315901 z m -169.669449,0.04301 c -0.09553,-0.0094 -0.160638,7.1e-4 -0.191484,0.03145 -0.485533,0.485533 4.881427,8.441034 8.856357,13.127741 l 1.255283,1.480068 h -0.834851 c -0.609604,0 -0.834851,0.102726 -0.834851,0.381116 0,0.758553 1.560525,3.283859 2.89677,4.688117 0.751375,0.789615 1.365826,1.455404 1.365826,1.479606 0,0.0242 -0.318414,0.114318 -0.707658,0.199809 -0.389243,0.08549 -0.77091,0.257805 -0.848264,0.382966 -0.239472,0.387475 2.345968,3.324439 4.362501,5.151563 h 35.010545 c -0.08589,-0.203766 -0.172526,-0.429596 -0.253461,-0.689158 -0.486779,-1.5611 -2.317462,-4.783182 -3.549387,-6.247274 -1.005144,-1.194572 -1.44718,-1.042418 -1.79412,0.617467 -0.335994,1.60752 -0.640713,2.146899 -0.840402,1.488392 -0.507059,-1.672112 -1.801209,-3.699123 -3.359292,-5.262103 -0.941326,-0.944284 -1.865376,-1.716879 -2.053593,-1.716879 -0.249163,0 -0.42007,0.547331 -0.628106,2.012892 -0.157152,1.107091 -0.313099,2.012893 -0.34689,2.012893 -0.03379,0 -0.400847,-0.689281 -0.815425,-1.531409 -1.14287,-2.321497 -5.39315,-6.690217 -5.958661,-6.124706 -0.119403,0.119403 -0.285902,0.875575 -0.370017,1.680339 l -0.153094,1.463418 -1.866273,-1.75573 c -1.703336,-1.602379 -5.169324,-4.151591 -5.64461,-4.151591 -0.107887,0 -0.267977,0.426783 -0.356142,0.948631 l -0.160495,0.949093 -1.086925,-0.956955 c -1.15898,-1.020174 -3.962375,-2.50715 -5.160349,-2.737202 -0.716128,-0.137523 -0.723379,-0.129209 -0.621629,0.742348 0.115102,0.985924 0.16696,0.994965 -1.614199,-0.270114 -3.930957,-2.791986 -12.264127,-7.254578 -13.697104,-7.394788 z m 51.969351,24.348506 c -0.193096,0 -0.437305,0.600226 -0.642906,1.579972 -0.07851,0.374104 -0.170556,0.712066 -0.2604,0.993959 h 3.410633 c -0.804224,-1.381555 -1.940795,-2.573931 -2.507327,-2.573931 z m 65.826028,0.03608 c -0.18679,0.0044 -0.45119,0.154602 -0.84919,0.438008 -0.62326,0.443795 -1.20435,1.167631 -1.70948,2.099847 h 3.45133 c -0.13141,-0.418788 -0.27489,-1.00302 -0.43801,-1.804295 -0.10254,-0.503638 -0.2145,-0.739163 -0.45465,-0.73356 z"
         id="rect897-0"
         inkscape:connector-curvature="0" />
      <path
         style="display:inline;opacity:1;fill:#ff8c00;fill-opacity:1;stroke:none;stroke-width:15.43978691;stroke-linecap:square;stroke-linejoin:miter;stroke-miterlimit:4;stroke-dasharray:none;stroke-opacity:1;paint-order:normal"
         d="m 87.515596,41.432959 c -0.234646,1.3372 -0.396064,3.561768 -0.399154,5.951261 l -0.0051,3.907379 -1.51198,-1.015696 c -0.831659,-0.558525 -1.630895,-0.975971 -1.776082,-0.927818 -0.168062,0.05574 -0.288755,1.070253 -0.332092,2.791778 -0.07769,3.086148 0.360794,5.767643 1.270548,7.772206 0.319332,0.703625 0.549986,1.309816 0.512473,1.347326 -0.03751,0.03751 -0.959677,-0.511556 -2.048969,-1.220132 -1.089289,-0.708574 -2.072542,-1.288121 -2.184952,-1.288121 -0.350669,0 -0.223942,4.672582 0.175297,6.465583 0.208732,0.937435 0.68785,2.281891 1.064723,2.987888 0.376875,0.706 0.635013,1.333942 0.573528,1.395427 -0.06148,0.06149 -0.909224,-0.298668 -1.88385,-0.800162 -0.974628,-0.501492 -1.856661,-0.827427 -1.959702,-0.724308 -0.219147,0.219318 -0.24442,0.873861 -0.123957,1.774694 H 117.5938 c 0.12155,-0.901932 0.0965,-1.556364 -0.12303,-1.776081 -0.10403,-0.104114 -0.97572,0.231702 -1.93703,0.746508 -0.96132,0.514806 -1.8082,0.875817 -1.882,0.802012 -0.0738,-0.0738 0.17678,-0.71209 0.55687,-1.41809 0.38009,-0.705997 0.85921,-2.105154 1.06473,-3.109066 0.39611,-1.93496 0.51376,-6.344405 0.16928,-6.344405 -0.11241,0 -1.09566,0.579547 -2.18495,1.288121 -1.08929,0.708576 -2.01674,1.251905 -2.06146,1.207181 -0.0447,-0.04472 0.13077,-0.497592 0.39037,-1.006446 0.94891,-1.860019 1.29443,-3.798844 1.31633,-7.387389 0.0143,-2.333975 -0.0633,-3.441077 -0.2456,-3.503136 -0.1466,-0.0499 -0.94584,0.374161 -1.77608,0.942154 l -1.50967,1.032811 -0.005,-3.92403 c -0.003,-2.400431 -0.16394,-4.628959 -0.39869,-5.967449 z"
         id="rect897-9"
         inkscape:connector-curvature="0" />
      <path
         style="display:inline;fill:#e40303;fill-opacity:1;stroke-width:1.3777777"
         d="m 98.241464,13.226563 c -0.868556,0 -4.617812,15.823866 -4.617812,19.48972 0,0.513001 -0.06014,0.932905 -0.133668,0.932905 -0.07353,0 -0.413576,-0.332907 -0.755761,-0.739571 l -0.62209,-0.739109 -0.425057,0.524499 c -0.698111,0.862132 -1.613624,4.16708 -1.771918,6.397131 l -0.147083,2.075334 -0.823749,-0.558727 c -0.45296,-0.307387 -0.904843,-0.508447 -1.004597,-0.446795 -0.154069,0.09522 -0.299312,0.559686 -0.424133,1.271009 h 21.452194 c -0.12476,-0.711421 -0.26985,-1.175662 -0.42413,-1.271009 -0.0998,-0.06165 -0.5521,0.139408 -1.00506,0.446795 l -0.82375,0.558727 -0.14708,-2.075334 c -0.15829,-2.230051 -1.0738,-5.534999 -1.77192,-6.397131 l -0.42459,-0.524499 -0.62256,0.739109 c -0.34218,0.406664 -0.68222,0.739571 -0.75576,0.739571 -0.0735,0 -0.13366,-0.402339 -0.13366,-0.894053 0,-1.119426 -0.97231,-6.700118 -1.92733,-11.060271 -0.80858,-3.691573 -2.326377,-8.468301 -2.690486,-8.468301 z"
         id="path881-35"
         inkscape:connector-curvature="0" />
    </g>
  </g>
  <g
     inkscape:groupmode="layer"
     id="layer3"
     inkscape:label="text"
     style="display:inline">
    <flowRoot
       xml:space="preserve"
       id="flowRoot2335"
       style="font-style:normal;font-variant:normal;font-weight:300;font-stretch:normal;font-size:33.65848923px;line-height:25px;font-family:Overpass;-inkscape-font-specification:'Overpass, Light';font-variant-ligatures:normal;font-variant-caps:normal;font-variant-numeric:normal;font-feature-settings:normal;text-align:start;letter-spacing:0px;word-spacing:0px;writing-mode:lr-tb;text-anchor:start;fill:#ffffff;fill-opacity:1;stroke:none;stroke-width:1.05182779px;stroke-linecap:butt;stroke-linejoin:miter;stroke-opacity:1"
       transform="matrix(0.95072599,0,0,0.95072599,-17.7099,34.578086)"><flowRegion
         id="flowRegion2337"
         style="font-style:normal;font-variant:normal;font-weight:300;font-stretch:normal;font-size:33.65848923px;font-family:Overpass;-inkscape-font-specification:'Overpass, Light';font-variant-ligatures:normal;font-variant-caps:normal;font-variant-numeric:normal;font-feature-settings:normal;text-align:start;writing-mode:lr-tb;text-anchor:start;fill:#ffffff;fill-opacity:1;stroke-width:0.96371847px"><rect
           id="rect2339"
           width="235.20515"
           height="41.295467"
           x="28.508368"
           y="143.9046"
           style="font-style:normal;font-variant:normal;font-weight:300;font-stretch:normal;font-size:33.65848923px;font-family:Overpass;-inkscape-font-specification:'Overpass, Light';font-variant-ligatures:normal;font-variant-caps:normal;font-variant-numeric:normal;font-feature-settings:normal;text-align:start;writing-mode:lr-tb;text-anchor:start;fill:#ffffff;fill-opacity:1;stroke-width:1.05182779px" /></flowRegion><flowPara
         id="flowPara2554"
         style="font-style:normal;font-variant:normal;font-weight:300;font-stretch:normal;font-size:33.65848923px;font-family:Overpass;-inkscape-font-specification:'Overpass, Light';font-variant-ligatures:normal;font-variant-caps:normal;font-variant-numeric:normal;font-feature-settings:normal;text-align:start;writing-mode:lr-tb;text-anchor:start;stroke-width:1.05182779px">MARIJUANA</flowPara></flowRoot>    <flowRoot
       xml:space="preserve"
       id="flowRoot2319"
       style="font-style:normal;font-variant:normal;font-weight:300;font-stretch:normal;font-size:32.93798447px;line-height:25px;font-family:Overpass;-inkscape-font-specification:'Overpass, Light';font-variant-ligatures:normal;font-variant-caps:normal;font-variant-numeric:normal;font-feature-settings:normal;text-align:start;letter-spacing:0px;word-spacing:0px;writing-mode:lr-tb;text-anchor:start;fill:#ffffff;fill-opacity:1;stroke:none;stroke-width:1.02931201px;stroke-linecap:butt;stroke-linejoin:miter;stroke-opacity:1"
       transform="matrix(0.80337462,0,0,1.1748647,-8.1621378,-12.627937)"><flowRegion
         id="flowRegion2321"
         style="font-style:normal;font-variant:normal;font-weight:300;font-stretch:normal;font-size:32.93798447px;font-family:Overpass;-inkscape-font-specification:'Overpass, Light';font-variant-ligatures:normal;font-variant-caps:normal;font-variant-numeric:normal;font-feature-settings:normal;text-align:start;writing-mode:lr-tb;text-anchor:start;fill:#ffffff;fill-opacity:1;stroke-width:1.02931201px"><rect
           id="rect2323"
           width="191.10004"
           height="35.713779"
           x="17.230331"
           y="19.219654"
           style="font-style:normal;font-variant:normal;font-weight:300;font-stretch:normal;font-size:32.93798447px;font-family:Overpass;-inkscape-font-specification:'Overpass, Light';font-variant-ligatures:normal;font-variant-caps:normal;font-variant-numeric:normal;font-feature-settings:normal;text-align:start;writing-mode:lr-tb;text-anchor:start;fill:#ffffff;fill-opacity:1;stroke-width:1.02931201px" /></flowRegion><flowPara
         id="flowPara2556"
         style="font-style:normal;font-variant:normal;font-weight:300;font-stretch:normal;font-size:32.93798447px;font-family:Overpass;-inkscape-font-specification:'Overpass, Light';font-variant-ligatures:normal;font-variant-caps:normal;font-variant-numeric:normal;font-feature-settings:normal;text-align:start;writing-mode:lr-tb;text-anchor:start;fill:#ffffff;fill-opacity:1;stroke-width:1.02931201px">LEGALIZE</flowPara></flowRoot>    <flowRoot
       xml:space="preserve"
       id="flowRoot2319-6"
       style="font-style:normal;font-variant:normal;font-weight:bold;font-stretch:normal;font-size:34.36148453px;line-height:25px;font-family:Overpass;-inkscape-font-specification:'Overpass, Bold';font-variant-ligatures:normal;font-variant-caps:normal;font-variant-numeric:normal;font-feature-settings:normal;text-align:start;letter-spacing:0px;word-spacing:0px;writing-mode:lr-tb;text-anchor:start;display:inline;fill:#fcfcfc;fill-opacity:1;stroke:none;stroke-width:1.07379639px;stroke-linecap:butt;stroke-linejoin:miter;stroke-opacity:1"
       transform="matrix(0.76711286,0,0,1.1305685,120.84821,-10.015942)"><flowRegion
         id="flowRegion2321-5"
         style="font-style:normal;font-variant:normal;font-weight:bold;font-stretch:normal;font-size:34.36148453px;font-family:Overpass;-inkscape-font-specification:'Overpass, Bold';font-variant-ligatures:normal;font-variant-caps:normal;font-variant-numeric:normal;font-feature-settings:normal;text-align:start;writing-mode:lr-tb;text-anchor:start;fill:#fcfcfc;fill-opacity:1;stroke-width:1.07379639px"><rect
           id="rect2323-5"
           width="161.02528"
           height="56.703457"
           x="17.230331"
           y="19.219654"
           style="font-style:normal;font-variant:normal;font-weight:bold;font-stretch:normal;font-size:34.36148453px;font-family:Overpass;-inkscape-font-specification:'Overpass, Bold';font-variant-ligatures:normal;font-variant-caps:normal;font-variant-numeric:normal;font-feature-settings:normal;text-align:start;writing-mode:lr-tb;text-anchor:start;fill:#fcfcfc;fill-opacity:1;stroke-width:1.07379639px" /></flowRegion><flowPara
         style="font-style:normal;font-variant:normal;font-weight:bold;font-stretch:normal;font-size:34.36148453px;font-family:Overpass;-inkscape-font-specification:'Overpass, Bold';font-variant-ligatures:normal;font-variant-caps:normal;font-variant-numeric:normal;font-feature-settings:normal;text-align:start;writing-mode:lr-tb;text-anchor:start;fill:#fcfcfc;fill-opacity:1;stroke-width:1.07379639px"
         id="flowPara2552">GAY</flowPara></flowRoot>  </g>
  <g
     inkscape:groupmode="layer"
     id="layer5"
     inkscape:label="gay"
     style="display:inline"
     sodipodi:insensitive="true">
    <path
       style="display:inline;opacity:1;fill:#750787;fill-opacity:1;stroke:none;stroke-width:11.20629883;stroke-linecap:square;stroke-linejoin:miter;stroke-miterlimit:4;stroke-dasharray:none;stroke-opacity:1;paint-order:normal"
       d="m 177.85352,29.884766 v 4.132812 h 3.52734 v -4.132812 z"
       id="rect6423-9"
       inkscape:connector-curvature="0" />
    <path
       style="display:inline;opacity:1;fill:#e40303;fill-opacity:1;stroke:none;stroke-width:11.20629883;stroke-linecap:square;stroke-linejoin:miter;stroke-miterlimit:4;stroke-dasharray:none;stroke-opacity:1;paint-order:normal"
       d="m 171.01953,6.8164062 1.63867,3.9804688 h 4.03321 l -1.63086,-3.9804688 z m 13.1543,0 -1.63086,3.9804688 h 4.0332 l 1.63867,-3.9804688 z"
       id="rect6423-9-6-4-2-7-6-2-9"
       inkscape:connector-curvature="0" />
    <path
       style="display:inline;opacity:1;fill:#e40303;fill-opacity:1;stroke:none;stroke-width:11.20629883;stroke-linecap:square;stroke-linejoin:miter;stroke-miterlimit:4;stroke-dasharray:none;stroke-opacity:1;paint-order:normal"
       d="m 161.23828,6.8164062 -1.0332,3.9804688 h 5.54101 l -1.0332,-3.9804688 z"
       id="rect6423-9-6-4-2-7-6-2"
       inkscape:connector-curvature="0" />
    <path
       style="display:inline;opacity:1;fill:#e40303;fill-opacity:1;stroke:none;stroke-width:11.20629883;stroke-linecap:square;stroke-linejoin:miter;stroke-miterlimit:4;stroke-dasharray:none;stroke-opacity:1;paint-order:normal"
       d="m 144.87305,6.5039062 c -0.92669,10e-8 -1.7715,0.1958698 -2.53516,0.5878907 -0.75508,0.379375 -1.43766,0.9039891 -2.04687,1.5742187 -0.54412,0.6071642 -1.01623,1.3265139 -1.4336,2.1308594 h 11.90039 c -0.11075,-0.211738 -0.21832,-0.425566 -0.33593,-0.632813 -0.38613,-0.7081658 -0.84692,-1.3262961 -1.37891,-1.8574214 -0.52341,-0.543771 -1.12802,-0.9798018 -1.81445,-1.3085937 -0.67786,-0.328792 -1.46311,-0.4941406 -2.35547,-0.4941407 z"
       id="rect6423-9-6-4-2-7-6"
       inkscape:connector-curvature="0" />
    <path
       style="display:inline;opacity:1;fill:#750787;fill-opacity:1;stroke:none;stroke-width:11.20629883;stroke-linecap:square;stroke-linejoin:miter;stroke-miterlimit:4;stroke-dasharray:none;stroke-opacity:1;paint-order:normal"
       d="m 138.61914,29.884766 c 0.0373,0.08002 0.067,0.167151 0.10547,0.246093 0.4376,0.885209 0.95796,1.649985 1.55859,2.294922 0.60063,0.644938 1.28635,1.150849 2.05859,1.517578 0.77224,0.36673 1.63351,0.548829 2.58594,0.548829 0.96959,-10e-7 1.87082,-0.233276 2.70312,-0.701172 0.83231,-0.467896 1.5529,-1.150974 2.16211,-2.048828 0.36792,-0.542233 0.68346,-1.167186 0.95704,-1.857422 z"
       id="rect6423-9-3"
       inkscape:connector-curvature="0" />
    <path
       style="display:inline;opacity:1;fill:#750787;fill-opacity:1;stroke:none;stroke-width:11.20629883;stroke-linecap:square;stroke-linejoin:miter;stroke-miterlimit:4;stroke-dasharray:none;stroke-opacity:1;paint-order:normal"
       d="m 155.24609,29.884766 -1.07421,4.132812 h 3.82226 l 1.03906,-4.132812 z m 11.66211,0 1.04883,4.132812 h 3.82227 l -1.07422,-4.132812 z"
       id="rect6423-9-0"
       inkscape:connector-curvature="0" />
    <g
       id="flowRoot2319-6-7"
       style="font-style:normal;font-variant:normal;font-weight:bold;font-stretch:normal;font-size:34.36148453px;line-height:25px;font-family:Overpass;-inkscape-font-specification:'Overpass, Bold';font-variant-ligatures:normal;font-variant-caps:normal;font-variant-numeric:normal;font-feature-settings:normal;text-align:start;letter-spacing:0px;word-spacing:0px;writing-mode:lr-tb;text-anchor:start;display:inline;fill:#fcfcfc;fill-opacity:1;stroke:none;stroke-width:1.07379639px;stroke-linecap:butt;stroke-linejoin:miter;stroke-opacity:1"
       transform="matrix(0.76711286,0,0,1.1305685,121.7,-11.553671)"
       aria-label="GAY" />
    <g
       aria-label="GAY"
       transform="matrix(0.76711286,0,0,1.1305685,125.44775,-11.161712)"
       style="font-style:normal;font-variant:normal;font-weight:bold;font-stretch:normal;font-size:34.36148453px;line-height:25px;font-family:Overpass;-inkscape-font-specification:'Overpass, Bold';font-variant-ligatures:normal;font-variant-caps:normal;font-variant-numeric:normal;font-feature-settings:normal;text-align:start;letter-spacing:0px;word-spacing:0px;writing-mode:lr-tb;text-anchor:start;display:inline;fill:#fcfcfc;fill-opacity:1;stroke:none;stroke-width:1.07379639px;stroke-linecap:butt;stroke-linejoin:miter;stroke-opacity:1"
       id="flowRoot2319-6-5">
      <path
         style="font-style:normal;font-variant:normal;font-weight:bold;font-stretch:normal;font-size:34.36148453px;line-height:25px;font-family:Overpass;-inkscape-font-specification:'Overpass, Bold';font-variant-ligatures:normal;font-variant-caps:normal;font-variant-numeric:normal;font-feature-settings:normal;text-align:start;letter-spacing:0px;word-spacing:0px;writing-mode:lr-tb;text-anchor:start;display:inline;fill:#00a1ff;fill-opacity:1;stroke:none;stroke-width:1px;stroke-linecap:butt;stroke-linejoin:miter;stroke-opacity:1"
         d="m 156.48438,25.113281 -1.23829,4.771485 h 3.78711 l 0.37696,-1.5 h 7.11914 l 0.38086,1.5 h 3.79492 l -1.23828,-4.771485 z"
         id="path6689-1"
         transform="matrix(1.3035891,0,0,0.88451076,-163.53233,9.8726543)"
         inkscape:connector-curvature="0" />
    </g>
    <path
       style="display:inline;opacity:1;fill:#004dff;fill-opacity:1;stroke:none;stroke-width:11.20629883;stroke-linecap:square;stroke-linejoin:miter;stroke-miterlimit:4;stroke-dasharray:none;stroke-opacity:1;paint-order:normal"
       d="m 177.85352,25.113281 v 4.771485 h 3.52734 v -4.771485 z"
       id="rect6423-9-6-9"
       inkscape:connector-curvature="0" />
    <path
       style="display:inline;opacity:1;fill:#008026;fill-opacity:1;stroke:none;stroke-width:11.20629883;stroke-linecap:square;stroke-linejoin:miter;stroke-miterlimit:4;stroke-dasharray:none;stroke-opacity:1;paint-order:normal"
       d="m 176.58789,20.339844 1.26563,3.074218 v 1.699219 h 3.52734 v -1.699219 l 1.26562,-3.074218 z"
       id="rect6423-9-6-4"
       inkscape:connector-curvature="0" />
    <path
       style="display:inline;opacity:1;fill:#ffed00;fill-opacity:1;stroke:none;stroke-width:11.20629883;stroke-linecap:square;stroke-linejoin:miter;stroke-miterlimit:4;stroke-dasharray:none;stroke-opacity:1;paint-order:normal"
       d="m 174.62305,15.568359 1.96484,4.771485 h 6.05859 l 1.96485,-4.771485 h -4.02539 l -0.96875,2.363282 -0.96875,-2.363282 z"
       id="rect6423-9-6-4-2"
       inkscape:connector-curvature="0" />
    <path
       style="display:inline;opacity:1;fill:#004dff;fill-opacity:1;stroke:none;stroke-width:11.20629883;stroke-linecap:square;stroke-linejoin:miter;stroke-miterlimit:4;stroke-dasharray:none;stroke-opacity:1;paint-order:normal"
       d="m 137.11719,25.113281 c 0.12637,0.77623 0.27377,1.53468 0.4707,2.25586 0.24398,0.89348 0.55738,1.725417 0.91602,2.515625 H 150.75 c 0.16338,-0.428181 0.31525,-0.873906 0.44336,-1.357422 0.26777,-1.020276 0.43213,-2.15935 0.49609,-3.414063 h -3.59765 c 0,0.619647 -0.0862,1.20037 -0.25782,1.744141 -0.16302,0.543771 -0.3899,1.017208 -0.68164,1.421875 -0.29173,0.392021 -0.63459,0.708948 -1.02929,0.949219 -0.38612,0.227626 -0.80382,0.341796 -1.25,0.341796 -0.78941,0 -1.4669,-0.253931 -2.03321,-0.759765 -0.55772,-0.505833 -1.01657,-1.17514 -1.37695,-2.009766 -0.21414,-0.51573 -0.38119,-1.087432 -0.52539,-1.6875 z"
       id="rect6423-9-6-6"
       inkscape:connector-curvature="0" />
    <g
       aria-label="GAY"
       transform="matrix(0.76711286,0,0,1.1305685,125.44775,-11.161712)"
       style="font-style:normal;font-variant:normal;font-weight:bold;font-stretch:normal;font-size:34.36148453px;line-height:25px;font-family:Overpass;-inkscape-font-specification:'Overpass, Bold';font-variant-ligatures:normal;font-variant-caps:normal;font-variant-numeric:normal;font-feature-settings:normal;text-align:start;letter-spacing:0px;word-spacing:0px;writing-mode:lr-tb;text-anchor:start;display:inline;fill:#fcfcfc;fill-opacity:1;stroke:none;stroke-width:1.07379639px;stroke-linecap:butt;stroke-linejoin:miter;stroke-opacity:1"
       id="flowRoot2319-6-5-5">
      <path
         style="font-style:normal;font-variant:normal;font-weight:bold;font-stretch:normal;font-size:34.36148453px;font-family:Overpass;-inkscape-font-specification:'Overpass, Bold';font-variant-ligatures:normal;font-variant-caps:normal;font-variant-numeric:normal;font-feature-settings:normal;text-align:start;writing-mode:lr-tb;text-anchor:start;fill:#008026;fill-opacity:1;stroke-width:1px"
         d="m 136.75977,20.339844 c -6.1e-4,0.07325 -0.008,0.147564 -0.008,0.220703 0,1.188708 0.0697,2.363926 0.20703,3.527344 0.0418,0.350437 0.10287,0.685507 0.15821,1.02539 h 3.82031 c -0.0927,-0.385758 -0.1823,-0.774701 -0.24609,-1.195312 -0.16303,-1.087542 -0.2461,-2.206651 -0.2461,-3.357422 0,-0.07145 0.009,-0.148809 0.01,-0.220703 z m 8.1914,0 v 4.544922 h 3.14063 v 0.228515 h 3.59765 c 0.0201,-0.393754 0.0312,-0.798001 0.0312,-1.214843 v -3.558594 z"
         transform="matrix(1.3035891,0,0,0.88451076,-163.53233,9.8726543)"
         id="path6687-5"
         inkscape:connector-curvature="0" />
      <path
         style="font-style:normal;font-variant:normal;font-weight:bold;font-stretch:normal;font-size:34.36148453px;font-family:Overpass;-inkscape-font-specification:'Overpass, Bold';font-variant-ligatures:normal;font-variant-caps:normal;font-variant-numeric:normal;font-feature-settings:normal;text-align:start;writing-mode:lr-tb;text-anchor:start;fill:#008026;fill-opacity:1;stroke-width:1px"
         d="m 157.72461,20.339844 -1.24023,4.773437 h 12.98242 l -1.24024,-4.773437 h -3.69531 l 0.83789,3.263672 h -4.80078 l 0.84375,-3.263672 z"
         transform="matrix(1.3035891,0,0,0.88451076,-163.53233,9.8726543)"
         id="path6689-2"
         inkscape:connector-curvature="0" />
      <path
         inkscape:connector-curvature="0"
         style="font-style:normal;font-variant:normal;font-weight:bold;font-stretch:normal;font-size:34.36148453px;line-height:25px;font-family:Overpass;-inkscape-font-specification:'Overpass, Bold';font-variant-ligatures:normal;font-variant-caps:normal;font-variant-numeric:normal;font-feature-settings:normal;text-align:start;letter-spacing:0px;word-spacing:0px;writing-mode:lr-tb;text-anchor:start;display:inline;fill:#00a1ff;fill-opacity:1;stroke:none;stroke-width:1px;stroke-linecap:butt;stroke-linejoin:miter;stroke-opacity:1"
         d="m 156.48438,25.113281 -1.23829,4.771485 h 3.78711 l 0.37696,-1.5 h 7.11914 l 0.38086,1.5 h 3.79492 l -1.23828,-4.771485 z"
         id="path6689-1-3"
         transform="matrix(1.3035891,0,0,0.88451076,-163.53233,9.8726543)" />
    </g>
    <g
       aria-label="GAY"
       transform="matrix(0.76711286,0,0,1.1305685,125.44775,-11.161712)"
       style="font-style:normal;font-variant:normal;font-weight:bold;font-stretch:normal;font-size:34.36148453px;line-height:25px;font-family:Overpass;-inkscape-font-specification:'Overpass, Bold';font-variant-ligatures:normal;font-variant-caps:normal;font-variant-numeric:normal;font-feature-settings:normal;text-align:start;letter-spacing:0px;word-spacing:0px;writing-mode:lr-tb;text-anchor:start;display:inline;fill:#fcfcfc;fill-opacity:1;stroke:none;stroke-width:1.07379639px;stroke-linecap:butt;stroke-linejoin:miter;stroke-opacity:1"
       id="flowRoot2319-6-5-8">
      <path
         style="font-style:normal;font-variant:normal;font-weight:bold;font-stretch:normal;font-size:34.36148453px;font-family:Overpass;-inkscape-font-specification:'Overpass, Bold';font-variant-ligatures:normal;font-variant-caps:normal;font-variant-numeric:normal;font-feature-settings:normal;text-align:start;writing-mode:lr-tb;text-anchor:start;fill:#ffed00;fill-opacity:1;stroke-width:1px"
         d="m 137.23242,15.568359 c -0.10923,0.540014 -0.20059,1.090251 -0.27344,1.652344 -0.12816,1.05066 -0.19069,2.090522 -0.19921,3.119141 h 3.69531 c 0.006,-0.589812 0.0285,-1.190594 0.082,-1.810547 0.0601,-0.708167 0.15763,-1.396177 0.29492,-2.066406 0.0629,-0.307003 0.13786,-0.603448 0.21875,-0.894532 z m 7.71875,4.328125 v 0.44336 h 6.76953 v -0.44336 z"
         transform="matrix(1.3035891,0,0,0.88451076,-163.53233,9.8726543)"
         id="path6687-7"
         inkscape:connector-curvature="0" />
      <path
         style="font-style:normal;font-variant:normal;font-weight:bold;font-stretch:normal;font-size:34.36148453px;font-family:Overpass;-inkscape-font-specification:'Overpass, Bold';font-variant-ligatures:normal;font-variant-caps:normal;font-variant-numeric:normal;font-feature-settings:normal;text-align:start;writing-mode:lr-tb;text-anchor:start;fill:#ffed00;fill-opacity:1;stroke-width:1px"
         d="m 158.96484,15.568359 -1.24023,4.771485 h 3.6875 l 0.98437,-3.810547 c 0.077,-0.268279 0.16352,-0.608465 0.25196,-0.960938 z m 4.33789,0 c 0.0884,0.352473 0.17494,0.692659 0.25196,0.960938 l 0.97656,3.810547 h 3.69531 l -1.24023,-4.771485 z"
         transform="matrix(1.3035891,0,0,0.88451076,-163.53233,9.8726543)"
         id="path6689-8"
         inkscape:connector-curvature="0" />
      <path
         inkscape:connector-curvature="0"
         style="font-style:normal;font-variant:normal;font-weight:bold;font-stretch:normal;font-size:34.36148453px;line-height:25px;font-family:Overpass;-inkscape-font-specification:'Overpass, Bold';font-variant-ligatures:normal;font-variant-caps:normal;font-variant-numeric:normal;font-feature-settings:normal;text-align:start;letter-spacing:0px;word-spacing:0px;writing-mode:lr-tb;text-anchor:start;display:inline;fill:#00a1ff;fill-opacity:1;stroke:none;stroke-width:1px;stroke-linecap:butt;stroke-linejoin:miter;stroke-opacity:1"
         d="m 156.48438,25.113281 -1.23829,4.771485 h 3.78711 l 0.37696,-1.5 h 7.11914 l 0.38086,1.5 h 3.79492 l -1.23828,-4.771485 z"
         id="path6689-1-8"
         transform="matrix(1.3035891,0,0,0.88451076,-163.53233,9.8726543)" />
    </g>
    <g
       aria-label="GAY"
       transform="matrix(0.76711286,0,0,1.1305685,125.44686,-11.161928)"
       style="font-style:normal;font-variant:normal;font-weight:bold;font-stretch:normal;font-size:34.36148453px;line-height:25px;font-family:Overpass;-inkscape-font-specification:'Overpass, Bold';font-variant-ligatures:normal;font-variant-caps:normal;font-variant-numeric:normal;font-feature-settings:normal;text-align:start;letter-spacing:0px;word-spacing:0px;writing-mode:lr-tb;text-anchor:start;display:inline;fill:#fcfcfc;fill-opacity:1;stroke:none;stroke-width:1.07379639px;stroke-linecap:butt;stroke-linejoin:miter;stroke-opacity:1"
       id="flowRoot2319-6-5-4">
      <path
         style="font-style:normal;font-variant:normal;font-weight:bold;font-stretch:normal;font-size:34.36148453px;font-family:Overpass;-inkscape-font-specification:'Overpass, Bold';font-variant-ligatures:normal;font-variant-caps:normal;font-variant-numeric:normal;font-feature-settings:normal;text-align:start;writing-mode:lr-tb;text-anchor:start;fill:#ff8c00;fill-opacity:1;stroke-width:1px"
         d="m 138.85742,10.796875 c -0.0434,0.0836 -0.0947,0.154504 -0.13672,0.240234 -0.4376,0.910501 -0.8071,1.88985 -1.10742,2.939453 -0.14603,0.519076 -0.27333,1.050541 -0.38281,1.591797 h 3.82031 c 0.0957,-0.34439 0.19941,-0.679846 0.32031,-1.001953 0.2231,-0.594354 0.49817,-1.114036 0.82422,-1.55664 0.33464,-0.455251 0.7206,-0.809584 1.15821,-1.0625 0.4376,-0.265563 0.94464,-0.398438 1.51953,-0.398438 0.40328,0 0.77278,0.09547 1.10742,0.285156 0.33464,0.177042 0.63753,0.424089 0.91211,0.740235 0.28315,0.316146 0.5449,0.682297 0.78515,1.099609 0.24026,0.404667 0.464,0.835765 0.66993,1.291016 l 3.14062,-2.636719 c -0.22288,-0.523785 -0.47148,-1.032394 -0.73242,-1.53125 z"
         transform="matrix(1.3035891,0,0,0.88451076,-163.53117,9.8728454)"
         id="path6687-6"
         inkscape:connector-curvature="0" />
      <path
         style="font-style:normal;font-variant:normal;font-weight:bold;font-stretch:normal;font-size:34.36148453px;font-family:Overpass;-inkscape-font-specification:'Overpass, Bold';font-variant-ligatures:normal;font-variant-caps:normal;font-variant-numeric:normal;font-feature-settings:normal;text-align:start;writing-mode:lr-tb;text-anchor:start;fill:#ff8c00;fill-opacity:1;stroke-width:1px"
         d="m 172.65625,10.796875 1.9668,4.771484 h 4.02343 l -1.95507,-4.771484 z m 9.88477,0 -1.95704,4.771484 h 4.0254 l 1.96484,-4.771484 z"
         transform="matrix(1.3035891,0,0,0.88451076,-163.53117,9.8728454)"
         id="path6691-6"
         inkscape:connector-curvature="0" />
      <path
         style="font-style:normal;font-variant:normal;font-weight:bold;font-stretch:normal;font-size:34.36148453px;font-family:Overpass;-inkscape-font-specification:'Overpass, Bold';font-variant-ligatures:normal;font-variant-caps:normal;font-variant-numeric:normal;font-feature-settings:normal;text-align:start;writing-mode:lr-tb;text-anchor:start;fill:#ff8c00;fill-opacity:1;stroke-width:1px"
         d="m 160.20508,10.796875 -1.24024,4.771484 h 3.6836 c 0.02,-0.07962 0.0361,-0.13288 0.0566,-0.216797 0.11154,-0.45525 0.20089,-0.87751 0.26953,-1.269531 0.0772,0.392021 0.16852,0.814281 0.27148,1.269531 0.0206,0.08392 0.0367,0.137177 0.0566,0.216797 h 3.6836 l -1.24024,-4.771484 z"
         transform="matrix(1.3035891,0,0,0.88451076,-163.53117,9.8728454)"
         id="path6689-3"
         inkscape:connector-curvature="0" />
      <path
         inkscape:connector-curvature="0"
         style="font-style:normal;font-variant:normal;font-weight:bold;font-stretch:normal;font-size:34.36148453px;line-height:25px;font-family:Overpass;-inkscape-font-specification:'Overpass, Bold';font-variant-ligatures:normal;font-variant-caps:normal;font-variant-numeric:normal;font-feature-settings:normal;text-align:start;letter-spacing:0px;word-spacing:0px;writing-mode:lr-tb;text-anchor:start;display:inline;fill:#004dff;fill-opacity:1;stroke:none;stroke-width:1px;stroke-linecap:butt;stroke-linejoin:miter;stroke-opacity:1"
         d="m 156.48438,25.113281 -1.23829,4.771485 h 3.78711 l 0.37696,-1.5 h 7.11914 l 0.38086,1.5 h 3.79492 l -1.23828,-4.771485 z"
         id="path6689-1-1"
         transform="matrix(1.3035891,0,0,0.88451076,-163.53233,9.8726543)" />
    </g>
  </g>
</svg>
