<?xml version="1.0" encoding="UTF-8" standalone="no"?>
<!-- Created with Inkscape (http://www.inkscape.org/) -->

<svg
   xmlns:dc="http://purl.org/dc/elements/1.1/"
   xmlns:cc="http://creativecommons.org/ns#"
   xmlns:rdf="http://www.w3.org/1999/02/22-rdf-syntax-ns#"
   xmlns:svg="http://www.w3.org/2000/svg"
   xmlns="http://www.w3.org/2000/svg"
   xmlns:sodipodi="http://sodipodi.sourceforge.net/DTD/sodipodi-0.dtd"
   xmlns:inkscape="http://www.inkscape.org/namespaces/inkscape"
   width="196mm"
   height="42mm"
   viewBox="0 0 196 42"
   version="1.1"
   id="svg899"
   inkscape:version="0.92.3 (2405546, 2018-03-11)"
   sodipodi:docname="pride.svg">
  <defs
     id="defs893" />
  <sodipodi:namedview
     id="base"
     pagecolor="#ffffff"
     bordercolor="#666666"
     borderopacity="1.0"
     inkscape:pageopacity="0.0"
     inkscape:pageshadow="2"
     inkscape:zoom="0.98994949"
     inkscape:cx="375.24103"
     inkscape:cy="75.479046"
     inkscape:document-units="mm"
     inkscape:current-layer="layer3"
     showgrid="false"
     inkscape:window-width="1600"
     inkscape:window-height="900"
     inkscape:window-x="0"
     inkscape:window-y="0"
     inkscape:window-maximized="0" />
  <metadata
     id="metadata896">
    <rdf:RDF>
      <cc:Work
         rdf:about="">
        <dc:format>image/svg+xml</dc:format>
        <dc:type
           rdf:resource="http://purl.org/dc/dcmitype/StillImage" />
        <dc:title></dc:title>
      </cc:Work>
    </rdf:RDF>
  </metadata>
  <g
     inkscape:groupmode="layer"
     id="layer2"
     inkscape:label="bg"
     style="display:inline">
    <rect
       style="opacity:1;fill:#154889;fill-opacity:1;stroke:none;stroke-width:1.32291639;stroke-linecap:butt;stroke-linejoin:miter;stroke-miterlimit:4;stroke-dasharray:none;stroke-opacity:1;paint-order:normal"
       id="rect3177"
       width="201.99998"
       height="48"
       x="-3"
       y="-3" />
  </g>
  <g
     inkscape:groupmode="layer"
     id="layer3"
     inkscape:label="bg 1">
    <rect
       style="opacity:1;fill:#750787;fill-opacity:1;stroke:none;stroke-width:0.26499999;stroke-linecap:butt;stroke-linejoin:round;stroke-miterlimit:4;stroke-dasharray:none;stroke-opacity:1;paint-order:normal"
       id="rect3303"
       width="201.99998"
       height="10"
       x="-3"
       y="35" />
    <rect
       style="opacity:1;fill:#004dff;fill-opacity:1;stroke:none;stroke-width:0.26499999;stroke-linecap:butt;stroke-linejoin:round;stroke-miterlimit:4;stroke-dasharray:none;stroke-opacity:1;paint-order:normal"
       id="rect3303-9"
       width="201.99998"
       height="7"
       x="-3"
       y="28" />
    <rect
       style="opacity:1;fill:#008026;fill-opacity:1;stroke:none;stroke-width:0.26499999;stroke-linecap:butt;stroke-linejoin:round;stroke-miterlimit:4;stroke-dasharray:none;stroke-opacity:1;paint-order:normal"
       id="rect3303-9-5"
       width="201.99998"
       height="7"
       x="-3"
       y="21" />
    <rect
       style="opacity:1;fill:#ffed00;fill-opacity:1;stroke:none;stroke-width:0.26499999;stroke-linecap:butt;stroke-linejoin:round;stroke-miterlimit:4;stroke-dasharray:none;stroke-opacity:1;paint-order:normal"
       id="rect3303-9-5-6"
       width="201.99998"
       height="7"
       x="-3"
       y="14" />
    <rect
       style="opacity:1;fill:#ff8c00;fill-opacity:1;stroke:none;stroke-width:0.26499999;stroke-linecap:butt;stroke-linejoin:round;stroke-miterlimit:4;stroke-dasharray:none;stroke-opacity:1;paint-order:normal"
       id="rect3303-9-5-6-1"
       width="201.99998"
       height="7"
       x="-3"
       y="7" />
    <rect
       style="opacity:1;fill:#e40303;fill-opacity:1;stroke:none;stroke-width:0.26499999;stroke-linecap:butt;stroke-linejoin:round;stroke-miterlimit:4;stroke-dasharray:none;stroke-opacity:1;paint-order:normal"
       id="rect3303-9-5-6-1-1"
       width="201.99998"
       height="10"
       x="-3"
       y="-3" />
  </g>
  <g
     inkscape:label="Layer 1"
     inkscape:groupmode="layer"
     id="layer1"
     transform="translate(0,-255)"
     sodipodi:insensitive="true">
    <g
       id="g3216"
       transform="translate(-0.13094898,-0.56078604)"
       style="fill:#ffffff;fill-opacity:1">
      <g
         style="fill:#ffffff;fill-opacity:1;stroke-width:1.56908822"
         transform="matrix(0.63731278,0,0,0.63731278,82.845057,72.904813)"
         id="g1523">
        <path
           inkscape:connector-curvature="0"
           style="fill:#ffffff;fill-opacity:1;stroke-width:0.41515458"
           d="m 8.9264402,343.42192 c 0.918194,-2.22 0.922285,-4.75045 1.2819058,-6.68077 0.412464,-2.19419 0.826571,-5.25943 0.920238,-6.81166 0.954035,-6.49224 3.443045,-6.36021 8.02531,-6.30406 3.811167,0.0505 7.223797,0.18531 7.583625,0.29952 1.040543,0.33026 1.206598,2.65324 0.249545,3.49097 -0.680906,0.59601 -1.214525,0.64417 -5.395373,0.48698 -2.551854,-0.0959 -4.790276,-0.0761 -4.974272,0.0441 -0.559734,0.36571 -1.145718,1.70935 -1.145718,2.62708 0,1.19302 0.692389,1.41072 4.667131,1.46748 1.887826,0.027 3.550401,0.16701 3.69461,0.31122 0.144211,0.14421 0.29713,0.80816 0.339818,1.47545 0.113736,1.77787 -0.657763,2.05801 -4.849337,1.76084 -4.779575,-0.33885 -4.758783,-0.35573 -5.071799,4.1176 -0.217283,4.95496 -1.25888,6.19385 -2.869808,8.56724 -3.8900288,3.61389 -2.9323918,-3.66055 -2.4558758,-4.85202 z"
           id="path1511" />
        <path
           inkscape:connector-curvature="0"
           style="fill:#ffffff;fill-opacity:1;stroke-width:0.41515458"
           d="m 51.513603,343.02084 c 0.32095,-1.74116 0.974455,-1.47924 1.747189,-0.92051 0.208111,0 0.846561,0.33337 1.41878,0.74083 4.685462,2.61339 10.594848,-1.51833 9.623428,-6.29523 -0.444106,-1.78137 -1.934641,-2.69699 -5.322112,-3.26929 -3.802121,-0.64236 -6.911012,-2.5856 -7.352517,-4.59576 -0.342508,-1.55943 1.269074,-4.39387 3.000436,-5.27715 2.937634,-1.49867 8.45689,-1.20764 10.553427,0.55648 1.260459,1.06061 2.199397,4.26178 1.398768,4.7689 -0.690647,0.43746 -0.776886,0.41504 -2.109216,-0.54814 -1.966616,-1.42174 -3.553791,-2.00214 -5.657652,-2.0689 -2.247445,-0.0713 -3.478543,0.67193 -3.478543,2.10008 2.580418,6.95639 12.688858,-1.59814 11.819628,9.9744 -0.485066,5.90366 -3.144724,9.29896 -7.610845,9.71598 -2.811132,0.56022 -8.070131,-1.93735 -8.030771,-4.88169 z"
           id="path1509" />
        <path
           style="fill:#ffffff;fill-opacity:1;stroke-width:1.5690881"
           d="m 146.21484,260.96484 c -5.45191,0.0141 -12.60661,0.84531 -16.61718,2.22266 -4.80814,1.65128 -5.18243,2.17504 -6.10938,8.54102 -0.54311,3.7299 -2.57787,11.13635 -4.52148,16.45898 -1.94362,5.3226 -3.96373,13.87641 -4.49024,19.00977 -0.72253,7.04443 -2.47596,12.5236 -7.14648,22.34179 -6.8499,14.39962 -7.1539,15.83636 -4.02149,18.96875 4.04921,4.04924 7.46971,1.93415 12.90235,-7.97656 7.87475,-15.78603 6.5602,-16.43142 14.33594,-25.08594 l 29.0996,-1.58008 c 12.40823,0.37697 -2.40701,18.88834 -2.5371,24.42969 3.38055,6.34126 8.52179,8.02087 13.875,4.76367 1.81203,-1.10256 8.45333,-23.77195 11.44921,-39.86132 0.8193,-4.39998 2.33467,-10.70001 3.36914,-14.00196 1.22899,-3.92281 1.60348,-8.69433 1.08008,-13.76562 -1.09603,-10.61945 -3.56403,-12.15614 -19.63672,-12.22266 -6.65723,-0.0275 -13.00351,-0.62356 -14.10351,-1.32617 -0.99792,-0.63738 -3.65659,-0.92445 -6.92774,-0.91602 z m -0.0352,11.01368 c 1.51191,-0.0166 3.77129,0.52741 8.03906,1.62109 4.90806,1.25779 10.20388,2.28295 11.76953,2.27539 4.76647,-0.0188 7.37984,5.60014 6.35938,13.67578 -1.42353,11.2653 -3.65599,15.31517 -9.79493,17.77149 l -28.81445,-0.0176 c -2.55546,-1.87484 -2.53806,-2.06922 0.99219,-12.33789 1.97299,-5.73899 3.95629,-12.32354 4.4082,-14.63086 0.4519,-2.30729 2.02124,-5.28171 3.48828,-6.60938 1.27567,-1.15442 2.04082,-1.73148 3.55274,-1.74804 z"
           transform="matrix(0.26458333,0,0,0.26458333,0,255)"
           id="path1505"
           inkscape:connector-curvature="0"
           sodipodi:nodetypes="ccsccscccccccccccccccccccccc" />
        <path
           inkscape:connector-curvature="0"
           style="fill:#ffffff;fill-opacity:1;stroke-width:0.41515458"
           d="m 89.910399,341.74753 c 0.429538,-1.26118 0.922179,-2.44387 1.094753,-2.62819 0.398357,-2.83797 2.0789,-5.42177 2.266535,-8.30792 0.253018,-4.67262 1.180859,-6.70072 2.809737,-6.1416 3.181721,0.80893 4.302686,-1.57843 3.880289,2.15987 -1.176763,4.08157 -2.574861,8.52545 -3.886192,12.27201 -0.480134,1.35819 -0.873662,3.22909 -0.874503,4.15755 -7.94e-4,0.95741 -0.248148,2.06448 -0.571278,2.55764 -5.995871,1.848 -5.865635,-0.71661 -4.719341,-4.06936 z"
           id="path1501" />
        <path
           inkscape:connector-curvature="0"
           style="fill:#ffffff;fill-opacity:1;stroke-width:0.41515458"
           d="m 113.01475,346.32399 c -3.36895,-0.43309 -5.66444,-1.29013 -6.6763,-2.49267 -1.15022,-1.36696 -1.14821,-2.01008 0.008,-2.44954 2.62072,-2.46163 4.68219,-0.96561 7.93064,0.41113 3.05885,1.31587 6.21155,0.44563 7.23181,-1.99622 0.82041,-3.0994 -3.41773,-5.29964 -5.74853,-4.92647 -6.67494,-0.56118 -12.5561,-3.87406 -7.26589,-9.94285 1.39247,-1.54448 3.41446,-1.98611 8.29955,-1.81273 2.83028,0.10045 4.30256,0.31248 5.08978,0.73299 1.44809,0.77354 4.42762,3.76215 4.2597,4.2727 -0.29138,0.88594 -1.69595,0.60132 -3.14239,-0.63678 -1.70803,-1.46201 -3.21795,-1.96062 -5.92909,-1.95795 -3.01934,0.003 -4.50565,0.36269 -5.46573,1.32276 -1.13935,1.13935 -1.11588,1.84527 0.10006,3.01021 1.03485,0.99145 3.51512,1.65546 6.20757,1.66185 1.48402,0.004 4.80509,1.33413 5.97705,2.39474 0.65487,0.59265 1.46274,2.22383 2.02466,4.08803 0.52118,1.72901 -0.79218,4.17186 -3.22695,6.0021 -2.72036,2.04493 -5.89113,2.80494 -9.6736,2.3187 z"
           id="path1499" />
        <path
           inkscape:connector-curvature="0"
           style="fill:#ffffff;fill-opacity:1;stroke-width:0.41515458"
           d="m 74.351645,345.87152 c -1.652559,-0.61973 -4.137949,-2.6295 -4.77502,-3.86124 -0.623856,-1.20619 -0.173689,-4.38484 1.186315,-8.37664 1.936842,-5.68489 2.844302,-7.14833 5.636839,-9.09037 4.688216,-1.78359 7.254047,-0.69719 9.356939,0.60003 1.846242,1.17085 2.387206,1.97039 2.387206,3.52826 0,1.57249 -0.967846,1.40393 -2.905112,-0.50597 -1.439812,-1.41948 -1.782537,-1.5875 -3.238068,-1.5875 -2.106642,0 -3.659791,1.01414 -4.868392,3.17884 -0.731763,1.31065 -0.887857,1.96788 -0.736102,3.09932 0.144047,1.07392 0.01119,1.73092 -0.526926,2.60597 -0.395743,0.64352 -0.885436,2.04316 -1.088218,3.11031 -0.352663,1.85596 -0.330433,1.97048 0.511577,2.63528 0.484151,0.38226 1.860188,0.89489 3.057864,1.1392 2.145154,0.43757 2.205879,0.42822 4.076155,-0.62729 2.398598,-1.35369 3.31453,-1.26478 3.643664,0.35368 0.312402,1.53617 -0.435819,2.75043 -2.143688,3.47893 -1.727989,0.73708 -7.911069,0.94319 -9.575033,0.31919 z"
           id="path1497" />
        <path
           inkscape:connector-curvature="0"
           style="fill:#ffffff;fill-opacity:1;stroke-width:0.41515458"
           d="m 152.0066,345.29606 c -0.084,-0.24254 -0.19812,-0.9032 -0.25351,-1.46815 -0.10007,-1.02059 -0.0978,-1.87086 2.64631,-1.49834 3.84006,0.52129 11.90076,-1.54972 11.47857,-4.62992 -0.28054,-2.04673 -0.93567,-2.58201 -3.48787,-2.84978 -1.15671,-0.12135 -2.37449,-0.46342 -2.70616,-0.76015 -5.42784,-1.98098 -6.55113,-5.91294 -2.94184,-9.67799 1.62682,-1.573 4.58669,-3.06401 6.64163,-3.34567 1.90536,-0.26116 5.28896,0.40451 7.06305,1.38955 3.019,1.67627 3.82194,5.88636 1.12263,5.88636 -0.26286,0 -0.92456,-0.83343 -1.47045,-1.85208 -0.90426,-1.68737 -1.1494,-1.89226 -2.75642,-2.30391 -2.84289,-0.72823 -6.30395,0.0489 -7.76745,1.74394 -3.53371,3.42902 -0.99382,4.31567 3.00741,5.0376 5.64677,0.9858 7.5233,2.65037 7.5426,6.69063 0.0116,2.42447 -0.79094,4.31384 -2.5365,5.97167 -1.79903,1.70862 -15.17374,2.84443 -15.582,1.66622 z"
           id="path1495" />
        <path
           inkscape:connector-curvature="0"
           style="fill:#ffffff;fill-opacity:1;stroke-width:0.41515458"
           d="m 132.73055,344.30517 c -1.50021,-3.87351 0.90515,-7.79398 0.86963,-11.02431 -0.12356,-4.09582 -0.11733,-4.38919 0.12757,-6.00513 0.30404,-2.00619 -0.0397,-2.56948 -1.53755,-2.51962 -3.9098,0.13016 -4.03689,0.0677 -2.59126,-1.27271 1.15623,-1.07212 0.25308,-1.01358 12.92049,-0.83743 6.89268,0.0958 6.93101,0.10072 7.76111,0.98585 l 0.83422,0.88954 -0.83283,0.67558 c -0.72681,0.58958 -1.42695,0.67559 -5.49966,0.67559 h -4.66683 c 0.22095,2.16786 -1.84418,5.61899 -1.8822,7.39864 -0.84354,2.77696 -0.19327,10.52465 -2.12301,10.59303 -1.02812,0.28471 -2.87146,1.75509 -3.37968,0.44097 z"
           id="path1493" />
      </g>
      <g
         style="fill:#ffffff;fill-opacity:1;stroke-width:1.56610942"
         transform="matrix(0.63852493,0,0,0.63852493,-6.3228842,92.803118)"
         id="g1530">
        <path
           inkscape:connector-curvature="0"
           style="fill:#ffffff;fill-opacity:1;stroke-width:0.41436648"
           d="m 98.727258,315.95837 c -1.261182,-0.16094 -3.411596,-0.20298 -4.778701,-0.0934 -3.518638,0.28199 -3.514151,0.29037 -3.500916,-6.53895 0.0065,-3.34107 0.205745,-6.42527 0.507357,-7.85258 0.445336,-2.10744 0.434573,-2.57396 -0.104074,-4.51136 -1.03028,-3.70572 -0.243737,-4.25064 6.13541,-4.25064 3.834986,0 4.277836,0.0675 4.967136,0.75678 0.71496,0.71496 0.7437,0.97323 0.5201,4.6743 -0.13018,2.15464 -0.32479,4.57494 -0.43246,5.37843 -0.11871,0.88589 -0.0435,1.55497 0.19096,1.69991 0.2127,0.13145 1.66282,0.28204 3.22251,0.33464 3.93991,0.13288 3.95123,0.14914 3.92641,5.63934 -0.011,2.43817 -0.12011,4.59496 -0.24243,4.79287 -0.26166,0.42338 -7.01285,0.40437 -10.411302,-0.0293 z"
           id="path1491" />
        <path
           inkscape:connector-curvature="0"
           style="fill:#ffffff;fill-opacity:1;stroke-width:0.41436648"
           d="m 120.98742,315.82953 c -1.3961,-0.5049 -3.85625,-2.82637 -4.12346,-3.89101 -0.56948,-2.26902 1.48189,-3.69048 5.81559,-4.02977 3.70086,-0.28974 4.00085,-0.89228 1.52329,-3.05958 -2.19294,-1.91833 -2.77498,-2.92838 -3.10018,-5.37984 -0.33062,-2.49229 0.60927,-3.84904 3.93986,-5.68733 2.20824,-1.21881 3.02703,-1.45162 6.95779,-1.97838 4.01264,-0.53772 4.53695,-0.54332 5.28009,-0.0564 1.42285,0.93229 2.63443,6.71481 1.58876,7.58264 -0.28064,0.23291 -1.74114,0.60654 -3.24555,0.8303 -1.67843,0.24963 -2.80687,0.59334 -2.92053,0.88955 -0.36645,0.95494 0.26226,2.17426 1.98056,3.84114 1.30538,1.26632 1.84803,2.1106 2.14072,3.33067 0.85213,3.55209 -1.18777,5.26878 -8.64015,7.27114 -3.44168,0.92474 -5.32723,1.013 -7.19679,0.33687 z"
           id="path1489" />
        <path
           inkscape:connector-curvature="0"
           style="fill:#ffffff;fill-opacity:1;stroke-width:0.41436648"
           d="m 36.115056,315.44959 c -7.9322,-5.71364 -3.798416,-2.40734 -8.262299,-8.27428 -0.09697,-0.12765 -0.725665,0.34154 -1.256356,0.75899 -0.920054,0.72371 -0.954124,0.85955 -0.733142,2.92307 0.44676,4.17176 -0.303816,4.67469 -6.360483,4.26187 -4.919316,-0.3353 -4.93029,-0.34585 -4.841593,-4.65237 0.197621,-9.59507 0.58615,-16.31812 0.951118,-16.45799 0.213712,-0.0819 2.283015,-0.0315 4.598455,0.11203 3.808315,0.23606 4.272915,0.33878 4.870604,1.0769 0.363394,0.44877 0.634934,1.22386 0.603424,1.72242 -0.890619,4.19544 4.232606,-0.81179 4.956361,-1.72152 0.96625,-1.45168 9.687557,-1.42638 10.625844,0.0308 0.545465,0.84714 0.186825,1.3386 -2.480702,3.39944 -1.438021,1.11097 -2.781191,2.2892 -2.98482,2.6183 -0.435658,0.70408 0.296016,2.46683 1.948069,4.69331 2.171324,2.92628 5.238832,8.00393 5.238832,8.67183 0,1.37487 -3.401544,1.78917 -6.873312,0.83717 z"
           id="path1487" />
        <path
           inkscape:connector-curvature="0"
           style="fill:#ffffff;fill-opacity:1;stroke-width:0.41436648"
           d="m 52.978254,315.61014 c -4.652246,-0.43601 -4.38041,0.0407 -4.26638,-7.48199 0.05353,-3.5315 -0.04463,-8.03025 -0.218133,-9.99723 -0.309838,-3.5126 -0.301135,-3.584 0.488368,-4.00653 0.560485,-0.29996 1.723951,-0.35988 3.843237,-0.19794 3.899016,0.29793 4.859359,0.67685 5.283409,2.08461 0.550119,1.8263 0.533273,18.28135 -0.01939,18.97124 -0.642268,0.80171 -1.773425,0.94066 -5.111081,0.62784 z"
           id="path1485" />
        <path
           inkscape:connector-curvature="0"
           style="fill:#ffffff;fill-opacity:1;stroke-width:0.41436648"
           d="m 71.13175,315.68854 c -1.692595,-0.13171 -3.265604,-0.42762 -3.495569,-0.65759 -0.322315,-0.32232 -0.309605,-1.04795 0.05548,-3.16672 0.590648,-3.42791 0.521841,-10.3103 -0.140345,-14.03748 -0.434295,-2.44446 -0.433875,-2.9292 0.0032,-3.6214 0.48964,-0.77559 0.635698,-0.79472 4.949928,-0.64839 6.081027,0.20626 5.923082,0.0291 5.932088,6.65438 0.0037,2.76306 0.135231,5.2224 0.292166,5.46521 0.206047,0.31879 0.941197,0.38099 2.645463,0.22382 2.99937,-0.27661 3.608364,0.25012 3.797467,3.28449 0.07018,1.1261 0.220197,2.85468 0.333375,3.8413 0.144084,1.25606 0.06815,1.90801 -0.253304,2.17461 -0.580798,0.48171 -10.011196,0.80748 -14.119866,0.48777 z"
           id="path1483" />
      </g>
      <g
         style="fill:#ffffff;fill-opacity:1;stroke-width:0.9206872"
         transform="matrix(1.0861453,0,0,1.0861453,11.434581,-34.058531)"
         id="g1536">
        <path
           inkscape:connector-curvature="0"
           style="fill:#ffffff;fill-opacity:1;stroke-width:0.24359846"
           d="m 4.2239772,284.68575 c -0.708442,-0.589 -0.718145,-0.68705 -0.211202,-2.1341 0.292245,-0.83421 0.764616,-3.29211 1.049713,-5.462 0.586357,-4.4628 0.588148,-4.45787 -1.871692,-5.15512 -1.119041,-0.3172 -1.490602,-0.58892 -1.405504,-1.02783 0.09309,-0.48013 0.562402,-0.60717 2.403128,-0.65052 3.999725,-0.0942 9.2103718,0.43751 9.5544168,0.97495 0.532366,0.83163 -0.945063,1.72475 -2.853133,1.72475 -1.0447428,0 -1.8436748,0.19528 -2.1095288,0.51561 -0.629962,0.75906 -1.783946,6.40773 -1.549022,7.58235 0.260587,1.30293 -0.449322,3.44954 -1.289512,3.8992 -0.849896,0.45485 -0.848891,0.455 -1.717664,-0.26729 z"
           id="path1481" />
        <path
           inkscape:connector-curvature="0"
           style="fill:#ffffff;fill-opacity:1;stroke-width:0.24359846"
           d="m 19.349895,284.77105 c -0.302038,-0.36393 -0.36381,-1.06052 -0.195525,-2.20486 0.49589,-3.37205 0.483016,-3.43673 -0.684059,-3.43673 -0.999471,0 -1.107384,0.14383 -1.940276,2.58607 -0.944528,2.76958 -1.480149,3.32851 -2.734028,2.85297 -0.845981,-0.32084 -1.035903,-1.3288 -0.454923,-2.41437 0.585337,-1.09371 2.206081,-8.88102 2.034826,-9.77688 -0.2178,-1.13935 1.267965,-2.39633 2.226269,-1.88346 0.885372,0.47384 1.132591,1.4575 0.84623,3.36708 -0.242872,1.61959 -0.242766,1.6198 0.760314,1.50392 1.042607,-0.12044 1.702367,-1.02132 2.069066,-2.82525 0.443201,-2.18027 2.727029,-2.81142 2.961452,-0.81842 0.189297,1.60932 -1.852581,12.02964 -2.591504,13.22524 -0.333182,0.5391 -1.797664,0.42737 -2.297842,-0.17531 z"
           id="path1479" />
        <path
           inkscape:connector-curvature="0"
           style="fill:#ffffff;fill-opacity:1;stroke-width:0.24359846"
           d="m 24.644932,284.42238 c -0.340717,-0.41054 -0.348181,-0.88529 -0.03356,-2.13476 0.22253,-0.88375 0.319754,-1.7441 0.21605,-1.9119 -0.1037,-0.16779 -0.01545,-0.75496 0.19611,-1.30482 0.21156,-0.54985 0.686003,-2.57149 1.054319,-4.49252 0.67868,-3.53978 1.331166,-4.7975 2.488891,-4.7975 1.055415,0 1.476369,1.24032 1.057611,3.11619 -0.202132,0.90547 -0.631773,3.47194 -0.954755,5.70326 -0.764754,5.28327 -1.193691,6.35 -2.553369,6.35 -0.568225,0 -1.23031,-0.23758 -1.471297,-0.52795 z"
           id="path1471" />
        <path
           inkscape:connector-curvature="0"
           style="fill:#ffffff;fill-opacity:1;stroke-width:0.24359846"
           d="m 33.286978,284.56015 c -2.578738,-1.49783 -3.545141,-4.04259 -1.874724,-4.93657 0.67395,-0.36069 0.872776,-0.28446 1.577989,0.60495 1.585827,2.00004 1.895707,2.25235 2.766181,2.25235 2.263968,0 3.039571,-2.83553 1.261856,-4.61324 -0.84229,-0.8423 -1.329915,-1.0312 -2.661867,-1.0312 -2.22935,0 -3.540651,-1.23488 -3.245125,-3.05601 0.259302,-1.59788 0.70227,-2.10281 2.759165,-3.14512 1.96678,-0.99665 3.09422,-1.06103 5.317067,-0.30363 1.85692,0.63272 2.851192,2.17228 2.036693,3.15369 -0.592859,0.71435 -1.379437,0.66182 -2.645568,-0.17671 -1.332341,-0.88237 -2.71362,-0.89963 -3.48833,-0.0436 -0.548601,0.6062 -0.550773,0.68051 -0.02582,0.88195 0.315286,0.12099 0.926296,0.21998 1.357805,0.21998 1.776857,0 4.803415,3.34034 4.794573,5.29166 -0.0053,1.16882 -1.343208,3.46234 -2.535399,4.34632 -1.125943,0.83486 -4.342966,1.16593 -5.394492,0.55517 z"
           id="path1469" />
      </g>
      <g
         style="fill:#ffffff;fill-opacity:1;stroke-width:0.98607701"
         transform="matrix(1.0141196,0,0,1.0141196,41.006751,-13.596849)"
         id="g1545">
        <path
           inkscape:connector-curvature="0"
           style="fill:#ffffff;fill-opacity:1;stroke-width:0.26089954"
           d="m 52.038888,284.85755 c -0.568024,-0.41535 -0.57259,-0.62019 -0.06738,-3.02188 0.298072,-1.41699 0.692071,-2.85685 0.875559,-3.19969 0.183486,-0.34285 0.496787,-2.21351 0.69623,-4.15703 0.199443,-1.94352 0.449241,-3.75939 0.555104,-4.03526 0.301162,-0.78482 1.563507,-1.42431 2.33082,-1.18077 0.843436,0.2677 2.252083,2.41372 2.587866,3.94252 0.40576,1.84742 1.055965,2.08707 2.194788,0.80893 0.541631,-0.60788 1.385726,-1.83934 1.875776,-2.73656 0.59386,-1.0873 1.273104,-1.78562 2.036803,-2.09401 1.039264,-0.41966 1.215178,-0.39332 1.891797,0.2833 0.601101,0.6011 0.70037,0.99521 0.511109,2.02919 -0.633013,3.45829 -0.984719,6.16516 -1.198055,9.22071 -0.261559,3.74621 -0.448286,4.23333 -1.622729,4.23333 -1.385657,0 -1.749915,-0.85078 -1.66016,-3.87757 0.04508,-1.5202 -0.06626,-2.8556 -0.247407,-2.96755 -0.181152,-0.11196 -0.758809,0.35946 -1.283678,1.0476 -0.790771,1.03676 -1.145117,1.23265 -2.067722,1.14309 -1.009671,-0.098 -1.170718,-0.28699 -1.728515,-2.02846 -1.126114,-3.51576 -1.791345,-3.28792 -2.189213,0.74978 -0.512553,5.20161 -1.684096,7.16157 -3.490993,5.84033 z"
           id="path1477" />
        <path
           inkscape:connector-curvature="0"
           style="fill:#ffffff;fill-opacity:1;stroke-width:0.98607695"
           d="m 279.52734,50.9375 c -8.4568,-0.09226 -13.05078,5.218635 -13.05078,15.494141 0,4.147048 -0.83794,10.816243 -1.86133,14.820312 -1.02338,4.004069 -2.22642,9.679952 -2.67382,12.613281 -2.35408,15.434196 -2.36367,15.101176 0.46289,17.927736 3.33935,3.33936 4.3667,3.39284 7.75781,0.4043 2.70859,-2.38704 1.27209,-11.93887 5.21094,-15.878911 2.42332,-2.424075 6.74514,-4.823888 9.76953,-3.210937 6.13688,3.272882 -8.82249,16.648128 5.63476,20.089848 6.85111,0 9.25586,-7.30757 9.86914,-30.000004 0.63583,-23.527068 -0.53322,-26.634485 -11.40234,-30.34961 -3.64992,-1.247556 -6.89786,-1.879402 -9.7168,-1.910156 z m 3.08204,11.802734 c 4.78218,0.01987 7.21886,10.913974 3.10351,15.029297 -2.37513,2.375131 -3.18287,2.511676 -5.64648,0.949219 -1.17645,-0.746117 -1.61076,-3.451448 -1.33399,-8.314453 0.35909,-6.30909 0.7839,-7.260151 3.4082,-7.632813 0.15901,-0.02258 0.31449,-0.03189 0.46876,-0.03125 z"
           transform="matrix(0.26458333,0,0,0.26458333,0,255)"
           id="path1475" />
        <path
           inkscape:connector-curvature="0"
           style="fill:#ffffff;fill-opacity:1;stroke-width:0.26089954"
           d="m 83.363933,284.10133 c -0.591701,-0.25772 -1.514547,-0.98999 -2.050765,-1.62725 -0.955122,-1.1351 -0.970216,-1.22391 -0.742434,-4.36829 0.342403,-4.72658 1.876023,-7.35473 4.984496,-8.54187 2.850719,-1.0887 5.93452,0.0835 5.675445,2.15724 -0.07081,0.56682 -0.33093,0.69484 -1.322864,0.65105 -0.679095,-0.03 -1.651912,-0.16384 -2.161815,-0.29748 -0.78478,-0.20568 -1.075425,-0.0485 -1.893406,1.02393 -1.931194,2.53192 -2.629111,6.88716 -1.29686,8.09283 0.926817,0.83875 1.637162,0.72659 3.005129,-0.47449 1.392817,-1.22291 2.007233,-1.31289 2.821443,-0.4132 0.848976,0.93811 0.721775,1.68635 -0.482304,2.83704 -1.553466,1.48457 -4.379439,1.89986 -6.536065,0.96049 z"
           id="path1467" />
        <path
           inkscape:connector-curvature="0"
           style="fill:#ffffff;fill-opacity:1;stroke-width:0.26089954"
           d="m 93.287816,283.21806 c -0.606306,-0.66996 -0.61059,-0.83746 -0.07938,-3.10393 0.873881,-3.72851 1.285488,-6.41913 1.285488,-8.40308 0,-1.36491 0.174395,-1.97864 0.696516,-2.45115 0.65442,-0.59225 0.750893,-0.59471 1.596258,-0.0408 0.810556,0.5311 0.891825,0.7899 0.819906,2.61101 -0.04391,1.11182 0.04089,2.21683 0.188452,2.45558 0.158089,0.25579 1.040951,0.43409 2.149438,0.43409 1.851036,0 1.889796,-0.0216 2.421046,-1.34933 0.29694,-0.74213 0.65257,-1.97245 0.79029,-2.73403 0.4835,-2.67373 1.37294,-3.34536 2.43059,-1.83536 0.68273,0.97474 0.69981,3.23127 0.0488,6.44789 -0.27488,1.35819 -0.5831,3.4787 -0.68491,4.71223 -0.20419,2.47384 -0.88703,3.57805 -2.21265,3.57805 -1.33933,0 -1.91858,-1.2755 -1.48828,-3.27722 0.48372,-2.25024 0.0473,-2.79085 -2.138435,-2.6488 l -1.618401,0.10518 0.118812,1.69085 c 0.07251,1.03185 -0.05962,1.90585 -0.339006,2.24249 -0.251798,0.3034 -0.626385,0.89189 -0.832411,1.30776 -0.518017,1.04563 -2.307029,1.19239 -3.152113,0.25858 z"
           id="path1465" />
        <path
           inkscape:connector-curvature="0"
           style="fill:#ffffff;fill-opacity:1;stroke-width:0.26089954"
           d="m 107.98593,283.13176 c -0.61763,-0.61764 -0.54092,-1.88498 0.27087,-4.4747 0.46848,-1.4945 0.70101,-3.22822 0.70101,-5.22666 0,-1.64471 0.18251,-3.33713 0.40559,-3.76093 0.74843,-1.4219 1.81823,-1.71229 2.38775,-0.64815 0.40613,0.75889 -0.0572,8.03207 -0.75627,11.87203 -0.43151,2.37022 -0.49217,2.47363 -1.50964,2.57355 -0.58304,0.0573 -1.25773,-0.0936 -1.49931,-0.33514 z"
           id="path1463" />
        <path
           inkscape:connector-curvature="0"
           style="fill:#ffffff;fill-opacity:1;stroke-width:0.26089954"
           d="m 114.51406,283.15816 c -0.82978,-0.4833 -0.77909,-1.45138 0.26458,-5.05289 0.48507,-1.67387 0.88195,-3.37977 0.88195,-3.79089 0,-0.72147 0.3334,-2.17009 1.14986,-4.99612 0.77531,-2.68357 2.59719,-2.21231 4.04152,1.0454 0.41704,0.94064 1.16347,2.63709 1.65873,3.76988 0.53036,1.21305 1.07936,2 1.33566,1.91457 0.42022,-0.14008 0.8821,-1.76734 1.69608,-5.9754 0.49688,-2.56873 1.21481,-3.25206 2.17321,-2.06847 0.54915,0.67815 0.63476,1.13154 0.43084,2.28161 -0.13997,0.78941 -0.22632,1.83217 -0.19189,2.31724 0.0344,0.48507 -0.11609,1.31506 -0.3345,1.84443 -0.21841,0.52936 -0.66319,2.75186 -0.9884,4.93889 l -0.59129,3.9764 -1.07559,0.10627 c -1.64019,0.16204 -3.36873,-1.93487 -4.14613,-5.0297 -0.70483,-2.80597 -1.56745,-4.63525 -1.9811,-4.20113 -0.49508,0.51958 -1.41312,4.06765 -1.41312,5.46146 0,2.94307 -1.24836,4.42651 -2.91041,3.45845 z"
           id="path1461" />
        <path
           inkscape:connector-curvature="0"
           style="fill:#ffffff;fill-opacity:1;stroke-width:0.26089954"
           d="m 130.58581,282.89092 c -0.52466,-0.52369 -0.37554,-2.45368 0.43292,-5.60294 0.26001,-1.01283 0.58341,-3.34912 0.71866,-5.19176 0.33474,-4.56016 0.27251,-4.51496 6.20161,-4.5049 4.08199,0.007 4.72951,0.0879 5.1345,0.64171 0.38823,0.53093 0.37491,0.72228 -0.082,1.17901 -0.4241,0.4239 -1.38645,0.54521 -4.32498,0.54521 h -3.77951 v 1.05834 c 0,1.04747 0.0253,1.06131 2.46945,1.34876 2.76652,0.32538 3.75289,0.91738 3.0133,1.80853 -0.33364,0.40202 -1.13178,0.54687 -3.0133,0.54687 -1.91885,0 -2.67703,0.14168 -3.02924,0.56608 -0.68257,0.82244 -0.89881,5.0146 -0.2711,5.25548 0.267,0.10245 2.68914,0.22358 5.38255,0.26917 4.20354,0.0711 4.95161,0.16938 5.28202,0.69363 0.29853,0.47367 0.24469,0.75077 -0.23991,1.23472 -0.55164,0.55089 -1.37436,0.62398 -7.02351,0.62398 -4.8717,0 -6.51149,-0.11261 -6.87143,-0.47189 z"
           id="path891" />
      </g>
      <g
         style="display:inline;fill:#ffffff;fill-opacity:1;stroke:none;stroke-width:5.94469833;enable-background:new"
         id="BikeSymbol"
         transform="matrix(0.02613135,-0.00771749,0.00771749,0.02613135,53.54655,264.04288)">
        <g
           style="fill:#ffffff;fill-opacity:1;stroke:none;stroke-width:5.94469833"
           id="g5788">
          <g
             style="fill:#ffffff;fill-opacity:1;stroke:none;stroke-width:5.94469833"
             id="g5793">
            <g
               style="fill:#ffffff;fill-opacity:1;stroke-width:5.05164289"
               transform="matrix(1.176785,0,0,1.176785,50.013958,-7.086646)"
               id="g3160">
              <path
                 style="color:#000000;font-style:normal;font-variant:normal;font-weight:normal;font-stretch:normal;font-size:medium;line-height:normal;font-family:sans-serif;font-variant-ligatures:normal;font-variant-position:normal;font-variant-caps:normal;font-variant-numeric:normal;font-variant-alternates:normal;font-feature-settings:normal;text-indent:0;text-align:start;text-decoration:none;text-decoration-line:none;text-decoration-style:solid;text-decoration-color:#000000;letter-spacing:normal;word-spacing:normal;text-transform:none;writing-mode:lr-tb;direction:ltr;text-orientation:mixed;dominant-baseline:auto;baseline-shift:baseline;text-anchor:start;white-space:normal;shape-padding:0;clip-rule:nonzero;display:inline;overflow:visible;visibility:visible;opacity:1;isolation:auto;mix-blend-mode:normal;color-interpolation:sRGB;color-interpolation-filters:linearRGB;solid-color:#000000;solid-opacity:1;vector-effect:none;fill:#ffffff;fill-opacity:1;fill-rule:nonzero;stroke:none;stroke-width:215.5368042px;stroke-linecap:butt;stroke-linejoin:miter;stroke-miterlimit:4;stroke-dasharray:none;stroke-dashoffset:0;stroke-opacity:1;color-rendering:auto;image-rendering:auto;shape-rendering:auto;text-rendering:auto;enable-background:accumulate"
                 d="m 229.33398,243.19922 c -106.37508,0 -193.066396,86.69327 -193.066402,193.06836 0,106.37509 86.691312,193.0664 193.066402,193.0664 106.3751,0 167.02386,-95.37216 167.02386,-201.74725 -1e-5,-106.37509 -60.64877,-184.38751 -167.02386,-184.38751 z m 0,42.66797 c 83.31632,0 126.52611,80.10535 126.52611,163.42166 0,83.31631 -43.20979,137.37717 -126.52611,137.37717 -83.31631,0 -150.400386,-67.08213 -150.400386,-150.39844 5e-6,-83.31631 67.084076,-150.40039 150.400386,-150.40039 z"
                 id="FrontWheel"
                 inkscape:connector-curvature="0"
                 sodipodi:nodetypes="ssssssssss" />
              <path
                 style="color:#000000;font-style:normal;font-variant:normal;font-weight:normal;font-stretch:normal;font-size:medium;line-height:normal;font-family:sans-serif;font-variant-ligatures:normal;font-variant-position:normal;font-variant-caps:normal;font-variant-numeric:normal;font-variant-alternates:normal;font-feature-settings:normal;text-indent:0;text-align:start;text-decoration:none;text-decoration-line:none;text-decoration-style:solid;text-decoration-color:#000000;letter-spacing:normal;word-spacing:normal;text-transform:none;writing-mode:lr-tb;direction:ltr;text-orientation:mixed;dominant-baseline:auto;baseline-shift:baseline;text-anchor:start;white-space:normal;shape-padding:0;clip-rule:nonzero;display:inline;overflow:visible;visibility:visible;opacity:1;isolation:auto;mix-blend-mode:normal;color-interpolation:sRGB;color-interpolation-filters:linearRGB;solid-color:#000000;solid-opacity:1;vector-effect:none;fill:#ffffff;fill-opacity:1;fill-rule:nonzero;stroke:none;stroke-width:215.5368042px;stroke-linecap:butt;stroke-linejoin:miter;stroke-miterlimit:4;stroke-dasharray:none;stroke-dashoffset:0;stroke-opacity:1;color-rendering:auto;image-rendering:auto;shape-rendering:auto;text-rendering:auto;enable-background:accumulate"
                 d="m 842.66602,240 c -106.3751,0 -193.06641,86.69131 -193.06641,193.06641 0,106.37509 86.69131,193.0664 193.06641,193.0664 106.37508,-2e-5 193.06638,-86.69132 193.06638,-193.0664 0,-106.37508 -86.6913,-193.06639 -193.06638,-193.06641 z m 2.17021,32.90007 c 83.3163,10e-6 148.23018,76.85003 148.23018,160.16634 0,83.3163 -19.54752,150.40037 -150.40039,150.40039 -83.31632,10e-6 -164.50482,-68.16919 -164.50482,-151.4855 0,-83.31632 83.35871,-159.08123 166.67503,-159.08123 z"
                 id="RearWheel"
                 inkscape:connector-curvature="0"
                 sodipodi:nodetypes="ssssssssss" />
              <path
                 style="fill:#ffffff;fill-opacity:1;fill-rule:evenodd;stroke:none;stroke-width:5.3884201"
                 id="Frame"
                 d="M 458.11666,16.498259 C 316.71243,17.876469 340.69326,1.8892465 264.61613,246.38352 c -61.97601,195.35073 -55.22534,174.04702 -55.54946,187.74981 -0.22716,10.64557 8.36622,19.086 19.16473,19.80846 22.45718,-2.27069 36.88351,6.7692 114.74224,-235.00854 284.49296,300.11266 114.82219,240.59551 267.92589,246.69025 201.21851,-1.92949 271.82857,41.94247 274.21746,12.4488 -0.27564,-10.01499 -20.15303,-40.94466 -158.24958,-348.28526 l 13.23081,-36.38472 45.48089,-0.826925 -22.27086,-47.804523 -148.90269,9.765955 c -14.97654,20.489374 1.72371,23.652811 77.5252,40.46696 l -8.89039,33.956323 -309.99973,5.16735 C 395.82703,54.558865 359.09141,63.860842 461.63016,64.044602 Z M 376.28912,185.76228 666.00269,169.98401 608.52033,282.61972 566.01607,400.95395 454.75091,293.70397 Z m 329.61505,0.065 -83.03478,229.08864 194.52421,17.94848 z"
                 inkscape:connector-curvature="0"
                 sodipodi:nodetypes="ccccccccccccccccccccccccccc" />
            </g>
          </g>
        </g>
      </g>
    </g>
  </g>
</svg>
